<?xml version="1.0" encoding="utf-8"?>
<!-- Generator: Adobe Illustrator 22.0.1, SVG Export Plug-In . SVG Version: 6.00 Build 0)  -->
<svg version="1.1" id="Background" xmlns="http://www.w3.org/2000/svg" xmlns:xlink="http://www.w3.org/1999/xlink" x="0px" y="0px"
	 width="104.1px" height="79.3px" viewBox="0 0 104.1 79.3" style="enable-background:new 0 0 104.1 79.3;" xml:space="preserve">
<style type="text/css">
	.st0{fill:#99A2A9;}
	.st1{fill:#191919;}
	.st2{fill:#303030;}
	.st3{fill:#FFA47C;}
	.st4{fill:#E0F2FF;}
	.st5{fill:#FFBD95;}
	.st6{fill:#CEE0FF;}
	.st7{fill:#B8D1FF;}
	.st8{fill:#8D3B26;}
	.st9{fill:#0F0D0D;}
	.st10{fill:#3B1B1D;}
	.st11{fill:#722C1D;}
	.st12{fill:#79858E;}
	.st13{fill:#B9B9BD;}
	.st14{fill:#353432;}
	.st15{fill:#242321;}
	.st16{fill:#4C4B49;}
	.st17{fill:#FFB136;}
	.st18{fill:#F68B2E;}
</style>
<g>
	<g>
		<rect x="88.7" y="52.4" class="st0" width="2.8" height="19.6"/>
		<rect x="98.4" y="47.1" class="st0" width="1.5" height="5.5"/>
		<path class="st1" d="M102.8,18.6l-0.7-0.1c-0.8-0.1-1.6,0.5-1.7,1.3l-3.1,26.1c-0.1,0.8,0.5,1.6,1.3,1.7l0.7,0.1
			c0.8,0.1,1.6-0.5,1.7-1.3l3.1-26.1C104.2,19.4,103.6,18.7,102.8,18.6z"/>
		<path class="st2" d="M101.9,19.4L101.9,19.4c-0.3,0-0.5,0.2-0.5,0.5l-3.1,26c0,0.3,0.1,0.6,0.4,0.6l0,0c0.3,0,0.5-0.2,0.5-0.5
			l3.1-26C102.3,19.7,102.1,19.4,101.9,19.4z"/>
		<path class="st2" d="M84.6,74.3c0,0.9-0.7,1.6-1.6,1.6c-0.9,0-1.6-0.7-1.6-1.6c0-0.9,0.7-1.6,1.6-1.6
			C83.8,72.7,84.6,73.4,84.6,74.3z"/>
		<path class="st2" d="M99.1,74.3c0,0.9-0.7,1.6-1.6,1.6c-0.9,0-1.6-0.7-1.6-1.6c0-0.9,0.7-1.6,1.6-1.6
			C98.4,72.7,99.1,73.4,99.1,74.3z"/>
		<path class="st0" d="M99.6,73.3H80.5v0c0-0.7,0.6-1.4,1.4-1.4h16.5C99,72,99.6,72.6,99.6,73.3L99.6,73.3z"/>
		<rect x="90.3" y="54.1" class="st0" width="0.7" height="17.9"/>
		<rect x="83.7" y="44.1" class="st0" width="0.9" height="5.7"/>
		<rect x="94.7" y="44.1" class="st0" width="0.9" height="5.7"/>
		<path class="st1" d="M96.1,45.6H82.5c-0.7,0-1.3-0.6-1.3-1.3v-0.5c0-0.7,0.6-1.3,1.3-1.3h13.6c0.7,0,1.3,0.6,1.3,1.3v0.5
			C97.4,45,96.8,45.6,96.1,45.6z"/>
		<path class="st1" d="M98.9,55.1H81.4c-1,0-1.9-0.8-1.9-1.9v-2.1c0-1,0.8-1.9,1.9-1.9h17.4c1,0,1.9,0.8,1.9,1.9v2.1
			C100.7,54.3,99.9,55.1,98.9,55.1z"/>
	</g>
	<g>
		<rect x="8.5" y="49.6" class="st0" width="2.8" height="2.2"/>
		<g>
			
				<rect x="11.5" y="53.9" transform="matrix(-1 -1.224647e-16 1.224647e-16 -1 25.7234 127.3509)" class="st0" width="2.8" height="19.6"/>
			<path class="st2" d="M18.3,75.8c0,0.9,0.7,1.6,1.6,1.6s1.6-0.7,1.6-1.6c0-0.9-0.7-1.6-1.6-1.6S18.3,74.9,18.3,75.8z"/>
			<path class="st2" d="M3.8,75.8c0,0.9,0.7,1.6,1.6,1.6c0.9,0,1.6-0.7,1.6-1.6c0-0.9-0.7-1.6-1.6-1.6C4.5,74.2,3.8,74.9,3.8,75.8z"
				/>
			<path class="st0" d="M3.3,74.8h19.2l0,0c0-0.7-0.6-1.4-1.4-1.4H4.6C3.9,73.5,3.3,74.1,3.3,74.8L3.3,74.8z"/>
			
				<rect x="11.9" y="55.6" transform="matrix(-1 -1.224647e-16 1.224647e-16 -1 24.5483 129.0598)" class="st0" width="0.7" height="17.9"/>
		</g>
		<path class="st2" d="M3.8,55.6h18.1c0.8,0,1.5-0.7,1.5-1.5v-0.9c0-0.8-0.7-1.5-1.5-1.5H3.8c-0.8,0-1.5,0.7-1.5,1.5v0.9
			C2.3,54.9,3,55.6,3.8,55.6z"/>
		<g>
			<path class="st1" d="M14.2,49.8h-9c-2.1,0-3.7-1.7-3.7-3.7V33.7c0-4.5,3.7-8.2,8.2-8.2l0,0c4.5,0,8.2,3.7,8.2,8.2v12.4
				C18,48.2,16.3,49.8,14.2,49.8z"/>
			<path class="st2" d="M14.4,48.4h-7c-1.6,0-2.9-1.3-2.9-2.9V33.3c0-3.5,2.9-6.4,6.4-6.4h0c3.5,0,6.4,2.9,6.4,6.4v12.2
				C17.3,47.1,16,48.4,14.4,48.4z"/>
		</g>
	</g>
	<g>
		<g>
			<path class="st3" d="M48.6,30.8L48.6,30.8c-0.1-0.2,0-0.4,0.1-0.5l1.3-0.7c0.2-0.1,0.4,0,0.5,0.1l0,0c0.1,0.2,0,0.4-0.1,0.5
				l-1.3,0.7C48.9,31,48.7,31,48.6,30.8z"/>
			<path class="st3" d="M48.2,30.2L48.2,30.2c-0.1-0.2,0-0.4,0.1-0.5l1.3-0.7c0.2-0.1,0.4,0,0.5,0.1l0,0c0.1,0.2,0,0.4-0.1,0.5
				l-1.3,0.7C48.5,30.5,48.3,30.4,48.2,30.2z"/>
			<path class="st3" d="M47.9,29.7L47.9,29.7c-0.1-0.2,0-0.4,0.1-0.5l1.3-0.7c0.2-0.1,0.4,0,0.5,0.1l0,0c0.1,0.2,0,0.4-0.1,0.5
				l-1.3,0.7C48.2,29.9,48,29.8,47.9,29.7z"/>
			<path class="st3" d="M47.6,29.1L47.6,29.1c-0.1-0.2,0-0.4,0.1-0.5l1.3-0.7c0.2-0.1,0.4,0,0.5,0.1l0,0c0.1,0.2,0,0.4-0.1,0.5
				l-1.3,0.7C47.9,29.3,47.7,29.3,47.6,29.1z"/>
			<path class="st3" d="M52.6,26.9c0,0-2.5,0.2-3,0.4c-0.5,0.2-1.9,1.4-1.9,1.4s0.8,0.3,1,0.7c0.2,0.4,0.5,1.5,0.5,1.5
				s1.6-0.4,2.3-0.8c0.7-0.4,1.2-1,1.2-1L52.6,26.9z"/>
		</g>
		<polygon class="st4" points="51.7,30.1 53.5,29.1 52.4,26.4 50.2,27 		"/>
		<path class="st1" d="M70.7,15.3c1.5,1,1,2.6-0.1,4c-1.1,1.4-8.3,7.2-8.9,7.2c-0.6,0-2.5-1.8-2.2-2.6c0.2-0.8,5.5-6.9,6.6-7.9
			C67.2,15.1,69,14.1,70.7,15.3z"/>
		<path class="st5" d="M72.7,5.9c0,0,1.5,5,1.8,5.2c1.1,0.5,2.6,1.6,3.6,2.8c1.2,1.4,0.8,8.4,0.8,10.9c0.1,2.5,2.1,5.9,3,8.2
			c0.9,2.2-5.7,6.9-6,7c-0.3,0.1-3.2-1.6-3.8-2.2c-0.6-0.7-1.7-6.8-2.1-8.3c-0.4-1.5-2.1-6.8-2.2-7.1c-1-2.2-0.9-4.2-0.9-4.7
			c0-0.5-0.3-1.3-0.1-1.7c0.3-0.8,2.9-2.3,2.8-2.6c0-0.3-0.8-4.8-0.8-4.8L72.7,5.9z"/>
		<path class="st6" d="M74.6,11.1l-3.8,3.8l-1.1-1.6c0,0-2.6,1.9-2.8,2.6c-0.2,0.7-0.1,2.1-0.1,2.7c0,0.5,0.5,2.9,1.2,4.9
			c0.4,1.2,0.8,2.7,1.5,4.7c0.6,1.7,1.5,6,1.5,6s1.7-0.3,4.2-1.1c2.9-0.9,6.2-1.7,6.4-1.8c0.5-0.6-1.9-5.4-1.9-5.9
			c0-0.5-0.5-9.8-0.8-11c-0.2-1.2-1.1-1.7-2-2.3C75.9,11.5,74.6,11.1,74.6,11.1z"/>
		<path class="st7" d="M76.2,11.7c0,0-1.4,1.1-1.9,2.7c-1.3,4.1,3.3,8.5,0.8,9.8c-3.9,2.1-3,3.2-3,4c0,1.9-0.2,4.2-0.2,4.2l9.3-1.1
			c1.2-0.1-1.7-5.1-1.7-6.5c-0.3-5.8-0.6-10-0.8-10.9C78.4,12.7,76.2,11.7,76.2,11.7z"/>
		<polygon class="st3" points="69.3,10.4 73.4,7.7 74.1,10.3 73,11.5 		"/>
		<path class="st5" d="M67.2,1.8c1-1.2,4.3-2.6,6.2-0.5c1.9,2,1.5,4.3,0.7,5.8c-0.6,1.1-1.2,1.8-2.5,2.6c-0.3,0.2-2.7,0.9-3.2,0.8
			c-0.4-0.1-0.9-2.5-1-2.5c-0.1,0-0.4-0.1-0.4-0.3c-0.1-0.3,0-2.1-0.1-2.3C66.9,5.1,66,3.2,67.2,1.8z"/>
		<path class="st8" d="M66.7,3c0,0,1.8-1.3,4.4,0.6c0.6,0.4-0.2,2.5,0,2.7c0.2,0.2,1.7-1.7,1.7-1.4c-0.4,2.4,0.5,3.5,0.7,3.5
			c0.6,0,2.2-3.5,0.9-6c-1.3-2.5-4.1-2.4-4.8-2.2C68.9,0.3,66.9,0.7,66.7,3z"/>
		<path class="st5" d="M71.7,5.2C71.6,5.9,71.6,6.9,72,7c0.4,0.1,0.8-0.5,1-1.2c0.1-0.8-0.1-1.4-0.5-1.5C72.1,4.2,71.8,4.4,71.7,5.2
			z"/>
		<g>
			
				<rect x="74.4" y="75.7" transform="matrix(-1 -1.224647e-16 1.224647e-16 -1 151.7631 151.9029)" class="st1" width="3" height="0.6"/>
			<path class="st9" d="M77.3,71.8c0.4,0.5,0.6,1.6,0.7,2.1c0,0.6-0.3,1.8-0.7,1.8c-1.1,0-2.5,0-3.6,0.2c-1.2,0.2-1.6,0.8-4.5,0.8
				c-0.9,0-2.4-0.1-2.4-0.4c0-0.3,2.8-1,3.7-1.8c2.3-2.1,3.8-2.6,3.8-2.6S77.2,71.7,77.3,71.8z"/>
		</g>
		<path class="st1" d="M79.6,34.3c0,0,0.2,1.2,0.4,2.9c0.2,1.7-1.5,7.2-2.1,11.5c-0.6,4.3-0.9,5.2-0.8,6.2c0.1,1,1.4,5.2,1.3,7.9
			c-0.2,2.7-0.7,9.9-0.7,9.9s-0.8,0.4-2.2,0.5s-2.4-1.1-2.4-1.1s-1.1-16.1-1.3-17.8c-0.1-1.1-1-8.7-1.3-14.8c-0.1-2,0.1-6.6,0.1-7.4
			C70.6,31.7,79.6,34.3,79.6,34.3z"/>
		<g>
			<polygon class="st1" points="83.7,77 86.6,76.5 86.5,75.9 83.6,76.4 			"/>
			<path class="st1" d="M85.7,72c0.5,0.5,0.9,1.5,1.1,2c0.2,0.6,0,1.9-0.3,2c-1.1,0.2-2.4,0.5-3.5,0.8c-1.1,0.4-2,1.6-4.3,1.6
				c-0.9,0-2.5,0-2.5-0.3c0.1-0.9,2.7-1.1,3.4-2.1c1.9-2.5,3.3-3.3,3.3-3.3S85.6,71.9,85.7,72z"/>
		</g>
		<path class="st2" d="M81.4,31.5c0,0,1.3,2.4,1.5,4.6c0.2,1.7,0,4.9,0,9.3c-0.1,4.4,0.3,8.4,0.6,9.3c0.3,1,2.1,5.1,2.3,7.9
			c0.2,2.7,0.5,9.7,0.5,9.7s-1.1,0.7-2.5,1c-1.4,0.3-2.3-0.2-2.3-0.2S78,57.3,77.1,55.8c-1.3-2.4-2.4-10.3-3.7-15.6
			c-0.5-2.1-2.5-7.2-2.5-7.2L81.4,31.5z"/>
		<polygon class="st7" points="70.7,13.7 70.8,14.8 72.8,12.9 		"/>
		<polygon class="st7" points="70.8,14.8 70.1,13.6 69.6,14.2 		"/>
		<polygon class="st2" points="71.2,14.1 69.8,14.1 70,15.5 70.7,15.5 		"/>
		<path class="st2" d="M70.7,15.5c0,0-0.4,3.7-0.1,6.5c0.3,2.8,1,11.5,1,11.5l-1,2.1l-1.1-2c0,0-0.1-8.6-0.1-11.7
			c0-3.1,0.5-6.5,0.5-6.5L70.7,15.5z"/>
		<path class="st2" d="M74.6,11.1c0,0-2.4,3.9-3.3,6.7c-0.9,2.8-1.4,5.5-1.4,5.5l1.8,16.6c0,0,3.6,0,6.8-0.5
			c3.2-0.5,5.3-1.4,5.3-1.4s-0.2-1.8-0.9-4.2c-0.8-3-2.1-6.9-2.3-8.4c-0.4-2.7-0.7-10.7-1.9-12.3C77.5,11.7,74.6,11.1,74.6,11.1z"/>
		<path class="st1" d="M69.2,13.5c0,0-0.4,3.8-0.2,5.8c0.2,2,0.8,4.5,0.8,4.5l1.8,16.2l-2.4-1c0,0-2.5-18.1-2.6-20.3
			c-0.1-2.1-0.1-2.9,0.2-3.3C67.1,15.1,69.2,13.5,69.2,13.5z"/>
		<path class="st1" d="M77.2,12.9c1.7,0.2,1.3,8.9,0.5,12.2c-0.7,3.3-6.1,14.8-6.1,14.8s-2.2-15.5-1.8-16.2c0.3-0.6,1.2-2.7,1.8-4.3
			C72.8,16.2,75.2,12.7,77.2,12.9z"/>
		<polygon class="st4" points="70.1,13.6 69.4,15 69,13.8 69.6,12.9 		"/>
		<path class="st2" d="M76.7,12.8c1.7,0.2,2.1,1.7,1.8,3.5c-0.3,1.8-3.5,11.1-3.9,11.4c-0.5,0.3-3.4-0.2-3.6-1
			c-0.2-0.8,1.9-9.3,2.4-10.8C73.9,14.5,74.7,12.6,76.7,12.8z"/>
		<path class="st3" d="M51.3,30.1c0,0-0.6,0.3-1.4,0.6c-0.1,0-0.2,0.1-0.3,0.1c-0.1,0-0.2,0-0.3,0c-0.1,0-0.1,0.1-0.2,0.1
			c-0.1,0-0.2,0-0.3,0c-0.1,0-0.2,0.1-0.2,0.1c-0.2,0.1-0.3-0.1-0.4-0.1c-0.2,0.1-0.3,0.1-0.3,0.1c-0.2,0-1-0.6-1.1-0.7
			c-0.1-0.1-0.8-0.7-0.8-0.8c0-0.1,0.4-0.2,0.8,0c0.4,0.3,1,0.6,0.9,0.5c-0.1-0.1-0.4-0.6-0.4-0.9c0-0.2,0.1-0.2,0.3-0.3
			c0.1,0,0.4,0.3,0.4,0.3s0.1-0.3,0.2-0.3c0.2,0,0.4,0.3,0.5,0.3c0.1,0.1,0.1-0.3,0.2-0.3c0.4,0,0.7,0.9,1.1,0.7
			C50.2,29.7,51.1,29.6,51.3,30.1z"/>
		<path class="st5" d="M66.8,37.5c0,0-0.1,1.4-0.9,1.7c-0.9,0.3-1.9-0.3-2.1-0.3c-1-0.3-2.2,0.6-2.8,0.5c-0.7,0-0.7-0.5-0.5-0.5
			c1.3-0.4,2-1,2.6-1.1c0.6-0.1,2.7-1,2.7-1L66.8,37.5z"/>
		<polygon class="st4" points="66.9,38.5 68,36.9 65.8,35.3 64.7,37 		"/>
		<polygon class="st4" points="75.2,11.2 74.1,10.3 70.7,13.7 71.7,15 		"/>
		<path class="st1" d="M63.5,23.2c-0.6-1.9-4.4-0.5-6.2,0.3c-1.8,0.8-6.9,3.3-6.9,3.3l1.5,3.3c0,0,5-1.3,9.7-3.5
			C62.3,26.4,64.1,25.1,63.5,23.2z"/>
		<path class="st2" d="M74.3,25.3c1.6,1-0.9,5.2-2.1,6.7c-1.2,1.6-4.8,6.2-4.8,6.2l-2.8-1.9c0,0,2.7-5.1,5.8-9.6
			C70.8,26.3,72.7,24.3,74.3,25.3z"/>
	</g>
	<g>
		<g>
			<g>
				<path class="st5" d="M40.4,37.2c0,0,0,1.3,0.8,1.6c0.8,0.3,1.9-0.1,2.1-0.2c1.1-0.2,2.1,0.7,2.8,0.7c0.7,0,0.7-0.4,0.5-0.4
					c-1.3-0.4-1.9-1-2.5-1.1c-0.6-0.1-2.6-1.1-2.6-1.1L40.4,37.2z"/>
				<path class="st5" d="M40.6,38.1c0,0,0.4,0.9,1,1.1c0.5,0.3,1.2,0,1.7,0.1c0.5,0.2,0.4-0.1,0.4-0.2c0-0.1-0.6-0.3-0.9-0.4
					C42.5,38.6,41.7,37.6,40.6,38.1z"/>
			</g>
			<path class="st7" d="M35.8,25.9c1.6-1,3.4,2.5,4.2,4.2c0.8,1.7,2.5,7,2.5,7l-1.8,0.9c0,0-3.3-3.9-5.7-8.6
				C34.7,29.1,34.1,26.9,35.8,25.9z"/>
			<polygon class="st4" points="42,35.5 42.8,37.2 40.4,38.5 39.4,36.8 			"/>
			<path class="st7" d="M33.5,14.8c-1.8,0.1-2.3,1.6-2.1,3.3c0.2,1.8,2.9,10.6,3.4,11c0.5,0.3,3-0.1,3.3-0.9
				c0.2-0.8-0.9-8.7-1.3-10.1C36.3,16.7,35.6,14.7,33.5,14.8z"/>
			<path class="st5" d="M29.7,6.2c0,0-1.4,5-1.7,5.2c-1.1,0.6-2.6,1.7-3.5,2.9c-1.1,1.4-0.6,8.4-0.6,10.9c0,2.5-2,6-2.9,8.2
				c-0.9,2.3,5.9,6.8,6.1,6.8c0.3,0.1,3.2-1.6,3.8-2.3c0.6-0.7,1.5-6.8,1.9-8.3c0.3-1.5,1.9-6.8,2.1-7.2c1-2.2,0.8-4.2,0.8-4.8
				c0-0.5,0.2-1.3,0.1-1.7c-0.4-0.7-2.9-2.2-2.9-2.5c0-0.3,0.6-4.8,0.6-4.8L29.7,6.2z"/>
			<path class="st6" d="M28,11.4l3.9,3.7l1-1.6c0,0,2.7,1.8,2.9,2.5c0.2,0.7,0.1,2.1,0.1,2.7s-0.5,2.9-1.1,4.9
				c-0.4,1.2-0.7,2.8-1.4,4.7c-0.5,1.7-1.3,6.1-1.3,6.1s-1.7-0.3-4.2-1c-2.9-0.8-6.3-1.6-6.4-1.7c-0.5-0.6,1.8-5.4,1.8-6
				c0-0.5,0.3-9.8,0.5-11c0.2-1.2,1.1-1.8,1.9-2.3C26.7,11.8,28,11.4,28,11.4z"/>
			<path class="st7" d="M25.1,12.8c0,0,3.1,0,3.6,1.5c1.4,4.1,1,5,3.4,6.3c3.9,2,0.4,7.5,0.4,8.3c0,1.9-0.3,3.6-0.3,3.6l-10.5-0.8
				c-1.2,0,1.6-5.2,1.6-6.5c0.2-5.8,0.4-10,0.6-10.9C24.2,13.5,25.1,12.8,25.1,12.8z"/>
			<polygon class="st3" points="33.3,10.6 29.2,7.9 28.4,10.6 29.6,11.7 			"/>
			<path class="st5" d="M35.2,1.9c-1-1.2-4.4-2.5-6.2-0.4s-1.4,4.4-0.6,5.8c0.6,1.1,1.2,1.8,2.5,2.5c0.3,0.2,2.7,0.8,3.2,0.7
				c0.4-0.1,0.9-2.5,1-2.5c0.1,0,0.4-0.1,0.4-0.3c0.1-0.3-0.1-2.1,0-2.3C35.5,5.3,36.4,3.3,35.2,1.9z"/>
			<path class="st8" d="M35.8,3.1c0,0-1.8-1.3-4.4,0.7c-0.6,0.4,0.2,2.5,0.1,2.7c-0.2,0.2-1.7-1.6-1.7-1.4c0.5,2.4-0.4,3.5-0.6,3.5
				c-0.6,0-3.1-3.6-1.9-6.1c1.2-2.5,4.7-2.6,5.4-2.4C33.2,0.3,37.2,0.2,35.8,3.1z"/>
			<path class="st5" d="M30.8,5.4c0.2,0.8,0.2,1.7-0.3,1.8c-0.4,0.1-0.9-0.5-1-1.2c-0.2-0.8,0.1-1.4,0.5-1.5
				C30.4,4.4,30.6,4.6,30.8,5.4z"/>
			<g>
				<rect x="25.5" y="76" class="st1" width="3" height="0.6"/>
				<path class="st9" d="M25.6,72.1c-0.4,0.5-0.6,1.6-0.7,2.1c0,0.6,0.3,1.8,0.7,1.8c1.1,0,2.5,0,3.6,0.2c1.2,0.2,1.6,0.8,4.5,0.8
					c0.9,0,2.4-0.1,2.4-0.4c0-0.3-2.8-1-3.7-1.8c-2.3-2.1-3.8-2.6-3.8-2.6S25.7,72,25.6,72.1z"/>
			</g>
			<path class="st1" d="M23.3,34.6c0,0-0.2,1.2-0.4,2.9c-0.2,1.7,1.5,7.2,2.1,11.5c0.6,4.3,0.9,5.2,0.8,6.2c-0.1,1-1.4,5.2-1.3,7.9
				c0.2,2.7,0.7,9.9,0.7,9.9s0.8,0.4,2.2,0.5c1.4,0.1,2.4-1.1,2.4-1.1s1.1-16.1,1.3-17.8c0.1-1.1,1-8.7,1.3-14.8
				c0.1-2-0.1-6.6-0.1-7.4C32.3,32,23.3,34.6,23.3,34.6z"/>
			<g>
				<polygon class="st1" points="24.5,77.6 21.6,77.4 21.6,76.8 24.5,77 				"/>
				<path class="st1" d="M22,72.8c-0.4,0.5-0.8,1.6-0.8,2.1c-0.1,0.6,0.2,1.9,0.6,1.9c1.1,0.1,2.4,0.2,3.6,0.4
					c1.1,0.2,1.5,0.9,4.5,1.1c0.9,0.1,2.4,0.1,2.4-0.3c0-0.4-2.8-1.2-3.6-2.1c-2.1-2.3-3.6-2.9-3.6-2.9S22.1,72.7,22,72.8z"/>
			</g>
			<path class="st2" d="M21.5,31.8c0,0-1,2.6-0.9,4.7c0,1.7,0.5,4.9,1.1,9.2c0.6,4.3,0.6,8.3,0.5,9.4c-0.1,1-1.5,5.3-1.3,8.1
				c0.2,2.7,0.9,9.5,0.9,9.5s0.9,0.8,2.3,0.9c1.4,0.1,2.3-0.5,2.3-0.5s1.7-16.1,2.3-17.7c1-2.5,1.2-10.5,1.9-15.9
				c0.3-2.2,1.6-7,1.6-7L21.5,31.8z"/>
			<polygon class="st7" points="31.9,13.9 31.9,15 29.8,13.1 			"/>
			<polygon class="st7" points="31.9,15 32.5,13.8 33,14.4 			"/>
			<polygon class="st2" points="31.4,14.4 32.9,14.3 32.7,15.6 31.9,15.7 			"/>
			<polygon class="st4" points="27.4,11.5 28.4,10.6 31.9,13.9 31,15.2 			"/>
			<polygon class="st4" points="32.5,13.8 33.3,15.1 33.7,14 33,13 			"/>
			<path class="st10" d="M21.4,31.7c0,0,3.1,0.2,6.1,0.3s4.9,0.2,4.9,0.2l0,1.2c0,0-3.1,0.1-6.3-0.1c-3.2-0.2-4.9-0.5-4.9-0.5
				L21.4,31.7z"/>
			<path class="st11" d="M31.3,33.6H32c0.2,0,0.4-0.2,0.4-0.4v-0.6c0-0.2-0.2-0.4-0.4-0.4h-0.7c-0.2,0-0.4,0.2-0.4,0.4v0.6
				C30.9,33.5,31.1,33.6,31.3,33.6z"/>
			<path class="st2" d="M31.9,15.7c0,0,0.5,3.7,0.3,6.5C32,25,31.8,33.7,31.8,33.7l1.1,2l1-2c0,0-0.5-8.6-0.5-11.6
				c-0.1-3.1-0.6-6.5-0.6-6.5L31.9,15.7z"/>
			<g>
				<path class="st3" d="M48.8,30.8L48.8,30.8c0.1-0.2,0.1-0.4-0.1-0.5l-1.2-0.8c-0.2-0.1-0.4-0.1-0.5,0.1l0,0
					c-0.1,0.2-0.1,0.4,0.1,0.5l1.2,0.8C48.4,31,48.7,31,48.8,30.8z"/>
				<path class="st3" d="M49.2,30.3L49.2,30.3c0.1-0.2,0.1-0.4-0.1-0.5l-1.2-0.8c-0.2-0.1-0.4-0.1-0.5,0.1l0,0
					c-0.1,0.2-0.1,0.4,0.1,0.5l1.2,0.8C48.8,30.5,49.1,30.5,49.2,30.3z"/>
				<path class="st3" d="M49.5,29.8L49.5,29.8c0.1-0.2,0.1-0.4-0.1-0.5l-1.2-0.8c-0.2-0.1-0.4-0.1-0.5,0.1l0,0
					c-0.1,0.2-0.1,0.4,0.1,0.5l1.2,0.8C49.2,30,49.4,30,49.5,29.8z"/>
				<path class="st3" d="M49.8,29.3L49.8,29.3c0.1-0.2,0.1-0.4-0.1-0.5L48.6,28c-0.2-0.1-0.4-0.1-0.5,0.1l0,0
					c-0.1,0.2-0.1,0.4,0.1,0.5l1.2,0.8C49.5,29.5,49.7,29.5,49.8,29.3z"/>
				<path class="st3" d="M45.4,26.8c0,0,2.4,0.4,2.8,0.6c0.4,0.2,1.7,1.5,1.7,1.5s-0.8,0.2-1,0.6c-0.2,0.4-0.6,1.4-0.6,1.4
					s-1.5-0.5-2.1-1c-0.6-0.5-1.1-1-1.1-1L45.4,26.8z"/>
			</g>
			<path class="st6" d="M25,13.8c-1.4,1.1-0.9,2.6,0.2,3.9c1.2,1.3,8.6,6.9,9.2,6.9c0.6,0,2.4-1.9,2.1-2.6c-0.3-0.8-5.9-6.5-7-7.4
				C28.3,13.6,26.6,12.5,25,13.8z"/>
			<path class="st6" d="M33.3,22.2c-1,1.7,2.6,3.6,4.5,4.3c1.9,0.7,7.5,2.7,7.5,2.7l0.9-2.3c0,0-4.2-2.6-9.1-5.1
				C35.8,21.2,34.2,20.4,33.3,22.2z"/>
			<rect x="44.1" y="26.3" transform="matrix(0.8998 0.4363 -0.4363 0.8998 16.6392 -16.8975)" class="st4" width="2" height="3"/>
		</g>
	</g>
	<g>
		
			<rect x="17" y="57.7" transform="matrix(6.123234e-17 -1 1 6.123234e-17 -22.4617 95.4348)" class="st12" width="39" height="2.6"/>
		
			<rect x="47.1" y="57.7" transform="matrix(6.123234e-17 -1 1 6.123234e-17 7.6806 125.5771)" class="st12" width="39" height="2.6"/>
		<rect x="35.6" y="40.2" class="st12" width="31.9" height="35.8"/>
		<polygon class="st13" points="67.9,44.5 35.2,45.1 35.2,43 67.9,43 		"/>
		<rect x="32.1" y="39.3" class="st0" width="39" height="3.7"/>
	</g>
	<g>
		<path class="st14" d="M15.8,67.9H1c-0.4,0-0.6,0.3-0.6,0.6v10.2c0,0.4,0.3,0.6,0.6,0.6h14.9c0.4,0,0.6-0.3,0.6-0.6V68.5
			C16.5,68.2,16.2,67.9,15.8,67.9z"/>
		<path class="st14" d="M5.4,67.4c-0.1,0-0.3,0-0.4,0.1c-0.1,0.1-0.2,0.1-0.4,0.1c0,0-0.3,0-0.5,0c-0.2,0-0.1,0.2-0.1,0.2h1.5
			C5.6,67.9,5.8,67.6,5.4,67.4z"/>
		<path class="st15" d="M16.1,68.1H0.7c-0.4,0-0.7,0.3-0.7,0.7v1.6c0,1.8,1.5,3.3,3.3,3.3h10.2c1.8,0,3.3-1.5,3.3-3.3v-1.6
			C16.8,68.4,16.5,68.1,16.1,68.1z"/>
		<path class="st16" d="M16.1,67.9H0.7c-0.4,0-0.7,0.3-0.7,0.7v1.6c0,1.8,1.5,3.3,3.3,3.3h10.2c1.8,0,3.3-1.5,3.3-3.3v-1.6
			C16.8,68.2,16.5,67.9,16.1,67.9z"/>
		<path class="st14" d="M5.9,66.6H5.2c-0.1,0-0.1,0.1-0.1,0.1c0,0.1,0.1,0.1,0.1,0.1h0.6c0.1,0,0.1-0.1,0.1-0.1
			C6,66.6,5.9,66.6,5.9,66.6z"/>
		<path class="st17" d="M5.4,66.5c-0.1,0-0.2,0.1-0.2,0.2v1c0,0.1,0.1,0.2,0.2,0.2s0.2-0.1,0.2-0.2v-1C5.6,66.5,5.5,66.5,5.4,66.5z"
			/>
		<path class="st18" d="M5.5,66.5C5.5,66.5,5.5,66.5,5.5,66.5l0,1.1c0,0.1-0.1,0.2-0.2,0.2c0,0-0.1,0-0.1,0c0,0.1,0.1,0.1,0.2,0.1
			c0.1,0,0.2-0.1,0.2-0.2v-1C5.6,66.6,5.5,66.5,5.5,66.5z"/>
		<path class="st14" d="M12.6,67.6c-0.2,0-0.5,0-0.5,0c-0.1,0-0.3,0-0.4-0.1c-0.1-0.1-0.3-0.1-0.4-0.1c-0.4,0.1-0.2,0.4-0.2,0.4h1.5
			C12.7,67.9,12.8,67.6,12.6,67.6z"/>
		<path class="st14" d="M11.6,66.6H11c-0.1,0-0.1,0.1-0.1,0.1c0,0.1,0.1,0.1,0.1,0.1h0.6c0.1,0,0.1-0.1,0.1-0.1
			C11.7,66.6,11.7,66.6,11.6,66.6z"/>
		<path class="st17" d="M11.4,66.5c-0.1,0-0.2,0.1-0.2,0.2v1c0,0.1,0.1,0.2,0.2,0.2c0.1,0,0.2-0.1,0.2-0.2v-1
			C11.6,66.5,11.5,66.5,11.4,66.5z"/>
		<path class="st18" d="M11.3,67.5v-1c0,0,0,0,0-0.1c-0.1,0-0.1,0.1-0.1,0.2L11.3,67.5c-0.1,0.2,0,0.3,0.1,0.3c0.1,0,0.1,0,0.2-0.1
			c0,0-0.1,0-0.1,0C11.4,67.7,11.3,67.6,11.3,67.5z"/>
		<path class="st14" d="M11.1,66.1c-1.8-0.2-3.5-0.2-5.3,0c-0.2,0-0.3,0.2-0.2,0.3c0,0.1,0,0.3,0.1,0.4c0,0.1,0.2,0.2,0.3,0.2
			c1.7-0.2,3.4-0.2,5.1,0c0.1,0,0.3-0.1,0.3-0.2c0-0.1,0-0.3,0.1-0.4C11.3,66.2,11.2,66.1,11.1,66.1z"/>
		<path class="st18" d="M7.4,74.4c0,0.3,0.3,0.6,0.6,0.6h0.6c0.3,0,0.6-0.3,0.6-0.6v-2.2H7.4V74.4z"/>
		<path class="st17" d="M7.8,74.2c0,0.2,0.2,0.4,0.4,0.4h0.5c0.2,0,0.4-0.2,0.4-0.4v-1.5H7.8V74.2z"/>
		<path class="st14" d="M9.4,71.9h-2c-0.1,0-0.2,0.1-0.2,0.2v0.5c0,0.1,0.1,0.2,0.2,0.2h2c0.1,0,0.2-0.1,0.2-0.2v-0.5
			C9.6,72,9.5,71.9,9.4,71.9z"/>
	</g>
</g>
</svg>
