<?xml version="1.0" encoding="utf-8"?>
<!-- Generator: Adobe Illustrator 22.0.1, SVG Export Plug-In . SVG Version: 6.00 Build 0)  -->
<svg version="1.1" id="Background" xmlns="http://www.w3.org/2000/svg" xmlns:xlink="http://www.w3.org/1999/xlink" x="0px" y="0px"
	 width="100.3px" height="103.4px" viewBox="0 0 100.3 103.4" style="enable-background:new 0 0 100.3 103.4;" xml:space="preserve"
	>
<style type="text/css">
	.st0{fill:#FFA93B;}
	.st1{fill:#FFA465;}
	.st2{fill:#FF8626;}
	.st3{fill:#5B0000;}
	.st4{fill:#FFA47C;}
	.st5{fill:#CEE0FF;}
	.st6{fill:#B7A994;}
	.st7{fill:#22272C;}
	.st8{fill:#FFBD95;}
	.st9{fill:#8D3B26;}
	.st10{fill:#002D56;}
	.st11{fill:#00233F;}
	.st12{fill:#B8D1FF;}
	.st13{fill:#7E0000;}
	.st14{fill:#375987;}
	.st15{fill:#BF0000;}
	.st16{fill:#4F2718;}
	.st17{fill:#D60000;}
	.st18{fill:#191919;}
	.st19{fill:#080808;}
	.st20{fill:#0E3854;}
	.st21{fill:#FF6E26;}
	.st22{fill:#B54095;}
	.st23{fill:#178C00;}
</style>
<g>
	<g>
		<path class="st0" d="M72,17.2L71.6,17c0,0,0.6-1.4,0-3c-0.5-1.3-1.4-2.2-1.8-2.5l-1,1.4l-0.4-0.3l1.3-1.8l0.2,0.2
			c0.1,0,1.4,1.1,2.2,2.9C72.7,15.6,72,17.1,72,17.2z"/>
		<path class="st1" d="M62.9,18.1C62.9,18.1,62.9,18.1,62.9,18.1c3.8,2.7,7.8,3.5,9.1,1.8c1.3-1.7-0.7-5.4-4.5-8.1c0,0,0,0,0,0
			L62.9,18.1z"/>
		<path class="st2" d="M62.9,18.1C62.9,18.1,62.9,18.1,62.9,18.1c3.8,2.7,7.8,3.5,9.1,1.8c1.3-1.7-0.7-5.4-4.5-8.1c0,0,0,0,0,0
			L62.9,18.1z"/>
		<g>
			<g>
				<path class="st2" d="M72,19.9l3.9,2.8l-1.5,2.1l-0.6-0.4l0.2-0.3l-0.2-0.2c0,0,0.3-0.4-0.5-1.7c-0.5-0.9-1.7-1.7-1.7-1.7
					L72,19.9z"/>
				<path class="st0" d="M72,19.9l3.9,2.8l1.5-2.1l-0.6-0.4l-0.2,0.3l-0.2-0.2c0,0-0.3,0.4-1.8,0.1c-1-0.2-2.1-1.1-2.1-1.1L72,19.9z
					"/>
			</g>
		</g>
		<path class="st2" d="M69.4,20.8c-0.1,0-1.3,1.2-3.2,1c-1.9-0.1-3.4-1.1-3.4-1.2l-0.2-0.1l1.3-1.8l0.4,0.3l-1,1.4
			c0.5,0.3,1.6,0.9,3,1c1.8,0.1,2.9-0.9,2.9-0.9L69.4,20.8z"/>
		<g>
			<g>
				<path class="st0" d="M63.5,17.3C63.5,17.3,63.5,17.3,63.5,17.3l-0.1,0.1c0,0,0,0,0,0c2.1,1.5,4.2,2.5,5.8,2.8
					C67.7,19.9,65.6,18.8,63.5,17.3z"/>
				<path class="st0" d="M67.1,12.3l-0.6,0.8c0,0,0,0,0,0c3.6,2.6,5.9,5.6,5.3,6.9c0,0,0.1-0.1,0.1-0.2C73.1,18.4,70.9,15,67.1,12.3
					C67.2,12.3,67.2,12.3,67.1,12.3z"/>
			</g>
		</g>
		<path class="st0" d="M73.1,19.3l-1.3,1.7c-0.1,0.1-0.2,0.1-0.4,0.1l-0.3-0.2c-0.1-0.1-0.1-0.2-0.1-0.4l1.3-1.7
			c0.1-0.1,0.2-0.1,0.4-0.1L73,19C73.1,19,73.1,19.2,73.1,19.3z"/>
		<rect x="73.1" y="22.1" transform="matrix(0.5882 -0.8087 0.8087 0.5882 12.9872 70.023)" class="st2" width="4.3" height="0.4"/>
		<path class="st0" d="M67.3,11.6L62.7,18c-0.1,0.1,0,0.2,0,0.3l0,0c0.1,0.1,0.2,0,0.3,0l4.7-6.4c0.1-0.1,0-0.2,0-0.3l0,0
			C67.5,11.5,67.4,11.5,67.3,11.6z"/>
	</g>
	<g>
		<path class="st3" d="M13.1,68.3c0,0,3.3-1.6,6.3-1.8c3.1-0.2-4.6-19.5-4.6-19.5L13.1,68.3z"/>
		<g>
			<path class="st4" d="M31,80.3c-0.6-0.4-2.7-0.7-5.1,3.5C23.5,88,21.6,95,21.6,95l1.8,0.6c0,0,5.3-7.3,6.2-8.8
				C31.6,83.6,33,81.5,31,80.3z"/>
			<path class="st5" d="M21.5,95c0,0-0.9,1.7-0.9,2.6c0,0.2,5,2.4,5.8,2.4c0.8-0.1,1.6-0.2,1.6-0.2s0.1-0.8-0.2-1
				c-0.3-0.1-3.2-2-3.4-2.6c-0.2-0.6-0.2-1.4-0.5-1.2C23.7,95.3,22.4,95.5,21.5,95z"/>
			<path class="st6" d="M26.5,100c0.5,0,0.9-0.1,1.2-0.1c-0.5,0-1-0.1-1.2-0.2c-0.6-0.3-2.4-1.6-3.6-2.4c-1.1-0.8-1-1.8-1-2.1
				c-0.1,0-0.2-0.1-0.2-0.1c0,0-0.9,1.7-0.9,2.6C20.7,97.8,25.6,100,26.5,100z"/>
			<path class="st7" d="M28,99.8c0,0-1.5,0.2-1.8,0.1c-0.2-0.1-3-1.7-4.5-2.3c-0.5-0.2-0.8-0.4-1-0.5c-0.1,0-0.1,0.5-0.1,0.5l0,0.4
				c0,0,5.4,2.2,5.6,2.3c0.2,0,2-0.1,2-0.1L28,99.8z"/>
			<path class="st8" d="M27.9,53.5c0.6-3.3,2.5-9.1,0.8-9.8c-2.2-0.9-8.2-0.9-8.2-0.9l0,0.1c0,0-5.8,1.3-7.7,2.9
				c-1.4,1.2,2.1,6.5,3.6,9.5c0.4,0.7,1.5,4.1,1.8,7.1c0.1,0.7,0.2,4.2,0.5,5.6c0.1,0.4,4.8,2.1,6.6,2.1c1.4,0,5.7-3.6,5.7-4
				c-0.1-1.4-1.5-4.7-1.6-5.5C28.9,57.6,27.7,54.3,27.9,53.5z"/>
			<path class="st4" d="M15.5,49c0.9-0.8,0.8-2.5-0.7-4.2s-2.7-2.7-3.1-3.1c-0.4-0.4-2.6-3.2-3.3-3.9C7.8,37.2,6.8,37,6,37.6
				c-0.6,0.5-0.4,2.2,0.4,3.7C7.2,42.7,13,51.1,15.5,49z"/>
			<path class="st8" d="M22.8,41.5c-0.2-0.6-1-3.5-1-3.5l-2,0.3l0,0.1l-2,0.3c0,0,0.1,3,0,3.6c0,0.6-1.5,1.8-1.5,1.8l8.7-1.1
				C25.1,43,23,42.1,22.8,41.5z"/>
			<path class="st4" d="M22.5,40.7c-0.3-0.9-0.6-2.2-0.7-2.6L21.7,38l-1.9,0.3l0,0.1l-2,0.3c0,0,0.1,3,0,3.6c0,0.6-1.5,1.8-1.5,1.8
				l0.2,0c1.8-0.8,3.6-1.5,3.8-1.6C20.9,42.2,22.5,40.7,22.5,40.7L22.5,40.7z"/>
			<path class="st8" d="M22,63.2c-2.4-0.1-3.4,1.6-3.4,6.8c0,5.2,0.9,12.1,1.3,12.9c0.3,0.8,3.3,0.5,3.6,0c0.3-0.5,1.6-12,1.6-13.7
				C25.1,67.5,24.6,63.3,22,63.2z"/>
			<path class="st8" d="M21.4,81.7c-0.7,0-2.5,1-2.4,5.9c0.1,4.9,2.1,12,2.1,12l1.8,0c0,0,1-9.4,1-11.2
				C23.8,84.4,23.7,81.7,21.4,81.7z"/>
			<path class="st4" d="M27.7,63.7c2.4-0.3,3.6,1.3,4.1,6.4c0.6,5.2,0.4,11.4,0.1,12.2c-0.2,0.8-3.1,0.8-3.5,0.4
				c-0.4-0.4-3-11.1-3.2-12.8C25.1,68.3,25.1,64.1,27.7,63.7z"/>
			<path class="st4" d="M26.7,47.5c-1-0.7-1-2.4,0.2-4.2c1.3-1.9,2.3-3,2.7-3.5c0.4-0.5,2.2-3.5,2.8-4.2c0.6-0.7,1.6-1.1,2.4-0.5
				c0.7,0.5,0.7,2.2,0,3.7C34.2,40.3,29.4,49.3,26.7,47.5z"/>
			<path class="st4" d="M7.2,40.2c-0.9,0.4-1.8,0.3-3.1-2.2c-1.2-2.5-3.4-8.5-3.4-8.5l1.5-0.6c0,0,3.6,4.3,4.3,5.6
				C7.3,35.8,9.6,39.2,7.2,40.2z"/>
			<path class="st8" d="M23.3,35.4c0.5,2.5-0.9,5.4-2.6,5.7c-1.5,0.3-4-1.8-4.5-4.4c-0.5-2.5,0.7-4.9,2.7-5.2
				C20.8,31.2,22.8,32.9,23.3,35.4z"/>
			<path class="st9" d="M16.3,37.3c-0.2-0.2-1-1.3-0.9-1.9c0-0.5-0.1-1.7,0.6-2.2c0.1-0.1,0.6-0.1,0.5-0.6c-0.1-0.8,1.4-1.1,1.5-1.1
				c0.3-0.1,1-0.3,1.6-0.3c0.6,0,1.8,0.1,3.2,1.8c0.3,0.3,0.8,1.2,0.7,1.4c0,0.1-0.1,1.3-0.1,1.4c0,0.1-0.1,0.4-0.1,0.4
				s-1.4-2.2-1.5-2.5c-0.1-0.2-4.9,0.6-5.1,0.8C16.5,34.7,16.3,37.3,16.3,37.3z"/>
			<g>
				<path class="st4" d="M0.2,25.8L0.2,25.8c0.2,0,0.4,0.1,0.4,0.2L1,27.4c0,0.2-0.1,0.4-0.2,0.4l0,0c-0.2,0-0.4-0.1-0.4-0.2L0,26.2
					C0,26,0.1,25.8,0.2,25.8z"/>
				<path class="st4" d="M0.8,25.5L0.8,25.5c0.2,0,0.4,0.1,0.4,0.2l0.4,1.4c0,0.2-0.1,0.4-0.2,0.4l0,0c-0.2,0-0.4-0.1-0.4-0.2
					l-0.4-1.4C0.5,25.8,0.7,25.6,0.8,25.5z"/>
				<path class="st4" d="M1.4,25.3L1.4,25.3c0.2,0,0.4,0.1,0.4,0.2L2.2,27c0,0.2-0.1,0.4-0.2,0.4l0,0c-0.2,0-0.4-0.1-0.4-0.2
					l-0.4-1.4C1.1,25.6,1.2,25.4,1.4,25.3z"/>
				<path class="st4" d="M2,25.2L2,25.2c0.2,0,0.4,0.1,0.4,0.2l0.4,1.4c0,0.2-0.1,0.4-0.2,0.4l0,0c-0.2,0-0.4-0.1-0.4-0.2l-0.4-1.4
					C1.7,25.5,1.8,25.3,2,25.2z"/>
				<path class="st4" d="M2.9,30.2c0,0,0.3-2.3,0.3-2.8c-0.1-0.5-0.9-2.1-0.9-2.1S1.9,26,1.5,26.1S0,26.2,0,26.2s0,1.6,0.3,2.3
					c0.2,0.7,0.6,1.3,0.6,1.3L2.9,30.2z"/>
			</g>
			<path class="st4" d="M33.5,37.8c0.9,0.4,1.8,0.3,3.1-2.2c1.2-2.5,3.4-8.5,3.4-8.5l-1.5-0.6c0,0-3.6,4.3-4.3,5.6
				C33.5,33.3,31.2,36.8,33.5,37.8z"/>
			<g>
				<path class="st4" d="M41.2,24L41.2,24c-0.2-0.1-0.4,0-0.5,0.1l-0.7,1.3c-0.1,0.2,0,0.4,0.1,0.5l0,0c0.2,0.1,0.4,0,0.5-0.1
					l0.7-1.3C41.4,24.3,41.4,24.1,41.2,24z"/>
				<path class="st4" d="M40.7,23.7L40.7,23.7c-0.2-0.1-0.4,0-0.5,0.1l-0.7,1.3c-0.1,0.2,0,0.4,0.1,0.5l0,0c0.2,0.1,0.4,0,0.5-0.1
					l0.7-1.3C40.9,24,40.8,23.8,40.7,23.7z"/>
				<path class="st4" d="M40.1,23.4L40.1,23.4c-0.2-0.1-0.4,0-0.5,0.1L39,24.8c-0.1,0.2,0,0.4,0.1,0.5l0,0c0.2,0.1,0.4,0,0.5-0.1
					l0.7-1.3C40.4,23.7,40.3,23.5,40.1,23.4z"/>
				<path class="st4" d="M39.6,23.1L39.6,23.1c-0.2-0.1-0.4,0-0.5,0.1l-0.7,1.3c-0.1,0.2,0,0.4,0.1,0.5l0,0c0.2,0.1,0.4,0,0.5-0.1
					l0.7-1.3C39.8,23.4,39.8,23.2,39.6,23.1z"/>
				<path class="st4" d="M37.6,27.8c0,0,0.2-2.4,0.3-2.8c0.2-0.4,1.3-1.8,1.3-1.8s0.3,0.8,0.7,0.9c0.4,0.1,1.4,0.4,1.4,0.4
					S41,26,40.6,26.6c-0.4,0.6-0.9,1.1-0.9,1.1L37.6,27.8z"/>
			</g>
			<path class="st7" d="M22.9,99.6l-2.3-0.1c0,0,0,0.5-0.6,1.4c-0.4,0.6-1,1.2-1,1.7c0,0.3,0.2,0.6,0.5,0.7c0.8,0.1,2.2,0.2,2.6-0.1
				c0.4-0.3,0.6-0.8,0.9-1.1c0.2-0.4,0.1-1,0.1-1.2C23,100.5,22.9,99.6,22.9,99.6z"/>
			<path class="st5" d="M22.9,99.3l-2.3-0.1c0,0,0,0.5-0.6,1.4c-0.4,0.6-1,1.2-1,1.7c0,0.3,0.1,0.6,0.4,0.6c0.8,0.1,2.2,0.2,2.6-0.1
				c0.4-0.3,0.6-0.7,0.8-1c0.2-0.4,0.2-1,0.2-1.3C23,100.3,22.9,99.3,22.9,99.3z"/>
			<path class="st5" d="M21.1,98.9c-0.3,0.2-0.4,1.7-0.4,1.7c0,0.1,0.5,0.1,0.6,0.1c0.7-0.1,1-1.3,0.8-1.7
				C22.1,98.8,21.4,98.7,21.1,98.9z"/>
			<path class="st6" d="M23.1,100.6c0-0.3-0.1-0.8-0.1-1.1c0,0.2,0,0.3,0,0.4c0,0.3,0,0.9-0.2,1.3c-0.2,0.3-0.4,0.8-0.8,1
				c-0.4,0.3-1.8,0.2-2.6,0.1c-0.1,0-0.2-0.1-0.3-0.2c0,0.1-0.1,0.2,0,0.3c0,0.3,0.1,0.6,0.4,0.6c0.8,0.1,2.2,0.2,2.6-0.1
				c0.4-0.3,0.6-0.7,0.8-1C23.1,101.5,23.1,100.9,23.1,100.6z"/>
			<path class="st9" d="M18.7,31.9c1-0.2,3.6,0,3.6,2c0,0.7-1.2,1.4-1.2,1.4s0.6-1.1-0.4-1.3c-1-0.2-1.6,1-2.5,1
				c-0.9,0-1.4,0.1-1.5-0.4C16.4,33.9,17.6,32.1,18.7,31.9z"/>
			<path class="st9" d="M21.5,33.8c0,0,0.6,0.6,0.6,1.1c0,0.5-0.2,0.7-0.2,0.7s0.4,0,0.6-0.4c0.4-0.5,0.2-1.4,0.2-1.4L21.5,33.8z"/>
		</g>
		<path class="st10" d="M18.2,63.2c0,0,0,3.8,0,6.3S19,80.3,19,80.3h5.1L25.3,70l-0.7-7.1L18.2,63.2z"/>
		<path class="st11" d="M29.6,61.4l-5.1,1.5l0.7,7.1l1.8,9.9l5.5-0.2c0,0-0.1-7.1-0.6-9.9C31.2,65.2,29.6,61.4,29.6,61.4z"/>
		<path class="st5" d="M18.2,63.2c0,0-0.9-4.5-1.9-6.8c-0.9-2.3-2.3-6.4-3.3-7s1.5-4.8,1.5-4.8l2.4-1c0,0,2.3,1.4,4.1,1.2
			c1.8-0.2,3.1-2.3,3.1-2.3s2.8,1,2.8,0.8c0-0.2,2.4,3.5,2.2,4.2c-0.2,0.7-0.8,4.5-0.6,6.3c0.2,1.8,1.1,7.5,1.1,7.5
			s-1.6,1.1-5.1,1.5C21,63.4,18.2,63.2,18.2,63.2z"/>
		<path class="st12" d="M22.1,56.4c0.4-1.6,6.3-3.4,5.7-4.1c-0.6-0.7-5.2,1-8,0.9c-2.8-0.2-4.4-2.3-4.4-2.3l0.4,3.9
			c0.2,0.6,0.4,1.2,0.6,1.7c0.9,2.3,1.9,6.8,1.9,6.8s2.8,0.1,6.3-0.3C24.5,62.9,21.7,58,22.1,56.4z"/>
		<path class="st13" d="M9.6,38.9c0,0,4.5,4.9,4.8,4.9c0.2,0,0.6-0.3,0.7,0.1c0.1,0.4,2.2-0.6,2.2-0.6s1.2,5,1,8.8
			c-0.2,3.8-2.6,11.1-2.8,13.8c-0.3,2.6-0.3,3.1-0.3,3.1l-2-0.5c0,0-0.1-18-0.6-18.8c-0.6-0.8-5.6-7.1-5.6-7.1s1.4-0.6,2.2-1.5
			C9.9,40.3,9.6,38.9,9.6,38.9z"/>
		<path class="st13" d="M24.1,42.5c0,0,2,2.9,2.4,9.8c0.4,6.9,1.3,15.6,1.3,15.6l3.8-1c0,0-2.1-17.9-2-18.8c0.1-0.9,2.9-4.8,3.7-5.7
			c0.8-0.9,1-1.9,1-1.9s-1.5-2-2.7-2.4c-1.2-0.4-1.5-0.2-1.5-0.2s-2.7,4-2.9,3.9c-0.1-0.2-0.6-0.2-0.6,0c0,0.2-0.3,1-0.4,0.6
			c-0.1-0.4-0.7,0-0.9,0.1C25.4,42.5,24.1,42.5,24.1,42.5z"/>
		<path class="st14" d="M24.1,81.4H19c-0.2,0-0.3-0.1-0.3-0.3v-1.4c0-0.2,0.1-0.3,0.3-0.3h5.1c0.2,0,0.3,0.1,0.3,0.3v1.4
			C24.4,81.2,24.3,81.4,24.1,81.4z"/>
		<path class="st14" d="M32.5,81.4H27c-0.2,0-0.3-0.1-0.3-0.3v-1.3c0-0.2,0.1-0.3,0.3-0.3h5.5c0.2,0,0.3,0.1,0.3,0.3V81
			C32.8,81.2,32.6,81.4,32.5,81.4z"/>
	</g>
	<g>
		<path class="st15" d="M64.2,71.8c0,0,0.8,0.9,1.5,1.4c0.7,0.6,6.9-0.9,8-0.2c1.1,0.7,2.5-1.1,3.7-0.9c1.2,0.2,2.4,0.9,3.3,0.7
			c0.9-0.2,1.5-0.8,1.4-1.2s-9.1-6.1-11.7-5.9C67.8,66,64.2,71.8,64.2,71.8z"/>
		<g>
			<path class="st9" d="M80,33c-0.2,0-0.9,1.5,0.6,3.4c1.4,1.9,3.6,3.2,3.8,4.5c0.2,1.3,0.1,2.4,1.1,3c0.7,0.5,1.4,0.5,1.4,0.5
				s-1.2-0.8-1.4-1.3c-0.2-0.6,0-1.3,0-2.3c0-0.4-0.3-1-0.3-1s0.8,0.5,1.1,1.1c0.3,0.6,0.6,1.2,1,1.4c0.4,0.2,1.2,0,1.2,0
				s-0.8-0.1-0.9-0.6c-0.2-0.5-0.4-1.8-1.2-2.4c-0.9-0.6,0.1-0.9,0.9-0.4c0.3,0.2,0.5,1.1,0.5,1.1s0.5-1.1-0.5-1.7
				c-3-1.7-3.7-4.8-3.7-4.8L80,33z"/>
			<path class="st9" d="M81.1,34.7c-0.2-0.1-1.2,1.2-0.3,3.4c0.9,2.2,2.6,4,2.5,5.3c-0.2,1.3-0.5,2.3,0.3,3.2
				c0.5,0.6,1.2,0.9,1.2,0.9s-1-1.1-1-1.6c0-0.6,0.3-1.3,0.6-2.2c0.1-0.4,0-1.1,0-1.1s0.7,0.7,0.8,1.3c0.1,0.7,0.3,1.3,0.6,1.6
				c0.4,0.3,1.2,0.3,1.2,0.3s-0.7-0.3-0.7-0.9c0-0.5,0.1-1.8-0.6-2.6c-0.7-0.8,0.3-0.9,1-0.2c0.3,0.3,0.2,1.2,0.2,1.2
				s0.8-0.9-0.1-1.8c-2.4-2.5-2.4-5.6-2.4-5.6L81.1,34.7z"/>
			<path class="st9" d="M80,33.6c0,0,0.5-2.1,2.1-1.6s2.4,2.5,2.1,3.4c-0.3,0.9-0.2,4.1,0,4.1c0.2,0,0.2,0.5-0.3,0.7
				c-0.5,0.1-1.9,0.1-2.1-1.5c-0.1-1.6-0.9-2.5-0.9-2.5L80,33.6z"/>
			<path class="st4" d="M73.2,44.5c0.8-0.7,0.3-2.1-0.9-3.3c-1.3-1.2-9-5.7-9.5-5.6c-0.5,0.1-1.7,1-1.3,1.7c0.3,0.7,6.3,5.5,7.5,6.3
				C70.1,44.3,72.2,45.4,73.2,44.5z"/>
			<path class="st4" d="M63.6,38.1c-1,0.3-3.3-1.3-4.5-2.7c-1.2-1.5-4.4-6.2-4.4-6.2l1.2-1.1c0,0,7.2,6.8,7.6,7.2
				C64,35.8,65.4,37.6,63.6,38.1z"/>
			<path class="st4" d="M73,95.5c0.1,0.7,0.5,1.2,0.7,1.5c0.3,0.4,0.3,1.2,0.1,1.4c-0.5,0.6-1.2,0.5-1.9,1c-0.7,0.5-1.6,2.2-2.2,2.4
				c-0.6,0.2-2,0.3-2.1,0c-0.1-0.3,1.2-1.5,1.2-1.5c1.9-2.9,2-4.2,2-4.2S73,95.3,73,95.5z"/>
			<path class="st16" d="M68.9,100.4c0,0-0.4,0.4-0.3,0.5c0.1,0.1,0.7,0,0.9-0.1c1.4-0.9,3.2-2.7,3.5-3.2c0.4-0.6,0.4-1.1,0.4-1.1
				c0.1,0,0.7,0.8,0.7,1.4c0,0.1-0.1,0.5-0.2,0.6c-0.3,0.3-1.4,1-1.7,1.2c-0.7,0.5-1.5,2.2-2.1,2.4c-0.6,0.2-2.6,0.4-2.7,0.1
				C67.3,101.9,68.3,100.9,68.9,100.4z"/>
			<path class="st16" d="M74,97.7c0,0-0.3,1.2-0.4,1.6c-0.1,0.6-0.1,1.9-0.1,1.9l-0.3,0c0,0,0.1-2.4-1.1-1.6
				C71.8,99.9,74,97.7,74,97.7z"/>
			<path class="st4" d="M73.3,59.7c1,0.3,1.2,6.1,0.4,9.9c-0.7,3.6-1.2,8.6-1.5,8.9c-0.3,0.3-3,0.6-3.4,0.3c-0.4-0.3-2-15.2-2-16
				C66.6,62.1,69,58.2,73.3,59.7z"/>
			<path class="st4" d="M72.3,78.3c1.7,1.5,2.2,5.7,2.2,7.3c0,1.6-1.6,10.1-1.5,10.7c0.1,0.6-2.1,0.2-2.1-0.1
				c0-3.2-1.2-11.8-1.4-12.6c-0.2-0.8-0.8-4.7-0.8-5.1C68.6,76.6,71.3,77.4,72.3,78.3z"/>
			<path class="st8" d="M78.6,35.2c0,0-1.3,4.5-1,4.8c0.7,0.9,3.2,2.2,3.5,3.6c0.4,1.7-5.2,4.3-5.7,9.3c-0.2,2.4,2,5.7,2.5,8
				c0.5,2.3-6.6,5.4-6.9,5.5c-0.3,0-3.5-2-4-2.7c-0.5-0.7,0.6-7.6,0.5-9.2c-0.1-1.5-0.1-5.5-0.3-5.8s-0.9-1.4-0.7-2.3
				c0.3-1.4,2.8-2.9,3-3.4s1.9-2,2.2-2.2c0,0,1.6-0.5,1.7-0.7c0.1-0.3,0.9-4.2,0.9-4.2L78.6,35.2z"/>
			<path class="st4" d="M73.9,37.5l-0.1,0.4l2.4,1.9c0.4,0.3,0.9,0.5,1.4,0.4l0.1,0c0,0,0-1,0.2-2c0.1-1.1,0.5-2,0.5-2L73.9,37.5z"
				/>
			<path class="st8" d="M89.5,42.4c1,0.2,3-1.5,4-3c1-1.5,3.5-6.3,3.5-6.3l-1.4-0.9c0,0-6.1,7.2-6.4,7.6
				C88.9,40.2,87.8,42.1,89.5,42.4z"/>
			<path class="st8" d="M76.4,44c-0.4-1,0.6-2,2.2-2.6c1.6-0.5,10.6-1.4,11-1.1c0.5,0.3,1.1,1.6,0.5,2.1c-0.6,0.5-8,2.4-9.4,2.6
				C79.3,45.2,77,45.2,76.4,44z"/>
			<path class="st8" d="M96.5,34c0,0,0.4-1,1.5-1.2s1.5-1.2,1.6-1.3c0.1-0.2,0.7-1.2,0.7-1.3c0-0.3-0.4-0.1-0.4-0.2
				c0-0.1,0-0.5-0.3-0.4c-0.3,0.1-0.3,0-0.4-0.1c-0.1-0.1-0.4-0.1-0.5,0.1c-0.1,0.1-0.2,0-0.4,0c-0.1,0-0.3,0.2-0.4,0.4
				c-0.2,0.4-0.5,0.7-1.2,0.9c-0.6,0.2-1.6,0.7-1.5,1.8C95.4,33.8,96.5,34,96.5,34z"/>
			<path class="st4" d="M54.9,29.4c0,0-0.4-0.6-1.5-0.6c-1.1,0-1.8-0.7-1.9-0.8c-0.1-0.1-1-1-1-1.1c-0.1-0.3,0.3-0.2,0.3-0.3
				c0-0.1-0.1-0.4,0.2-0.5c0.3,0,0.3-0.1,0.3-0.2c0-0.1,0.3-0.1,0.5-0.1c0.1,0.1,0.2-0.1,0.4-0.1c0.1,0,0.3,0.1,0.5,0.3
				c0.3,0.3,0.7,0.5,1.4,0.6c0.7,0.1,1.8,0.2,2,1.3C56.2,29,54.9,29.4,54.9,29.4z"/>
			<path class="st8" d="M79.9,37c-2,1.9-5.2,1.7-6.2,0.7c-0.9-1-0.6-3.9,1.2-6c1.8-2.1,4.2-2.1,5.6-0.6C82,32.7,81.8,35.2,79.9,37z"
				/>
			<path class="st9" d="M77.8,31.5c-0.2,0.8,0.1,1.6,1.3,2.7c0.9,0.8,0.5,2.5,0.1,3.1c-0.2,0.2-1.1,1-1.1,1s3.5-0.4,3.6-4.3
				c0.1-3.8-3.2-4.1-3.4-3.9C78.2,30.2,77.9,31.1,77.8,31.5z"/>
			<path class="st9" d="M78.7,31.4c0,0-0.7,0.9-1.6,0.5c-0.9-0.4-2.1-0.3-2.1-0.3s1.5-2.2,3.3-1.6C80.2,30.7,78.7,31.4,78.7,31.4z"
				/>
			<path class="st8" d="M77.8,60.6c1.7,3.5-1.4,7.1-3.6,10.3c-3,4.3-5.3,8.3-5.7,8.4c-0.4,0.1-3.1-1.2-3.3-1.7
				c-0.3-0.4,4.9-12.7,5.2-13.4C70.6,63.6,75.5,55.8,77.8,60.6z"/>
			<path class="st8" d="M81.7,85.4c0.7,0.4,1.2,0.3,1.6,0.4c0.5,0,1.1,0.5,1.2,0.8c0.2,0.8-0.4,1.3-0.3,2.1c0,0.8,0.8,2.6,0.6,3.2
				c-0.2,0.6-1,1.7-1.2,1.7c-0.3-0.1-0.4-1.9-0.4-1.9C82,88.4,81,87.6,81,87.6S81.6,85.4,81.7,85.4z"/>
			<path class="st16" d="M83.2,91.7c0,0,0.1,0.5,0.2,0.5c0.2,0,0.5-0.6,0.5-0.7c0.1-1.6-0.2-4.2-0.5-4.8c-0.2-0.6-0.7-1-0.7-1
				c0.1-0.1,1-0.1,1.5,0.3c0.1,0.1,0.3,0.4,0.3,0.5c0.1,0.4,0,1.7,0,2.1c0,0.8,0.9,2.5,0.7,3.1c-0.2,0.6-1.3,2.3-1.6,2.2
				C83.4,93.9,83.2,92.5,83.2,91.7z"/>
			<path class="st16" d="M84.1,86c0,0,0.8,1,1,1.3c0.4,0.5,1.4,1.2,1.4,1.2l-0.2,0.2c0,0-1.8-1.5-1.9-0.1C84.5,89.1,84.1,86,84.1,86
				z"/>
			<path class="st8" d="M67.7,75.6c2.2-0.4,5.9,1.7,7.1,2.7c1.3,1,7.1,7.4,7.6,7.6c0.5,0.3-1.1,1.8-1.4,1.6
				c-2.6-2-10.1-6.2-10.8-6.5s-4.2-2.2-4.5-2.4C64.1,77.5,66.4,75.9,67.7,75.6z"/>
		</g>
		<path class="st3" d="M67.7,38.2c0,0-0.4,2.1-0.7,2.4c-0.3,0.3-1,1.1-1,1.1l2.2,2.3c0,0,2.7-2,3.1-2.4c0.4-0.5,0.7-1,0.7-1
			L67.7,38.2z"/>
		<g>
			<path class="st17" d="M71.4,44.7c0,0,1.8,0.4,3-0.3c1.5-0.9,2.6-2.4,3.1-2.7c0.9-0.5,1.5-0.6,1.5-0.6l0.2,0.2
				c0,0-0.5,0.1-1.6,0.8s-1.5,3.6-0.6,4.7c0.3,0.4-2.7,0.4-4.3-0.3C71.3,45.9,71.4,44.7,71.4,44.7z"/>
			<path class="st17" d="M79.7,64.6c-0.5-2.2-3.7-10.3-3.6-12.5c0.1-2.2,2.3-5,2.3-5s-3.3-0.8-5.8-1.5c0,0-1.9-0.8-1.6-2.4
				c0.1-0.7,1.6-2.7,1.6-2.7l-0.9,0.3l-2.8,2.8l0,0.3c0-0.2,0-0.3,0-0.3s-2.2,1.5-2.4,2.8c-0.2,1.3,0.2,3.3,0.6,5.9
				c0.4,2.6-2.9,19.6-2.9,19.6s0.7,0.2,1.1,0.2c0.4,0,0.8,1.1,1.1,1c0.4-0.1,0.9-3.8,2.4-4.1c1.5-0.3,4,0.1,5.5,2
				c0.7,1,1.8,2.6,2.4,2.6c0.6,0.1,2.2-0.1,2.5-0.9c0.3-0.8,2.8-1.1,2.8-1.1S80.2,66.8,79.7,64.6z"/>
			<path class="st15" d="M71.1,56.8c0.5-1.6,4.5-5.3,4-5.7c-0.5-0.5-1.8-0.1-3.3-0.4c-1.5-0.3-4.7-1.9-5.3-2.5
				c0.1,1.1,0.3,2.5,0.6,4c0.4,2.6-2.9,19.6-2.9,19.6s0.7,0.2,1.1,0.2c0.4,0,0.8,1.1,1.1,1c0.3,0,1.1-3.5,2-3.9
				C69,66.8,70.7,58.2,71.1,56.8z"/>
		</g>
		<path class="st13" d="M78.5,40.9c0,0,2.3-0.4,3.6-0.3c1.4,0.1,2.5-0.1,2.5-0.1s0.4,1.9,0.4,3s-0.2,1.7-0.2,1.7s-4.3,0.3-4.4,0.7
			c-0.1,0.4-1.3,5,0.6,10.3c1.9,5.4,1.8,8.4,1.8,8.4s-4.3,1.2-5.5,1.2c-1.2,0-2.8-0.4-2.8-0.4s0.7-3.7,0.3-7.7
			c-0.3-3.4-1.8-7.1-1.5-8.3C74.1,46.7,77.7,40.8,78.5,40.9z"/>
	</g>
	<g>
		<path class="st6" d="M32.9,45.1c0,0-0.5-0.4-0.3-1.9c0.3-1.6,1.2-4.1,1.2-4.1l3.2,4.3L32.9,45.1z"/>
		<g>
			<path class="st8" d="M53.5,50.7c0.6-3.4,2.5-9.4,0.8-10.1c-2.3-1-8.4-0.9-8.4-0.9l0,0.1c0,0-6,1.4-7.9,2.9
				c-1.5,1.2,2.2,6.6,3.7,9.7c0.4,0.7,1.5,4.2,1.8,7.3c0.1,0.8,0.2,4.3,0.6,5.8c0.1,0.4,5,2.1,6.8,2.2c1.4,0,5.9-3.6,5.9-4.1
				c-0.1-1.5-1.5-4.9-1.6-5.6C54.5,54.9,53.3,51.5,53.5,50.7z"/>
			<path class="st8" d="M41.8,45.1c0.6-1.1-0.3-2.6-2.4-3.6c-2.1-1-3.6-1.5-4.2-1.7c-0.6-0.3-3.7-2-4.6-2.3c-0.9-0.3-2-0.1-2.4,0.8
				c-0.4,0.7,0.5,2.3,1.9,3.3C31.4,42.5,40.3,48.1,41.8,45.1z"/>
			<path class="st8" d="M48.3,38.4c-0.2-0.6-1-3.6-1-3.6l-2,0.3l0,0.1l-2,0.3c0,0,0.1,3.1,0,3.7S41.7,41,41.7,41l9.2-1.1
				C50.9,40,48.5,39,48.3,38.4z"/>
			<path class="st4" d="M48,37.6c-0.3-0.9-0.6-2.2-0.7-2.6l-0.1-0.1l-1.9,0.3l0,0.1l-2,0.3c0,0,0.1,3.1,0,3.7S41.7,41,41.7,41l0.2,0
				c1.9-0.8,3.7-1.6,3.9-1.7C46.3,39.1,48,37.6,48,37.6L48,37.6z"/>
			<path class="st8" d="M47.4,60.7c-2.5-0.1-3.5,1.7-3.5,7c0,5.3,1,12.4,1.3,13.2s3.4,0.5,3.7,0c0.4-0.5,1.6-12.4,1.7-14.1
				C50.6,65.2,50.1,60.8,47.4,60.7z"/>
			<path class="st8" d="M46.8,79.7c-0.8,0-2.6,1-2.5,6c0.1,5,2.1,12.3,2.1,12.3l1.8,0c0,0,1-9.7,1-11.5
				C49.3,82.5,49.2,79.7,46.8,79.7z"/>
			<path class="st8" d="M53.3,61.2c2.5-0.3,3.7,1.3,4.2,6.6c0.6,5.3,0.4,11.7,0.1,12.6c-0.2,0.9-3.2,0.8-3.6,0.4
				c-0.4-0.4-3.1-11.4-3.3-13.1C50.6,66,50.6,61.6,53.3,61.2z"/>
			<path class="st8" d="M51.7,44.1c1,0.8,2.6,0.2,4-1.6c1.4-1.8,2.1-3.3,2.5-3.8c0.4-0.5,2.7-3.3,3.2-4.1c0.5-0.8,0.5-1.9-0.3-2.5
				c-0.7-0.5-2.3,0.1-3.6,1.2C56.2,34.5,49.1,42.1,51.7,44.1z"/>
			<path class="st8" d="M56.1,79.4c-0.7-0.2-2.9,0.1-4,5c-1.1,4.9-0.9,12.3-0.9,12.3l1.9,0.1c0,0,3.1-8.8,3.5-10.5
				C57.7,82.4,58.5,80,56.1,79.4z"/>
			<path class="st8" d="M30,39.9c-1,0.1-1.9-0.3-2.5-3c-0.6-2.8-1-9.4-1-9.4l1.6-0.2c0,0,2.4,5.2,2.8,6.7
				C31.3,35.5,32.6,39.6,30,39.9z"/>
			<path class="st8" d="M48.4,30.7c1.4,2.2,1.1,5.5-0.3,6.4c-1.4,0.9-4.5-0.3-5.9-2.5s-1.1-4.9,0.6-6C44.5,27.6,47,28.5,48.4,30.7z"
				/>
			<path class="st9" d="M43.2,35.9c-0.3-0.2-2.2-1.7-2.4-2.3c-0.2-0.5-0.7-1.6-0.3-2.3c0.1-0.2,0.5-0.3,0.3-0.8
				c-0.4-0.7,0.9-1.5,1.1-1.6c0.2-0.2,0.8-0.6,1.4-0.9c0.6-0.2,1.7-0.6,3.7,0.5c0.4,0.2-1.2,0.1-1.3-0.1c-0.1-0.2-2.6,2.3-2.7,2.6
				c-0.1,0.1-0.1,0.6-0.2,1.2c0,0.2,0.5,1,0.5,1.2c0,0.2-0.7,0.5-0.7,0.8C42.4,35,43.2,35.9,43.2,35.9z"/>
			<g>
				<path class="st8" d="M27,23.7L27,23.7c0.2,0,0.3,0.2,0.3,0.3l0,1.5c0,0.2-0.2,0.3-0.3,0.3l0,0c-0.2,0-0.3-0.2-0.3-0.3l0-1.5
					C26.7,23.9,26.8,23.7,27,23.7z"/>
				<path class="st8" d="M27.7,23.6L27.7,23.6c0.2,0,0.3,0.2,0.3,0.3l0,1.5c0,0.2-0.2,0.3-0.3,0.3l0,0c-0.2,0-0.3-0.2-0.3-0.3l0-1.5
					C27.3,23.8,27.5,23.6,27.7,23.6z"/>
				<path class="st8" d="M28.3,23.6L28.3,23.6c0.2,0,0.3,0.2,0.3,0.3l0,1.5c0,0.2-0.2,0.3-0.3,0.3l0,0c-0.2,0-0.3-0.2-0.3-0.3l0-1.5
					C28,23.8,28.1,23.6,28.3,23.6z"/>
				<path class="st8" d="M28.9,23.7L28.9,23.7c0.2,0,0.3,0.2,0.3,0.3l0,1.5c0,0.2-0.2,0.3-0.3,0.3l0,0c-0.2,0-0.3-0.2-0.3-0.3l0-1.5
					C28.6,23.8,28.7,23.7,28.9,23.7z"/>
				<path class="st8" d="M28.5,28.8c0,0,1-2.2,1-2.7c0.1-0.5-0.3-2.3-0.3-2.3s-0.6,0.6-1,0.5c-0.4-0.1-1.5-0.3-1.5-0.3
					s-0.4,1.6-0.4,2.3c0,0.7,0.3,1.5,0.3,1.5L28.5,28.8z"/>
			</g>
			<path class="st8" d="M59.2,34.6c0.9,0.5,1.9,0.5,3.4-1.9c1.5-2.4,4.4-8.3,4.4-8.3l-1.4-0.8c0,0-4.2,4-5.1,5.2
				C59.7,30,56.9,33.3,59.2,34.6z"/>
			<g>
				<path class="st8" d="M66.7,20.4L66.7,20.4c-0.2,0-0.3,0.1-0.4,0.3l0,1.5c0,0.2,0.1,0.3,0.3,0.4h0c0.2,0,0.3-0.1,0.3-0.3l0-1.5
					C67,20.5,66.8,20.4,66.7,20.4z"/>
				<path class="st8" d="M66,20.3L66,20.3c-0.2,0-0.3,0.1-0.4,0.3l0,1.5c0,0.2,0.1,0.3,0.3,0.4l0,0c0.2,0,0.3-0.1,0.3-0.3l0-1.5
					C66.4,20.5,66.2,20.3,66,20.3z"/>
				<path class="st8" d="M65.4,20.3L65.4,20.3c-0.2,0-0.3,0.1-0.4,0.3l0,1.5c0,0.2,0.1,0.3,0.3,0.4h0c0.2,0,0.3-0.1,0.3-0.3l0-1.5
					C65.7,20.4,65.6,20.3,65.4,20.3z"/>
				<path class="st8" d="M64.8,20.3L64.8,20.3c-0.2,0-0.3,0.1-0.4,0.3l0,1.5c0,0.2,0.1,0.3,0.3,0.4h0c0.2,0,0.3-0.1,0.3-0.3l0-1.5
					C65.1,20.4,65,20.3,64.8,20.3z"/>
				<path class="st8" d="M65.1,25.5c0,0-0.9-2.2-1-2.7s0.3-2.3,0.3-2.3s0.6,0.6,1,0.5c0.4-0.1,1.5-0.3,1.5-0.3s0.3,1.6,0.3,2.3
					c0,1-0.4,1.7-0.4,1.7L65.1,25.5z"/>
			</g>
			<path class="st18" d="M51.3,96.8c0,0-0.4,1.9-0.1,2.8c0.1,0.2,5.6,0.9,6.4,0.6c0.8-0.3,1.5-0.6,1.5-0.6s-0.2-0.8-0.5-0.9
				c-0.4,0-3.7-1-4.1-1.5c-0.3-0.5-0.6-1.3-0.8-1C53.5,96.4,52.3,96.9,51.3,96.8z"/>
			<path class="st19" d="M57.6,100.1c0.5-0.2,0.9-0.3,1.1-0.5c-0.5,0.1-1.1,0.2-1.3,0.2c-0.6-0.1-2.8-0.8-4.3-1.3
				c-1.3-0.4-1.6-1.5-1.6-1.7c-0.1,0-0.2,0-0.3,0c0,0-0.4,1.9-0.1,2.8C51.3,99.8,56.8,100.4,57.6,100.1z"/>
			<path class="st7" d="M59.1,99.5c0,0-1.4,0.7-1.7,0.7c-0.2,0-3.4-0.8-5.2-0.9c-0.5-0.1-0.9-0.2-1.2-0.2c-0.1,0,0,0.5,0,0.5
				l0.1,0.4c0,0,5.9,0.6,6.1,0.5c0.2,0,1.9-0.7,1.9-0.7L59.1,99.5z"/>
			<path class="st7" d="M48.4,98.1L46,98c0,0-0.1,0.5-0.6,1.5c-0.4,0.6-1,1.3-1,1.8c0,0.3,0.2,0.7,0.5,0.7c0.8,0.1,2.3,0.2,2.7-0.1
				c0.4-0.3,0.6-0.8,0.9-1.1c0.2-0.4,0.1-1,0.1-1.3C48.5,99,48.4,98.1,48.4,98.1z"/>
			<path class="st18" d="M48.4,97.8L46,97.7c0,0-0.1,0.5-0.6,1.5c-0.4,0.6-1,1.3-1,1.8c0,0.3,0.1,0.6,0.4,0.6
				c0.8,0.1,2.3,0.2,2.7-0.1c0.4-0.3,0.6-0.7,0.8-1c0.2-0.4,0.2-1,0.2-1.3C48.5,98.8,48.4,97.8,48.4,97.8z"/>
			<path class="st18" d="M46.6,97.4c-0.3,0.2-0.4,1.7-0.4,1.8c0,0.1,0.5,0.1,0.7,0.1c0.7-0.1,1-1.4,0.8-1.7
				C47.5,97.3,46.8,97.2,46.6,97.4z"/>
			<path class="st19" d="M48.5,99.1c0-0.3-0.1-0.9-0.1-1.2c0,0.2,0,0.3,0,0.4c0,0.3,0.1,0.9-0.2,1.3c-0.2,0.3-0.5,0.8-0.8,1
				c-0.4,0.3-1.9,0.2-2.7,0.1c-0.1,0-0.2-0.1-0.3-0.2c0,0.1-0.1,0.2,0,0.3c0,0.3,0.1,0.6,0.4,0.6c0.8,0.1,2.3,0.2,2.7-0.1
				c0.4-0.3,0.6-0.7,0.8-1C48.6,100.1,48.6,99.4,48.5,99.1z"/>
			<path class="st9" d="M43.6,28.1c0.9-0.5,3.4-1.3,4.2,0.5c0.3,0.6-0.6,1.8-0.6,1.8s0.1-1.3-0.9-1.1c-1,0.2-1.2,1.6-2.1,1.9
				c-0.9,0.3-1.3,0.6-1.6,0.1C42.2,30.8,42.6,28.7,43.6,28.1z"/>
			<path class="st9" d="M46.6,29c0,0,0.8,0.3,1,0.8c0.2,0.5,0,0.8,0,0.8s0.4-0.2,0.5-0.6c0.1-1.6-1.2-1.7-1.2-1.7L46.6,29z"/>
		</g>
		<path class="st2" d="M42.8,40c0,0,1.9,1.4,3.8,1.1c1.9-0.3,2.7-1.8,2.7-1.8l3,0.5l3.2,3c0,0-1.6,6.4-1.6,8.4c0,2,1.8,8.7,1.8,8.7
			s-2.6,1.9-5.7,1.9c-3.1,0-6.6,0-6.6,0s-0.4-5.4-1.4-7.9c-0.9-2.6-3.8-8-3.8-8l1.6-4L42.8,40z"/>
		<path class="st20" d="M43.7,62.3h6.9l0.2,5.5c0,0-1.5,12.3-1.3,12.3c0.3,0.1,0.6,0.4,0.4,0.5c-0.3,0.1-0.5,0.4-0.3,0.6
			c0.2,0.2-0.1,0.9,0,1.2S49.2,96.4,49,97c-0.2,0.6-2.3,0.8-3.1,0.5c-0.8-0.3-0.8-0.8-0.8-0.8s-1.3-10.3-1.3-11.1
			c0-0.8,0.3-4.2,0.2-4.4c-0.1-0.2,0.3-0.6,0.3-0.9c0-0.3,0.1-0.6,0-0.8c-0.1-0.2-0.7-8.8-0.9-10.4C43.3,67.6,43.7,62.3,43.7,62.3z"
			/>
		<path class="st20" d="M50.6,62.3l5.4-1.5c0,0,1,2.5,1.6,5.3c0.5,2.8,0.8,14,0.8,14.2c0,0.2-0.2,1.6-0.4,2.8
			c-0.2,1.2-3.6,13.3-3.6,13.3s-0.9,0.9-2.2,0.4c-1.2-0.4-1.4-1.1-1.4-1.1s0.4-11.2,1.3-12.3c0.6-0.8,1-1.5,0.9-1.6
			c-0.1,0-0.3-0.4,0-0.6c0.3-0.1,0.3-0.6,0-0.7c-0.3,0-0.2-1.4-0.3-2.5c-0.2-1.1-1.9-11-1.9-11L50.6,62.3z"/>
		<path class="st11" d="M43.5,69.1c0.2,1.6,0.8,10.2,0.9,10.4c0.1,0.2,0,0.5,0,0.8c0,0.3-0.4,0.7-0.3,0.9c0.1,0.2-0.2,3.6-0.2,4.4
			c0,0.8,1.3,11.1,1.3,11.1s0,0.3,0.3,0.5C45.4,95.6,45,89,45,87.1c0-2.3,0.4-6.5,0.6-6.7c0.2-0.3-0.6-14.6-0.2-15.6
			c0.4-1.1,5.2-2.4,5.2-2.4h-6.9C43.7,62.3,43.3,67.6,43.5,69.1z"/>
		<path class="st11" d="M51.8,68.3c-0.8-0.8-1-0.7-1-0.6c0.4,2.2,1.6,9.4,1.8,10.4c0.2,1.1,0,2.5,0.3,2.5c0.3,0,0.2,0.5,0,0.7
			c-0.3,0.1-0.1,0.5,0,0.6c0.1,0-0.3,0.8-0.9,1.6c-0.9,1.1-1.3,12.3-1.3,12.3s0.2,0.7,1.4,1.1c0,0,0,0,0.1,0
			c0.2-1.9,0.5-5.8,0.6-7.4c0.2-2.1,2.1-7.2,2-8C54.8,80.7,52.8,69.3,51.8,68.3z"/>
		<path class="st21" d="M49.1,52.8c0.8-1.7,4.4-3.8,4-4.4c-0.4-0.7-7.3,1.5-8,1.3c-0.7-0.1-1.3-3.7-1.3-3.7l-2.3,6.5
			c0.2,0.4,0.4,0.9,0.5,1.2c0.9,2.6,1.4,7.9,1.4,7.9s3.5,0,6.6,0c0.3,0,0.6,0,0.9,0C50.6,61.2,48.3,54.4,49.1,52.8z"/>
		<path class="st5" d="M33.8,39c0,0,0.4,1.1,0.2,2.6c-0.2,1.5-1.1,3.4-1.1,3.4l5.7,2.8c0,0,1.5,6.5,0.9,9.6c-0.6,3-0.9,5.5-0.9,5.5
			s4,1.7,5.4,1.8s2.3-0.2,2.3-0.2s-2.3-19-2.8-20c-0.5-1-1.9-3.8-1.9-3.8s-1.9,0.7-2,0.4c-0.1-0.3-0.8-0.6-0.8-0.4
			c0,0.2-0.7,0-0.7-0.2C38.1,40.2,33.8,39,33.8,39z"/>
		<path class="st5" d="M50.4,39.4c0,0,1.4,0.1,1.3-0.2c-0.1-0.3,0.2-0.4,0.4-0.4s0.2-0.6,0.4-0.6c0.2,0,2.7-3.1,2.7-3.1
			s3.4,1.4,3.9,2.1c0.5,0.7,1,1.8,1,1.8l-3.7,4.8c0,0-0.6,5.5-0.8,9.7c-0.2,4.2,0.7,8.1,0.7,8.1s-2.1,1.8-2.6,1.8
			c-0.5,0-1.1-0.3-1.1-0.3S52.5,49,52.3,46C52.2,43.1,50.4,39.4,50.4,39.4z"/>
		<path class="st12" d="M39.5,57.5c-0.6,3-0.9,5.5-0.9,5.5s1.4,0.6,2.9,1.1c0.1-2,0.2-5.8,0.2-6.5c-0.1-0.9-1.6-9.9-2.1-10.6
			c-0.5-0.7-6.7-1.9-6.7-1.9l5.7,2.8C38.6,47.9,40.1,54.4,39.5,57.5z"/>
		<path class="st12" d="M54,40.6c-0.5,0.2,1.8,3.1,1.7,3.8c-0.1,0.8-1,8.6-0.8,10.5c0.1,1.3,0.3,5.1,0.4,7.6
			c0.6-0.4,1.1-0.9,1.1-0.9s-0.9-4-0.7-8.1c0.2-4.2,0.8-9.7,0.8-9.7l3.7-4.8c0,0,0-0.1-0.1-0.1c-1.2,1.1-3,2.8-3.4,2.7
			C56.2,41.7,54.5,40.5,54,40.6z"/>
	</g>
	<g>
		
			<rect x="38.7" y="11.6" transform="matrix(0.7768 0.6298 -0.6298 0.7768 16.6296 -22.9084)" class="st17" width="3.8" height="0.9"/>
		
			<rect x="79.5" y="18.9" transform="matrix(0.7768 0.6298 -0.6298 0.7768 30.3458 -46.9625)" class="st2" width="3.8" height="0.9"/>
		<rect x="10.3" y="18" transform="matrix(0.7768 0.6298 -0.6298 0.7768 14.3498 -3.5651)" class="st2" width="3.8" height="0.9"/>
		
			<rect x="86.7" y="9.3" transform="matrix(0.7768 0.6298 -0.6298 0.7768 25.8973 -53.6476)" class="st22" width="3.8" height="0.9"/>
		<rect x="34.5" y="4" transform="matrix(0.8768 0.4809 -0.4809 0.8768 6.6475 -16.9564)" class="st22" width="3.8" height="0.9"/>
		<rect x="62" y="6.4" transform="matrix(0.7768 0.6298 -0.6298 0.7768 18.5333 -38.6957)" class="st2" width="3.8" height="0.9"/>
		
			<rect x="21.8" y="24.5" transform="matrix(-0.795 0.6066 -0.6066 -0.795 57.7312 30.3198)" class="st17" width="3.8" height="0.9"/>
		<rect x="73.7" y="27" transform="matrix(-0.795 0.6066 -0.6066 -0.795 152.2859 3.3587)" class="st23" width="3.8" height="0.9"/>
		
			<rect x="43.8" y="21.2" transform="matrix(0.8495 -0.5276 0.5276 0.8495 -4.5618 27.3798)" class="st23" width="3.8" height="0.9"/>
		<rect x="45.8" y="10.6" transform="matrix(0.8495 -0.5275 0.5275 0.8495 1.1946 26.3643)" class="st2" width="2" height="0.9"/>
		
			<rect x="55.4" y="13.1" transform="matrix(0.8472 0.5313 -0.5313 0.8472 15.8211 -27.9252)" class="st17" width="2" height="0.9"/>
		<rect x="57.3" y="0.3" transform="matrix(0.9587 -0.2845 0.2845 0.9587 2.2078 16.6291)" class="st17" width="2" height="0.9"/>
		<rect x="36.7" y="16.4" transform="matrix(0.9546 -0.2979 0.2979 0.9546 -3.3133 12.0004)" class="st14" width="2" height="0.9"/>
		<rect x="24.8" y="9.6" transform="matrix(0.9546 -0.2979 0.2979 0.9546 -1.7632 8.5512)" class="st23" width="4.7" height="0.9"/>
		<rect x="85.3" y="26.4" transform="matrix(0.8495 -0.5276 0.5276 0.8495 -1.1713 49.5875)" class="st14" width="2" height="0.9"/>
		<rect x="29.9" y="16.4" transform="matrix(0.8393 0.5436 -0.5436 0.8393 14.14 -14.1021)" class="st2" width="2" height="0.9"/>
		<rect x="69.5" y="4.8" transform="matrix(0.8495 -0.5276 0.5276 0.8495 8.2415 39.4022)" class="st23" width="7.3" height="0.9"/>
		
			<rect x="92.5" y="19" transform="matrix(0.9384 0.3454 -0.3454 0.9384 12.6312 -32.0176)" class="st17" width="7.3" height="0.9"/>
		
			<rect x="9.4" y="26.8" transform="matrix(0.9384 0.3454 -0.3454 0.9384 10.2203 -2.8363)" class="st17" width="7.3" height="0.9"/>
		<path class="st17" d="M81.3,12.8c0,0.4-0.6,0.8-1.3,0.8c-0.7,0-1.3-0.3-1.3-0.8c0-0.4,0.6-0.8,1.3-0.8
			C80.7,12,81.3,12.3,81.3,12.8z"/>
		<path class="st14" d="M52.4,6c0,0.4-0.3,0.8-0.8,0.8S50.9,6.5,50.9,6s0.3-0.8,0.8-0.8S52.4,5.6,52.4,6z"/>
		<path class="st22" d="M56.5,18.9c0,0.4-0.3,0.6-0.6,0.6c-0.4,0-0.6-0.3-0.6-0.6c0-0.4,0.3-0.6,0.6-0.6
			C56.2,18.3,56.5,18.6,56.5,18.9z"/>
		<path class="st22" d="M21.7,18.3c0,0.3-0.2,0.5-0.5,0.5c-0.3,0-0.5-0.2-0.5-0.5c0-0.3,0.2-0.5,0.5-0.5
			C21.5,17.8,21.7,18,21.7,18.3z"/>
		<path class="st23" d="M7.2,23.4c0,0.4-0.3,0.7-0.7,0.7c-0.4,0-0.7-0.3-0.7-0.7c0-0.4,0.3-0.7,0.7-0.7C6.9,22.8,7.2,23.1,7.2,23.4z
			"/>
		<circle class="st14" cx="13.1" cy="7.7" r="0.9"/>
	</g>
</g>
</svg>
