<?xml version="1.0" encoding="utf-8"?>
<!-- Generator: Adobe Illustrator 22.0.1, SVG Export Plug-In . SVG Version: 6.00 Build 0)  -->
<svg version="1.1" id="Background" xmlns="http://www.w3.org/2000/svg" xmlns:xlink="http://www.w3.org/1999/xlink" x="0px" y="0px"
	 width="67.2px" height="95px" viewBox="0 0 67.2 95" style="enable-background:new 0 0 67.2 95;" xml:space="preserve">
<style type="text/css">
	.st0{fill:#ADADB2;}
	.st1{fill:#909097;}
	.st2{fill:#E5E8EA;}
	.st3{fill:#B9B9BD;}
	.st4{fill:#ABB6B6;}
	.st5{fill:#D60000;}
	.st6{fill:#B7A994;}
	.st7{fill:#FFBD95;}
	.st8{fill:#FFA47C;}
	.st9{fill:#8D3B26;}
	.st10{fill:#191919;}
	.st11{fill:#080808;}
	.st12{fill:#22272C;}
	.st13{fill:#0E3854;}
	.st14{fill:#FF8626;}
	.st15{fill:#00233F;}
	.st16{fill:#FF6E26;}
	.st17{fill:#CEE0FF;}
	.st18{fill:#B8D1FF;}
</style>
<g>
	<g>
		<g>
			<rect x="36.2" y="46.8" class="st0" width="1.5" height="37.8"/>
			<rect x="62.8" y="46.8" class="st0" width="1.5" height="37.8"/>
			<rect x="56.8" y="46.8" class="st1" width="1.5" height="33.2"/>
			<rect x="41.4" y="46.8" class="st1" width="1.5" height="33.2"/>
			<path class="st0" d="M65.9,50.4H34.7c-0.7,0-1.3-0.6-1.3-1.3V6.2c0-0.7,0.6-1.3,1.3-1.3h31.2c0.7,0,1.3,0.6,1.3,1.3v42.9
				C67.2,49.8,66.6,50.4,65.9,50.4z"/>
			<path class="st2" d="M65.5,49.8H35.1c-0.7,0-1.3-0.6-1.3-1.3V6.7c0-0.7,0.6-1.3,1.3-1.3h30.5c0.7,0,1.3,0.6,1.3,1.3v41.9
				C66.8,49.2,66.2,49.8,65.5,49.8z"/>
			<polygon class="st1" points="36.2,50.4 36.2,53.1 37.7,52.6 37.6,50.4 			"/>
			<polygon class="st1" points="62.8,50.4 62.8,53.2 64.3,52.6 64.3,50.4 			"/>
			<polygon class="st3" points="41.4,50.4 41.4,56.1 42.9,54.9 42.9,50.4 			"/>
			<polygon class="st3" points="56.8,50.4 56.8,56.1 58.3,54.9 58.3,50.4 			"/>
		</g>
		<g>
			<g>
				<path class="st4" d="M64.9,10.8H36.4c-0.1,0-0.1-0.1-0.1-0.1c0-0.1,0.1-0.1,0.1-0.1h28.6c0.1,0,0.1,0.1,0.1,0.1
					C65.1,10.7,65,10.8,64.9,10.8z"/>
				<path class="st4" d="M64.9,13.8H36.4c-0.1,0-0.1-0.1-0.1-0.1c0-0.1,0.1-0.1,0.1-0.1h28.6c0.1,0,0.1,0.1,0.1,0.1
					C65.1,13.7,65,13.8,64.9,13.8z"/>
				<path class="st4" d="M64.9,16.7H36.4c-0.1,0-0.1-0.1-0.1-0.1c0-0.1,0.1-0.1,0.1-0.1h28.6c0.1,0,0.1,0.1,0.1,0.1
					C65.1,16.7,65,16.7,64.9,16.7z"/>
				<path class="st4" d="M64.9,19.7H36.4c-0.1,0-0.1-0.1-0.1-0.1c0-0.1,0.1-0.1,0.1-0.1h28.6c0.1,0,0.1,0.1,0.1,0.1
					C65.1,19.7,65,19.7,64.9,19.7z"/>
				<path class="st4" d="M64.9,22.7H36.4c-0.1,0-0.1-0.1-0.1-0.1c0-0.1,0.1-0.1,0.1-0.1h28.6c0.1,0,0.1,0.1,0.1,0.1
					C65.1,22.6,65,22.7,64.9,22.7z"/>
				<path class="st4" d="M64.9,25.6H36.4c-0.1,0-0.1-0.1-0.1-0.1c0-0.1,0.1-0.1,0.1-0.1h28.6c0.1,0,0.1,0.1,0.1,0.1
					C65.1,25.6,65,25.6,64.9,25.6z"/>
				<path class="st4" d="M64.9,28.6H36.4c-0.1,0-0.1-0.1-0.1-0.1c0-0.1,0.1-0.1,0.1-0.1h28.6c0.1,0,0.1,0.1,0.1,0.1
					C65.1,28.6,65,28.6,64.9,28.6z"/>
				<path class="st4" d="M64.9,31.6H36.4c-0.1,0-0.1-0.1-0.1-0.1c0-0.1,0.1-0.1,0.1-0.1h28.6c0.1,0,0.1,0.1,0.1,0.1
					C65.1,31.5,65,31.6,64.9,31.6z"/>
				<path class="st4" d="M64.9,34.6H36.4c-0.1,0-0.1-0.1-0.1-0.1c0-0.1,0.1-0.1,0.1-0.1h28.6c0.1,0,0.1,0.1,0.1,0.1
					C65.1,34.5,65,34.6,64.9,34.6z"/>
				<path class="st4" d="M64.9,37.5H36.4c-0.1,0-0.1-0.1-0.1-0.1c0-0.1,0.1-0.1,0.1-0.1h28.6c0.1,0,0.1,0.1,0.1,0.1
					C65.1,37.5,65,37.5,64.9,37.5z"/>
				<path class="st4" d="M64.9,40.5H36.4c-0.1,0-0.1-0.1-0.1-0.1c0-0.1,0.1-0.1,0.1-0.1h28.6c0.1,0,0.1,0.1,0.1,0.1
					C65.1,40.5,65,40.5,64.9,40.5z"/>
				<path class="st4" d="M64.9,43.5H36.4c-0.1,0-0.1-0.1-0.1-0.1c0-0.1,0.1-0.1,0.1-0.1h28.6c0.1,0,0.1,0.1,0.1,0.1
					C65.1,43.4,65,43.5,64.9,43.5z"/>
			</g>
			<rect x="63.5" y="10.5" class="st4" width="1.9" height="33.1"/>
			<rect x="35.9" y="10.6" class="st4" width="1.9" height="32.9"/>
			<g>
				<path class="st5" d="M38.4,38.9c-0.1,0-0.1,0-0.2,0c-0.2-0.1-0.3-0.4-0.2-0.6l7.7-14.9l5,4.1l3.3-10.6l5.3,2.9l3.7-19.5
					C63.2,0,63.5-0.1,63.7,0c0.2,0.1,0.3,0.4,0.2,0.6L60,21.2l-5.5-3l-3.3,10.7L46,24.7l-7.2,14C38.7,38.8,38.6,38.9,38.4,38.9z"/>
				<path class="st5" d="M65.2,3.6L65.2,3.6c-0.2,0.1-0.5,0-0.6-0.2l-1.5-2.8c-0.1-0.2,0-0.5,0.2-0.6l0,0c0.2-0.1,0.5,0,0.6,0.2
					L65.4,3C65.5,3.2,65.4,3.5,65.2,3.6z"/>
				<path class="st5" d="M60.8,2.8L60.8,2.8c0.2,0.2,0.4,0.2,0.6,0l2.4-2.1c0.2-0.2,0.2-0.4,0-0.6l0,0c-0.2-0.2-0.4-0.2-0.6,0
					l-2.4,2.1C60.6,2.3,60.6,2.6,60.8,2.8z"/>
			</g>
		</g>
	</g>
	<g>
		<path class="st6" d="M7.1,33.4c0,0-0.6-0.4-0.3-2.1c0.3-1.7,1.3-4.5,1.3-4.5l3.4,4.7L7.1,33.4z"/>
		<g>
			<path class="st7" d="M29.4,39.5c0.6-3.7,2.8-10.1,0.9-10.9c-2.5-1-9.1-1-9.1-1l0,0.1c0,0-6.5,1.5-8.6,3.2
				c-1.6,1.3,2.3,7.2,4,10.5c0.4,0.8,1.6,4.5,2,7.9c0.1,0.8,0.3,4.7,0.6,6.2c0.1,0.5,5.4,2.3,7.3,2.4c1.5,0.1,6.4-4,6.3-4.4
				c-0.1-1.6-1.6-5.3-1.8-6.1C30.6,44.1,29.3,40.4,29.4,39.5z"/>
			<path class="st7" d="M16.7,33.5c0.6-1.2-0.3-2.9-2.6-4c-2.3-1.1-3.9-1.6-4.5-1.9c-0.6-0.3-4-2.1-5-2.5c-1-0.4-2.1-0.1-2.6,0.8
				c-0.4,0.8,0.6,2.5,2,3.6C5.5,30.6,15.1,36.7,16.7,33.5z"/>
			<path class="st7" d="M23.8,26.2c-0.2-0.6-1.1-3.9-1.1-3.9l-2.2,0.3l0,0.1L18.3,23c0,0,0.1,3.4,0,4.1c-0.1,0.7-1.7,2-1.7,2
				l9.9-1.2C26.6,27.9,24,26.8,23.8,26.2z"/>
			<path class="st8" d="M23.5,25.2c-0.3-1-0.7-2.4-0.8-2.9l-0.2-0.1l-2.1,0.3l0,0.1L18.3,23c0,0,0.1,3.4,0,4.1c-0.1,0.7-1.7,2-1.7,2
				l0.2,0c2-0.9,4-1.7,4.3-1.8C21.7,26.9,23.5,25.2,23.5,25.2L23.5,25.2z"/>
			<path class="st7" d="M22.9,50.3c-2.7-0.1-3.8,1.8-3.8,7.6c0,5.8,1,13.4,1.4,14.3c0.4,0.9,3.6,0.6,4,0c0.4-0.5,1.8-13.4,1.8-15.3
				C26.3,55.1,25.8,50.4,22.9,50.3z"/>
			<path class="st7" d="M22.2,70.9c-0.8,0-2.8,1.1-2.7,6.5c0.1,5.4,2.3,13.3,2.3,13.3l2,0c0,0,1.1-10.5,1.1-12.4
				C24.9,73.9,24.8,70.9,22.2,70.9z"/>
			<path class="st7" d="M29.2,50.9c2.7-0.3,4,1.4,4.6,7.2c0.6,5.8,0.4,12.7,0.2,13.6c-0.3,0.9-3.5,0.9-3.9,0.4
				c-0.4-0.5-3.3-12.4-3.5-14.2C26.3,56,26.3,51.3,29.2,50.9z"/>
			<path class="st7" d="M27.5,32.3c1.1,0.8,2.9,0.3,4.4-1.7c1.5-2,2.3-3.5,2.7-4.1c0.4-0.5,2.9-3.6,3.4-4.5c0.5-0.9,0.6-2.1-0.3-2.7
				c-0.7-0.5-2.5,0.1-3.9,1.3C32.4,21.9,24.6,30.1,27.5,32.3z"/>
			<path class="st7" d="M32.3,70.6c-0.8-0.2-3.1,0.1-4.3,5.4c-1.2,5.3-0.9,13.4-0.9,13.4l2.1,0.1c0,0,3.3-9.5,3.8-11.3
				C34,73.9,34.9,71.2,32.3,70.6z"/>
			<path class="st7" d="M4,27.8c-1.1,0.2-2.1-0.3-2.7-3.3c-0.6-3-1.1-10.1-1.1-10.1L2,14.1c0,0,2.6,5.7,3,7.3
				C5.4,23,6.8,27.4,4,27.8z"/>
			<path class="st7" d="M23.9,17.9c1.5,2.4,1.2,6-0.4,6.9c-1.5,0.9-4.9-0.3-6.4-2.7c-1.5-2.4-1.2-5.3,0.7-6.5
				C19.7,14.4,22.4,15.4,23.9,17.9z"/>
			<path class="st9" d="M18.3,23.4c-0.3-0.2-2.4-1.9-2.6-2.4c-0.2-0.6-0.7-1.7-0.3-2.5c0.1-0.2,0.6-0.4,0.3-0.9
				c-0.4-0.7,1-1.7,1.1-1.8c0.3-0.2,0.9-0.7,1.5-0.9c0.6-0.3,1.9-0.7,4,0.5c0.4,0.2-1.3,0.1-1.4-0.1c-0.2-0.2-2.8,2.4-3,2.8
				c-0.1,0.1-0.2,0.7-0.2,1.3c0,0.2,0.5,1.1,0.5,1.3c0,0.2-0.7,0.6-0.7,0.8C17.5,22.5,18.3,23.4,18.3,23.4z"/>
			<g>
				<path class="st7" d="M0.8,10.2L0.8,10.2c0.2,0,0.4,0.2,0.4,0.4l0,1.6c0,0.2-0.2,0.4-0.4,0.4l0,0c-0.2,0-0.4-0.2-0.4-0.4l0-1.6
					C0.4,10.4,0.6,10.2,0.8,10.2z"/>
				<path class="st7" d="M1.5,10.2L1.5,10.2c0.2,0,0.4,0.2,0.4,0.4l0,1.6c0,0.2-0.2,0.4-0.4,0.4l0,0c-0.2,0-0.4-0.2-0.4-0.4l0-1.6
					C1.1,10.3,1.3,10.2,1.5,10.2z"/>
				<path class="st7" d="M2.2,10.1L2.2,10.1c0.2,0,0.4,0.2,0.4,0.4l0,1.6c0,0.2-0.2,0.4-0.4,0.4h0c-0.2,0-0.4-0.2-0.4-0.4l0-1.6
					C1.8,10.3,1.9,10.1,2.2,10.1z"/>
				<path class="st7" d="M2.8,10.2L2.8,10.2c0.2,0,0.4,0.2,0.4,0.4l0,1.6c0,0.2-0.2,0.4-0.4,0.4l0,0c-0.2,0-0.4-0.2-0.4-0.4l0-1.6
					C2.4,10.3,2.6,10.2,2.8,10.2z"/>
				<path class="st7" d="M2.3,15.8c0,0,1.1-2.4,1.1-2.9s-0.3-2.5-0.3-2.5S2.5,11,2,10.9c-0.5-0.1-1.6-0.3-1.6-0.3S0,12.3,0,13.1
					c0.1,0.8,0.3,1.6,0.3,1.6L2.3,15.8z"/>
			</g>
			<path class="st7" d="M35.7,22c0.9,0.5,2,0.5,3.7-2.1c1.7-2.6,4.8-9,4.8-9l-1.5-0.9c0,0-4.5,4.3-5.5,5.7
				C36.1,17.1,33.2,20.6,35.7,22z"/>
			<g>
				<path class="st7" d="M43.7,6.6L43.7,6.6c-0.2,0-0.4,0.2-0.4,0.4l0,1.6c0,0.2,0.2,0.4,0.4,0.4l0,0C43.9,9,44,8.8,44,8.6l0-1.6
					C44.1,6.8,43.9,6.6,43.7,6.6z"/>
				<path class="st7" d="M43,6.5L43,6.5c-0.2,0-0.4,0.2-0.4,0.4l0,1.6c0,0.2,0.2,0.4,0.4,0.4l0,0c0.2,0,0.4-0.2,0.4-0.4l0-1.6
					C43.4,6.7,43.2,6.5,43,6.5z"/>
				<path class="st7" d="M42.3,6.5L42.3,6.5c-0.2,0-0.4,0.2-0.4,0.4l0,1.6c0,0.2,0.2,0.4,0.4,0.4h0c0.2,0,0.4-0.2,0.4-0.4l0-1.6
					C42.7,6.7,42.5,6.5,42.3,6.5z"/>
				<path class="st7" d="M41.7,6.5L41.7,6.5c-0.2,0-0.4,0.2-0.4,0.4l0,1.6c0,0.2,0.2,0.4,0.4,0.4h0c0.2,0,0.4-0.2,0.4-0.4l0-1.6
					C42,6.7,41.9,6.5,41.7,6.5z"/>
				<path class="st7" d="M42,12.1c0,0-1-2.4-1.1-2.9c-0.1-0.5,0.4-2.5,0.4-2.5s0.7,0.6,1.1,0.6C42.9,7.2,44.1,7,44.1,7
					s0.3,1.7,0.3,2.5c0,1.1-0.5,1.8-0.5,1.8L42,12.1z"/>
			</g>
			<path class="st10" d="M27,89.4c0,0-0.4,2.1-0.1,3c0.1,0.2,6.1,0.9,7,0.6c0.9-0.3,1.6-0.7,1.6-0.7s-0.2-0.9-0.6-0.9
				c-0.4,0-4.1-1.1-4.4-1.6c-0.4-0.5-0.7-1.4-0.9-1.1C29.4,89,28.1,89.6,27,89.4z"/>
			<path class="st11" d="M33.9,93c0.5-0.2,0.9-0.4,1.2-0.5c-0.6,0.1-1.1,0.2-1.4,0.2c-0.7-0.1-3.1-0.9-4.6-1.4
				c-1.4-0.5-1.7-1.6-1.8-1.9c-0.1,0-0.2,0-0.3,0c0,0-0.4,2.1-0.1,3C27,92.6,33,93.3,33.9,93z"/>
			<path class="st12" d="M35.5,92.3c0,0-1.5,0.7-1.9,0.7c-0.2,0-3.7-0.8-5.6-1c-0.6-0.1-1-0.2-1.2-0.2c-0.1,0,0,0.6,0,0.6l0.2,0.4
				c0,0,6.4,0.6,6.6,0.6c0.2,0,2.1-0.8,2.1-0.8L35.5,92.3z"/>
			<path class="st12" d="M23.9,90.8l-2.5-0.1c0,0-0.1,0.6-0.7,1.6c-0.4,0.7-1.1,1.4-1.1,1.9c0,0.3,0.2,0.7,0.5,0.8
				c0.8,0.1,2.5,0.2,2.9-0.1c0.4-0.3,0.7-0.9,0.9-1.2c0.3-0.4,0.2-1.1,0.1-1.4C24.1,91.8,23.9,90.8,23.9,90.8z"/>
			<path class="st10" d="M23.9,90.5l-2.5-0.1c0,0-0.1,0.6-0.7,1.6c-0.4,0.7-1.1,1.4-1.1,1.9c0,0.3,0.2,0.6,0.5,0.7
				c0.8,0.1,2.5,0.2,2.9-0.1c0.4-0.3,0.6-0.8,0.9-1.1c0.3-0.4,0.2-1.1,0.2-1.4C24.1,91.6,23.9,90.5,23.9,90.5z"/>
			<path class="st10" d="M21.9,90c-0.3,0.2-0.4,1.8-0.4,1.9s0.5,0.1,0.7,0.1c0.8-0.1,1.1-1.5,0.9-1.9C23,89.9,22.2,89.9,21.9,90z"/>
			<path class="st11" d="M24.1,91.9c0-0.3-0.1-0.9-0.2-1.2c0,0.2,0,0.3,0,0.5c0,0.3,0.1,1-0.2,1.4c-0.3,0.4-0.5,0.8-0.9,1.1
				c-0.4,0.3-2.1,0.2-2.9,0.1c-0.1,0-0.2-0.1-0.3-0.2c0,0.1-0.1,0.2-0.1,0.3c0,0.3,0.2,0.6,0.5,0.7c0.8,0.1,2.5,0.2,2.9-0.1
				c0.4-0.3,0.6-0.8,0.9-1.1C24.1,93,24.1,92.3,24.1,91.9z"/>
			<path class="st9" d="M18.7,15c0.9-0.6,3.7-1.4,4.5,0.6c0.3,0.7-0.7,1.9-0.7,1.9s0.1-1.4-1-1.2c-1.1,0.2-1.3,1.7-2.2,2
				c-0.9,0.3-1.4,0.7-1.8,0.2C17.2,18,17.6,15.7,18.7,15z"/>
			<path class="st9" d="M22,16c0,0,0.8,0.3,1,0.9c0.2,0.5,0,0.8,0,0.8s0.5-0.2,0.5-0.6c0.1-1.7-1.3-1.8-1.3-1.8L22,16z"/>
		</g>
		<path class="st13" d="M18.7,51.2h7.4l0.4,6.7c0,0-1.6,13.3-1.4,13.3c0.3,0.1,0.7,0.4,0.4,0.6c-0.3,0.1-0.6,0.4-0.3,0.6
			c0.2,0.2-0.1,0.9,0,1.3c0.1,0.4-0.4,15.2-0.6,15.9c-0.2,0.7-2.5,0.9-3.4,0.5c-0.9-0.3-0.8-0.8-0.8-0.8S19,78.3,19,77.4
			c0-0.9,0.3-4.5,0.2-4.8c-0.1-0.2,0.3-0.6,0.3-1c0-0.3,0.1-0.7,0-0.9c-0.1-0.2-0.7-9.6-0.9-11.3C18.4,57.7,18.7,51.2,18.7,51.2z"/>
		<path class="st13" d="M26.1,51.2l5.8-1.7c0,0,1.3,3.5,1.9,6.6s0.9,15.1,0.9,15.4c0,0.2-0.2,1.8-0.5,3.1S30.3,89,30.3,89
			s-1,0.9-2.3,0.5c-1.3-0.5-1.6-1.2-1.6-1.2s0.4-12.2,1.4-13.3c0.7-0.8,1.1-1.7,1-1.7c-0.1,0-0.3-0.5,0-0.6c0.3-0.2,0.4-0.7,0-0.7
			c-0.3,0-0.2-1.5-0.4-2.7c-0.2-1.2-2.1-11.9-2.1-11.9L26.1,51.2z"/>
		<path class="st14" d="M17.9,27.9c0,0,2.1,1.5,4.1,1.2c2.1-0.3,2.9-2,2.9-2l3.2,0.5l3.5,3.2c0,0-1.8,7-1.7,9.1
			c0,2.2,1.9,9.4,1.9,9.4s-2.8,2.1-6.2,2c-3.4-0.1-7.1,0-7.1,0s-0.5-5.8-1.5-8.6c-1-2.8-4.1-8.7-4.1-8.7l1.8-4.3L17.9,27.9z"/>
		<path class="st15" d="M18.6,59.4c0.2,1.7,0.9,11,0.9,11.3c0.1,0.2,0,0.6,0,0.9c0,0.3-0.4,0.7-0.3,1c0.1,0.2-0.2,3.9-0.2,4.8
			c0,0.9,1.4,12,1.4,12s0,0.3,0.4,0.6c-0.1-1.9-0.5-9-0.6-11.1c0-2.4,0.4-7,0.7-7.3s-0.7-15.8-0.3-16.9c0.4-1.2,5.5-3.4,5.5-3.4
			h-7.4C18.7,51.2,18.4,57.7,18.6,59.4z"/>
		<path class="st15" d="M27.7,58.6c-0.9-0.9-1-0.8-1.1-0.7c0.4,2.4,1.8,10.2,1.9,11.2c0.2,1.2,0,2.7,0.4,2.7c0.3,0,0.2,0.6,0,0.7
			c-0.3,0.2-0.1,0.6,0,0.6c0.1,0-0.3,0.9-1,1.7c-1,1.2-1.4,13.3-1.4,13.3s0.2,0.7,1.6,1.2c0,0,0,0,0.1,0c0.2-2,0.5-6.2,0.7-8
			c0.2-2.3,2.2-7.8,2.2-8.7C30.9,72,28.7,59.7,27.7,58.6z"/>
		<path class="st16" d="M24.7,41.8c0.9-1.8,4.8-4.1,4.3-4.8c-0.5-0.7-8,1.6-8.7,1.4c-0.7-0.1-1.4-4-1.4-4l-2.5,7
			c0.2,0.5,0.4,0.9,0.5,1.3c1,2.8,1.5,8.6,1.5,8.6s3.7-0.1,7.1,0c0.3,0,0.6,0,0.9,0C26.4,50.9,23.8,43.5,24.7,41.8z"/>
		<path class="st17" d="M8.1,26.9c0,0,0.4,1.2,0.3,2.8c-0.2,1.6-1.2,3.7-1.2,3.7l6.2,3c0,0,1.6,7.1,1,10.4c-0.6,3.3-1,5.9-1,5.9
			s4.4,1.8,5.8,1.9c1.5,0.1,2.5-0.2,2.5-0.2s-2.5-20.6-3.1-21.7c-0.6-1.1-2-4.1-2-4.1s-2.1,0.7-2.2,0.4c-0.1-0.3-0.8-0.6-0.9-0.4
			c0,0.2-0.7,0-0.7-0.3C12.8,28.1,8.1,26.9,8.1,26.9z"/>
		<path class="st17" d="M26.1,27.2c0,0,1.5,0.1,1.4-0.2c-0.1-0.3,0.2-0.5,0.4-0.4c0.2,0,0.2-0.7,0.4-0.7c0.2,0,2.9-3.3,2.9-3.3
			s3.7,1.5,4.3,2.3c0.6,0.8,1.1,1.9,1.1,1.9l-4,5.2c0,0-0.6,6-0.8,10.5c-0.2,4.5,0.9,8.8,0.9,8.8s-2.4,1.9-3,1.9
			c-0.5,0-1.2-0.4-1.2-0.4s-0.1-15.3-0.3-18.5C28,31.2,26.1,27.2,26.1,27.2z"/>
		<path class="st18" d="M14.3,46.8c-0.6,3.3-1,5.9-1,5.9s1.5,0.6,3.1,1.2c0.1-2.1,0.3-6.3,0.2-7c-0.1-1-1.7-10.7-2.3-11.5
			s-7.2-2-7.2-2l6.2,3C13.4,36.5,14.9,43.5,14.3,46.8z"/>
		<path class="st18" d="M30,28.6c-0.5,0.2,1.9,3.3,1.8,4.1c-0.1,0.8-1.1,9.4-0.9,11.4c0.1,1.4,0.3,5.5,0.4,8.2c0.6-0.5,1.4-1,1.4-1
			s-1.1-4.3-0.9-8.8C32,38,32.6,32,32.6,32l4-5.2c0,0,0-0.1-0.1-0.1c-1.3,1.2-3.3,3-3.6,3C32.4,29.7,30.5,28.4,30,28.6z"/>
	</g>
</g>
</svg>
