<?xml version="1.0" encoding="utf-8"?>
<!-- Generator: Adobe Illustrator 22.0.1, SVG Export Plug-In . SVG Version: 6.00 Build 0)  -->
<svg version="1.1" id="OBJECTS" xmlns="http://www.w3.org/2000/svg" xmlns:xlink="http://www.w3.org/1999/xlink" x="0px" y="0px"
	 width="184.2px" height="199.5px" viewBox="0 0 184.2 199.5" style="enable-background:new 0 0 184.2 199.5;" xml:space="preserve"
	>
<style type="text/css">
	.st0{fill:#8C4624;}
	.st1{fill:#9D5924;}
	.st2{fill:#D47E32;}
	.st3{fill:#EFC739;}
	.st4{fill:none;stroke:#9D5924;stroke-width:1.2828;stroke-miterlimit:10;}
	.st5{fill:#EDBB95;}
	.st6{fill:#313130;}
	.st7{fill:#6DD0FE;}
	.st8{fill:#05B0FE;}
	.st9{fill:#FFFFFF;}
	.st10{fill:#EDC02D;}
	.st11{fill:#D98826;}
	.st12{fill:#2F397E;}
	.st13{fill:#F1D7A8;}
	.st14{fill:#BD8D50;}
	.st15{fill:#6D2A2B;}
	.st16{fill:#EFF1F0;}
</style>
<g>
	<g>
		<polygon class="st0" points="49.5,79.1 39.3,96.3 37.3,96.5 47.3,79.6 		"/>
		<polygon class="st1" points="24.2,64.1 49.5,79.1 47.3,79.6 21.2,64.1 		"/>
		<polygon class="st1" points="37.3,96.5 11.9,81.1 21.6,64.3 47.3,79.6 		"/>
		<polygon class="st0" points="21.2,64.1 14.6,75.4 40.1,90.9 47.3,79.6 		"/>
		<polygon class="st2" points="21.2,64.1 14.7,75.2 40.1,90.3 47.3,79.6 		"/>
		<polygon class="st3" points="25.5,80.5 24.3,82.7 29.2,85.7 30.5,83.5 		"/>
		<path class="st4" d="M40.2,75l2.4-4c0.3-0.5,0.2-1.2-0.4-1.6l-7.9-4.8c-0.5-0.3-1.2-0.2-1.6,0.4l-2.4,4"/>
	</g>
	<path class="st5" d="M41.9,61.5c0.3,0.9,1,2.6,0.5,3.5c-0.5,0.9-0.8,3.6-0.5,4.2c0.2,0.6-1.6,1.4-1.8-1.4c-0.4,0.2-0.7,0.7-0.7,0.7
		l0.2,0.1c0,0-0.3,0.9-1.6,0.2c-1.2-0.7-3.2-1.8-3.8-2.7c-0.6-0.9-0.1-1.8,0.2-2.4c0.8-1.8,3.3-4.1,3.3-4.1L41.9,61.5z"/>
	<path class="st6" d="M42.9,61.7c-0.5,0.1-4.6-1.2-5.7-2.5c1.3-2.5,7.9-16.1,10.1-17.7c2.2-1.6,23.7-7.3,29.7-6.6
		c1,6.1-5,9.9-6.5,11.8c-1.5,1.9-17.5,0.9-19,2.7C50.1,51.1,42.9,61.7,42.9,61.7z"/>
	<path class="st6" d="M79,84.4c2.3-1.9,25-15.3,28.7-15.4c3.7-0.2,21.3,22.3,21.3,22.3l-11.7,0.4l-11.7-11L93.2,95.1
		c0,0-9.3,1.1-12.6,0.3C77.3,94.6,79,84.4,79,84.4z"/>
	<g>
		<path class="st7" d="M60.3,113.5c0,0-25.4,6.8-32.3,8.9c-6.9,2.1-16.2,11.8-24.4,19.3c2.7,2.1,14-1.9,18.3-2.9s17.7,2.3,17.7,2.3
			L60.3,113.5z"/>
		<path class="st8" d="M39.6,141.2c0,0-13.4-3.3-17.7-2.3s-15.5,4.9-18.3,2.9c2.6-2.4,5.3-5,8-7.5c23.6,3.5,32.8-5.4,38-17.9
			c6-1.6,10.7-2.9,10.7-2.9L39.6,141.2z"/>
		<path class="st9" d="M43.6,119.2c0,0-13.3,3.3-15.9,4.2s-12.9,8.9-12.9,8.9s7.8-5,12.5-7C34.1,122.3,43.6,119.2,43.6,119.2z"/>
	</g>
	<g>
		<path class="st7" d="M89.8,152c0,0-13.1,22.8-16.9,28.9c-3.7,6.1-15.6,12.6-25,18.7c-1.3-3.2,5.4-13,7.5-16.9
			c2-3.9,2.3-17.7,2.3-17.7L89.8,152z"/>
		<path class="st8" d="M57.7,164.9c0,0-0.3,13.8-2.3,17.7c-2,3.9-8.7,13.7-7.5,16.9c3-1.9,6.2-3.8,9.3-5.8
			c2.6-23.7,13.6-30.3,27-32.1c3.1-5.3,5.6-9.6,5.6-9.6L57.7,164.9z"/>
		<path class="st9" d="M79.9,166.6c0,0-6.6,12-8.2,14.3c-1.5,2.3-11.9,10.1-11.9,10.1s6.8-6.3,10-10.3
			C74.5,175,79.9,166.6,79.9,166.6z"/>
	</g>
	<path class="st10" d="M37.9,143.5c-10.7,1.7-19.1,7.5-22.8,12.9c2.5,0.5,4.9,1.2,4.9,1.2s-10.7,3.1-20,30.8
		c25.9,2.7,39-11.5,39-11.5s0.6,2.6-0.7,6.4c9.5-6.5,15.7-18.6,15.7-18.6L37.9,143.5z"/>
	<path class="st11" d="M42.4,147.6c-6.3,1-11.2,4.4-13.3,7.5c1.5,0.3,2.9,0.7,2.9,0.7s-6.2,3.8-11.6,20c15.1,1.6,22.7-8.7,22.7-8.7
		s0.3,1.5-0.4,3.7c5.6-3.8,9.2-10.9,9.2-10.9L42.4,147.6z"/>
	<path class="st12" d="M36.2,143.8c0,0,2.9,15.8,17.3,22.7c35.6-9.6,86.7-35.1,107-59.4c23.7-28.4,23.7-60.9,23.7-60.9
		s-36.6-8.2-71.2,14.6C82.4,81.1,55.7,118.4,36.2,143.8z"/>
	<path class="st13" d="M69.7,97.7c1.2,5.1,4.9,5.4,12.5,3.9c7.6-1.5,14.3-3.3,14.3-3.3s7.2,22.1,7.7,23.8c0.5,1.7-4.3,5,1.5,7.6
		c5.8,2.6,21.7,0.1,21.7,0.1l-16.3-6.1l-9.1-34.2L69.7,97.7z"/>
	<path class="st13" d="M55.9,147.3l-13.2,10.2c2.6,3.4,6.1,6.7,10.9,9c3.6-1,7.4-2.1,11.2-3.4C55.6,162,51.1,152.3,55.9,147.3z"/>
	<path class="st8" d="M184.2,46.2c0,0-20.7-4.6-45.8,2.8c3.6,7.8,14.1,29.2,34.5,39.2C184.3,65.8,184.2,46.2,184.2,46.2z"/>
	<path class="st9" d="M183.2,48.5c0.3,3.9-4.4,30.4-17.8,46.8C171.5,83.5,176.9,69.7,183.2,48.5z"/>
	<path class="st7" d="M182.9,48L150,65.3c0,0,2.7,5.6,9.1,10.8C167.2,67.2,182.9,48,182.9,48z"/>
	<path class="st7" d="M94.6,118.3c0,0-49.3,33.1-60.9,45.9C48.1,159.6,83.6,127.1,94.6,118.3z"/>
	<path class="st8" d="M47.4,153.6c6.2-4.7,33-25.5,45-33.5c0.8-0.7,1.6-1.3,2.2-1.8c0,0-49.3,33.1-60.9,45.9c1.2-0.4,2.6-1,4.1-1.8
		C37.1,161.8,43,156.9,47.4,153.6z"/>
	<g>
		<path class="st8" d="M106.4,65.6c-0.2,0.2-0.5,0.4-0.7,0.5c2.8,7.5,14.5,34.2,43,52.7c0.2-0.2,0.4-0.4,0.7-0.6
			C120.6,99.7,109,72.6,106.4,65.6z"/>
		<path class="st8" d="M104.1,67.3c-0.5,0.4-0.9,0.7-1.4,1.1c3,7.8,14.8,34.4,43.1,52.7c0.5-0.4,0.9-0.7,1.4-1.1
			C118.3,101.4,106.7,74.2,104.1,67.3z"/>
		<path class="st8" d="M126.7,53.4c-0.2,0.1-0.5,0.2-0.7,0.3c4,9.4,15.3,31.4,39.4,47.1c0.2-0.2,0.3-0.4,0.5-0.7
			C142,84.5,130.7,62.7,126.7,53.4z"/>
		<path class="st8" d="M124.4,54.4c-0.5,0.2-1,0.5-1.4,0.7c3.9,9.3,15.4,32.2,40.5,48.3c0.3-0.4,0.6-0.9,1-1.3
			C139.5,86.2,128.1,63.4,124.4,54.4z"/>
	</g>
	<g>
		<path class="st6" d="M113.1,121.2c0,0,12.6,4.4,14.8,5.6c2.1,1.2,1.5,2.9-1.2,2.8c-2.7-0.1-18-1.4-19.4-1.8
			c-1.4-0.4-2-1.8-1.5-3.2c0.5-1.4,1.3-2.7,1.3-2.7L113.1,121.2z"/>
		<path class="st5" d="M112.3,117.4l0.9,4.3c0,0-3,3.7-6.1,0.9c-0.4-2.7-1.2-5.6-1.2-5.6L112.3,117.4z"/>
		<path class="st6" d="M82.5,81.6c3.2-0.7,16.6,0.8,22.7,1.7c0.8,0.1,2.2,0.3,2.9,3.7c1.9,9.3,5.1,31.5,5.1,31.5l-7,1.3l-6.9-26.3
			c0,0-17.9,5.7-23,6.2c-5.1,0.5-11.7,1.2-11.9-9C64.4,86.9,82.5,81.6,82.5,81.6z"/>
		<path class="st6" d="M77,34.8c-2.6,0.6-8.9,4.7-12.9,14.5c-5.4,13.3-4.2,31.4,0.6,44.9c18.6-2.9,19.9-13.8,19.9-13.8
			s-2.4-10.9-1.4-22.5c0.9-9.4,1.1-14.5-0.4-18.5C82.4,38.7,77.8,34.7,77,34.8z"/>
		<g>
			<path class="st5" d="M77,34.8L86.2,22l4.9,3.8l-8.3,13.8C80,39.7,77.5,36.3,77,34.8z"/>
			<path class="st5" d="M79.1,31.6c0,0,12.1,7.1,15.3,4.1c0.5-0.4,1.6-4.3,2.2-7c1-4.1,1.5-9.4,0.5-12.9C95.3,10,88.5,2,82.9,4
				C77.3,6.1,64.8,14.1,79.1,31.6z"/>
			<path class="st5" d="M97.5,18.9c0.8,2.2,2,3.1,3.4,3.8c-1,3.4-4.8,2.6-5.9-0.2C95.3,22.5,97.5,18.9,97.5,18.9z"/>
			<path class="st14" d="M93.4,8.8L94,9.4C93.8,9.3,93.6,9.1,93.4,8.8z"/>
			<path class="st15" d="M81.5,23.2c-0.5,2.8-1.1,8.6-3.1,9.5c-2.7-2.4-6-6-7.8-9.3C69,20.3,68,12.6,70.9,8.6c2.9-4,6.9-4.9,9.4-5.1
				c2-0.2,6-0.2,8.3,0.9c1.1,0.5,2.2,1.2,3.1,2C92.3,6.9,93,8.2,93.5,9l-0.3-0.3c-1.6,1.3-5.8-1.2-6.8,0.6C85.2,11.4,87,17.7,86,20
				C85.3,21.9,82.7,20.7,81.5,23.2z"/>
			<path class="st5" d="M80.7,21.9c0.6,1.9,2.7,3.8,3.9,3.4c1.2-0.4,1.7-2.3,1.1-4.1c-0.6-1.9-2.1-4.2-3.7-3.6
				C80.9,18.1,80.1,20,80.7,21.9z"/>
			<path class="st15" d="M82.8,3.6c-1.3-0.1-1.3,0.4-0.5,1.7c0.5,0.9,2.6,4.7,3.7,4.5l0.4,0.6c1.6,0.4,3.6,0.5,5.2,0.6
				c0.9,0,2.7,0.2,3.6-0.1c2.2-0.6,5.4-6.2,3.5-7.7c-1.8-1.5-3.3,0.7-3.3,0.7s2.5-2.3,0.1-3.5c-2.4-1.2-3.8,2.3-3.8,2.3
				s0.4-0.6-0.1-0.8c-0.5-0.2-0.4,0.7-1.3,1.1C87.1,4,84.8,3.6,82.8,3.6z"/>
		</g>
	</g>
	<path class="st5" d="M121.2,29.3l0.1-2.6c0,0-0.1-2.8,2.3-5.5l2.1,0.3l6.2-6c0,0,2.7,0.2-3.3,5.9c0,0,3.1,3.4,2.1,5.2
		c-1,1.8-2.7,1.5-2.7,1.5s-2.2,1.7-3.9,1.6L121.2,29.3z"/>
	<path class="st16" d="M118.5,26.8l2.7-2.1c0,0,3.8,1.7,3.7,5.5l-3.4,2.2L118.5,26.8z"/>
	<path class="st6" d="M124.2,32c-10.6,10.4-42.7,21.9-45.9,22.3c-3.2,0.5-6.1-1.8-6.6-5c-0.5-3.2,1.8-5.8,5-6.6
		c15.8-3.9,28.3-8.6,42.5-17.3C120.3,26.4,123.7,29.4,124.2,32z"/>
</g>
</svg>
