<?xml version="1.0" encoding="utf-8"?>
<!-- Generator: Adobe Illustrator 22.0.1, SVG Export Plug-In . SVG Version: 6.00 Build 0)  -->
<svg version="1.1" id="Layer_1" xmlns="http://www.w3.org/2000/svg" xmlns:xlink="http://www.w3.org/1999/xlink" x="0px" y="0px"
	 viewBox="0 0 1249.5 250" style="enable-background:new 0 0 1249.5 250;" xml:space="preserve">
<style type="text/css">
	.st0{fill:#2E387D;}
	.st1{fill:#04AFFF;}
</style>
<g id="logo">
	<path class="st0" d="M1226.4,115.8h-71.5c-3.5,0-6.4-2.1-6.4-4.7V98.2c0-2.5,2.9-4.6,6.4-4.6h89.4V76.9h-89.4
		c-12.7,0-23.1,9.6-23.1,21.3v12.9c0,11.8,10.4,21.3,23.1,21.3h71.5c3.5,0,6.4,2.1,6.4,4.7v16.2c0,2.5-2.9,4.6-6.4,4.6h-90.7v16.7
		h90.7c12.7,0,23.1-9.6,23.1-21.3v-16.2C1249.5,125.4,1239.1,115.8,1226.4,115.8z"/>
	<path class="st0" d="M1080.9,115.8h-71.5c-3.5,0-6.4-2.1-6.4-4.6V98.2c0-2.5,2.9-4.7,6.4-4.7h89.4V76.9h-89.4
		c-12.7,0-23.1,9.6-23.1,21.3v12.9c0,11.8,10.4,21.3,23.1,21.3h71.5c3.5,0,6.4,2.1,6.4,4.6v16.2c0,2.5-2.9,4.7-6.4,4.7h-90.7v16.7
		h90.7c12.7,0,23.1-9.6,23.1-21.3v-16.2C1104,125.4,1093.7,115.8,1080.9,115.8z"/>
	<polygon class="st0" points="955,91 955,77.1 840.9,77.1 824.1,77.1 824.1,91 824.1,118.8 824.1,132.7 824.1,160.5 824.1,174.4 
		840.9,174.4 955,174.4 955,160.5 840.9,160.5 840.9,132.7 955,132.7 955,118.8 840.9,118.8 840.9,91 	"/>
	<polygon class="st0" points="777.6,76.9 777.6,150.2 682.4,76.9 665.6,76.9 665.6,174.6 682.4,174.6 682.4,101.3 777.6,174.6 
		794.4,174.6 794.4,76.9 	"/>
	<polygon class="st1" points="628.3,76.8 577.5,76.8 558,76.8 507,76.8 507,93.5 558,93.5 558,174.1 577.5,174.1 577.5,93.5 
		628.3,93.5 	"/>
	<rect x="456" y="76.8" class="st1" width="19.5" height="97.3"/>
	<path class="st1" d="M416.1,122.5c2.3-3.5,3.5-7.5,3.5-11.7V97.9c0-11.8-9.5-21.3-21.3-21.3h-84.3v97.8h86.3
		c11.8,0,21.3-9.5,21.3-21.3v-16.2C421.7,131.5,419.7,126.4,416.1,122.5z M330.7,93.2h67.6c2.6,0,4.7,2.1,4.7,4.7v12.9
		c0,2.6-2.1,4.6-4.7,4.6l0,0h-67.6V93.2z M405,153c0,2.6-2.1,4.7-4.7,4.7h-69.7v-25.5h69.7c2.6,0,4.6,2.1,4.7,4.6L405,153z"/>
	<path class="st0" d="M125,20c58,0,105,47,105,105s-47,105-105,105S20,183,20,125l0,0C20.1,67,67,20.1,125,20 M125,0
		C56,0,0,56,0,125s56,125,125,125s125-56,125-125S194,0,125,0L125,0L125,0z"/>
	<rect x="116.3" y="53.4" class="st1" width="19.5" height="143.1"/>
	<path class="st0" d="M177.3,123.7c2.3-3.5,3.5-7.5,3.5-11.7V99.1c0-11.8-9.6-21.3-21.3-21.3H75.2v97.7h86.3
		c11.8,0,21.3-9.5,21.3-21.3V138C182.8,132.7,180.8,127.6,177.3,123.7z M166.2,154.2c0,2.6-2.1,4.7-4.6,4.7h0H91.9v-25.5h24.4v-16.7
		H91.9V94.4h67.6c2.6,0,4.6,2.1,4.6,4.7V112c0,2.6-2.1,4.7-4.6,4.7h-23.7v16.7h25.8c2.6,0,4.6,2.1,4.6,4.6L166.2,154.2z"/>
</g>
</svg>
