<svg width="40" height="40" viewBox="0 0 40 40" fill="none" xmlns="http://www.w3.org/2000/svg">
<g clip-path="url(#clip0)">
<path d="M3.23741 24.8693C2.69802 24.5139 2.02641 24.0722 2.34432 21.7045C2.3658 21.5441 2.29337 21.3858 2.15863 21.2965C2.10936 21.2641 1.66135 20.979 1.17206 20.979C0.851627 20.979 0.575826 21.099 0.373713 21.3264C0.0381196 21.7037 -0.0700955 22.3517 0.0435935 23.3054C0.362765 25.9973 1.65124 26.4643 2.03105 26.543C2.21126 26.6298 2.72329 26.8559 3.15867 26.8559C3.51195 26.8559 3.71322 26.7102 3.81975 26.5881C3.9806 26.4037 4.04081 26.154 3.99913 25.8449C3.92755 25.3223 3.56122 25.0815 3.23741 24.8693Z" fill="#16BD04"/>
<path d="M8.87199 24.4382C8.87199 24.2538 8.75115 24.0896 8.57388 24.0357C8.39703 23.9801 8.20502 24.0491 8.10143 24.2032C7.80037 24.6504 7.51151 24.8967 7.28751 24.8967C6.75611 24.8967 6.12914 23.527 5.88071 22.5383C5.82934 22.3328 5.63565 22.1968 5.42301 22.2225C5.22131 22.2465 5.0213 22.2583 4.82719 22.2583C3.78125 22.2583 3.1947 21.9084 3.19133 21.9067C3.06164 21.825 2.89785 21.82 2.76352 21.8941C2.6292 21.9682 2.54541 22.1097 2.54541 22.263C2.54541 23.6613 3.61577 25.2791 4.33917 25.9322C5.37416 26.8648 6.23441 27.3179 6.96918 27.3179C8.47113 27.3187 8.87199 25.5081 8.87199 24.4382Z" fill="#16BD04"/>
<path d="M4.54288 21.9968C4.54331 21.9968 4.54331 21.9968 4.54288 21.9968C5.53872 21.9968 6.69624 21.6548 7.98387 20.9824C12.0977 18.832 30.024 9.30654 30.1924 9.21727C30.413 9.10906 31.5196 8.52756 31.5444 7.71153C31.5533 7.42899 31.4358 7.02013 30.8295 6.67611L29.4109 5.87271C29.2846 5.80113 29.1313 5.79902 29.0041 5.86808L2.20089 20.2384C2.1011 20.2918 2.02699 20.3832 1.99541 20.4923C1.96425 20.6013 1.97772 20.718 2.03373 20.8169C2.06067 20.8645 2.72218 21.9968 4.54288 21.9968Z" fill="#16BD04"/>
<path d="M31.2732 11.0924L30.5169 9.72139C30.4049 9.51928 30.1527 9.44559 29.9476 9.55423L7.91977 21.42C7.80145 21.484 7.72018 21.6011 7.70207 21.7341C7.68397 21.8676 7.73071 22.0019 7.82839 22.0945C7.8486 22.1143 9.85711 24.0639 9.32404 25.8286C9.27477 25.992 9.32825 26.168 9.45962 26.2758C9.53668 26.3385 9.63142 26.3718 9.727 26.3718C9.79437 26.3718 9.86216 26.3558 9.92448 26.3234L28.3602 16.5381C28.5025 16.4623 28.5893 16.3124 28.5834 16.1516C28.5825 16.1259 28.5265 13.6062 31.1565 11.6335C31.325 11.5072 31.3747 11.2764 31.2732 11.0924Z" fill="#16BD04"/>
<path d="M24.1807 19.1041L17.988 22.4613C17.841 22.5405 17.7551 22.6996 17.769 22.8664C17.8276 23.5696 19.5898 26.3781 22.0067 26.3781C22.7566 26.3781 23.4973 26.109 24.2076 25.5797C25.182 24.8521 25.7429 23.9569 25.8746 22.9194C26.1189 20.9871 24.7668 19.2826 24.7091 19.2111C24.5815 19.0523 24.3596 19.0064 24.1807 19.1041ZM22.1595 24.5759C21.3536 24.5759 20.698 23.9203 20.698 23.1144C20.698 22.3084 21.3536 21.6524 22.1595 21.6524C22.9646 21.6524 23.6207 22.3084 23.6207 23.1144C23.6207 23.9203 22.9646 24.5759 22.1595 24.5759Z" fill="#16BD04"/>
<path d="M22.1594 23.7337C22.5015 23.7337 22.7788 23.4563 22.7788 23.1143C22.7788 22.7722 22.5015 22.4949 22.1594 22.4949C21.8174 22.4949 21.54 22.7722 21.54 23.1143C21.54 23.4563 21.8174 23.7337 22.1594 23.7337Z" fill="#16BD04"/>
<path d="M36.1885 26.8533L34.2027 26.9C33.9741 26.9063 33.7909 27.0925 33.7909 27.3211V28.7906H27.3115C24.4436 28.7906 23.6238 26.8259 23.5918 26.7451C23.5286 26.5825 23.3724 26.4756 23.1985 26.4756H21.1188C20.886 26.4756 20.6978 26.6638 20.6978 26.8967C20.6978 30.2429 24.0987 31.4307 27.0109 31.4307L33.7438 31.4198L33.7328 32.4224C33.732 32.5352 33.7762 32.643 33.8545 32.723C33.9337 32.803 34.0411 32.8481 34.1539 32.8481H36.1982C36.431 32.8481 36.6193 32.6603 36.6193 32.427V27.2744C36.6193 27.1602 36.5742 27.0525 36.4917 26.9729C36.4117 26.8937 36.2913 26.8524 36.1885 26.8533Z" fill="#16BD04"/>
<path d="M39.5788 25.5359H37.2385C37.0056 25.5359 36.8174 25.7237 36.8174 25.957V33.7619C36.8174 33.9952 37.0056 34.183 37.2385 34.183H39.5788C39.8116 34.183 39.9998 33.9952 39.9998 33.7619V25.957C39.9998 25.7237 39.8116 25.5359 39.5788 25.5359Z" fill="#16BD04"/>
</g>
<defs>
<clipPath id="clip0">
<rect width="40" height="40" fill="white"/>
</clipPath>
</defs>
</svg>
