<svg width="40" height="40" viewBox="0 0 40 40" fill="none" xmlns="http://www.w3.org/2000/svg">
<path d="M22.5 32.5C31.475 32.5 38.75 25.785 38.75 17.5C38.75 9.215 31.475 2.5 22.5 2.5C13.525 2.5 6.25 9.215 6.25 17.5C6.25 17.5 7.4225 25 1.25 25C1.25 31.25 12.5 32.5 22.5 32.5Z" fill="#BBDEFB"/>
<path d="M22.5 33.75C7.36 33.75 0 30.8875 0 25C0 24.31 0.56 23.75 1.25 23.75C2.49 23.75 3.395 23.395 4.0175 22.67C5.4775 20.9625 5.02 17.725 5.015 17.6925C5 8.54 12.85 1.25 22.5 1.25C32.1475 1.25 40 8.54 40 17.5C40 26.46 32.1475 33.75 22.5 33.75ZM2.69 26.12C3.88 29.4825 10.67 31.25 22.5 31.25C30.7725 31.25 37.5 25.08 37.5 17.5C37.5 9.9175 30.7725 3.75 22.5 3.75C14.2275 3.75 7.5 9.9175 7.5 17.5C7.515 17.5 8.1375 21.7025 5.9175 24.295C5.09 25.26 4.01 25.8725 2.69 26.12Z" fill="#455A64"/>
<path d="M27.5 38.75C30.2614 38.75 32.5 36.5114 32.5 33.75C32.5 30.9886 30.2614 28.75 27.5 28.75C24.7386 28.75 22.5 30.9886 22.5 33.75C22.5 36.5114 24.7386 38.75 27.5 38.75Z" fill="#37474F"/>
<path d="M12.5 38.75C15.2614 38.75 17.5 36.5114 17.5 33.75C17.5 30.9886 15.2614 28.75 12.5 28.75C9.73858 28.75 7.5 30.9886 7.5 33.75C7.5 36.5114 9.73858 38.75 12.5 38.75Z" fill="#37474F"/>
<path d="M17.5499 15C16.8599 15 16.2874 14.44 16.2874 13.75C16.2874 13.06 16.8349 12.5 17.5249 12.5H17.5499C18.2399 12.5 18.7999 13.06 18.7999 13.75C18.7999 14.44 18.2399 15 17.5499 15Z" fill="#455A64"/>
<path d="M27.5501 15C26.8626 15 26.2876 14.44 26.2876 13.75C26.2876 13.06 26.8351 12.5 27.5251 12.5H27.5501C28.2401 12.5 28.8001 13.06 28.8001 13.75C28.8001 14.44 28.2401 15 27.5501 15Z" fill="#455A64"/>
<path d="M22.5 26.2498C18.895 26.2498 15.8225 23.7948 15.03 20.2748C14.88 19.5998 15.3025 18.9323 15.975 18.7798C16.65 18.6348 17.3175 19.0498 17.47 19.7248C18.0025 22.0948 20.0725 23.7498 22.5 23.7498C24.93 23.7498 26.9975 22.0948 27.53 19.7248C27.685 19.0523 28.345 18.6298 29.025 18.7798C29.7 18.9323 30.1225 19.5998 29.9725 20.2748C29.18 23.7923 26.1075 26.2498 22.5 26.2498Z" fill="#455A64"/>
</svg>
