<?xml version="1.0" encoding="utf-8"?>
<!-- Generator: Adobe Illustrator 22.0.1, SVG Export Plug-In . SVG Version: 6.00 Build 0)  -->
<svg version="1.1" id="Слой_1" xmlns="http://www.w3.org/2000/svg" xmlns:xlink="http://www.w3.org/1999/xlink" x="0px" y="0px"
	 width="178.9px" height="293.3px" viewBox="0 0 178.9 293.3" style="enable-background:new 0 0 178.9 293.3;" xml:space="preserve"
	>
<style type="text/css">
	.st0{fill:#EDC32E;}
	.st1{fill:url(#SVGID_1_);}
	.st2{fill:url(#SVGID_2_);}
	.st3{fill:url(#SVGID_3_);}
	.st4{fill:url(#SVGID_4_);}
	.st5{fill:url(#SVGID_5_);}
	.st6{fill:url(#SVGID_6_);}
	.st7{fill:url(#SVGID_7_);}
	.st8{fill:url(#SVGID_8_);}
	.st9{fill:url(#SVGID_9_);}
	.st10{fill:url(#SVGID_10_);}
	.st11{fill:url(#SVGID_11_);}
	.st12{fill:url(#SVGID_12_);}
	.st13{fill:url(#SVGID_13_);}
	.st14{fill:url(#SVGID_14_);}
	.st15{fill:url(#SVGID_15_);}
	.st16{fill:url(#SVGID_16_);}
</style>
<g>
	<path class="st0" d="M137.9,122.2c0,0-20-58.3-20-84.2c0-25.9,8.9-36.7,20-36.7c11,0,20,10.8,20,36.7
		C157.9,63.8,137.9,122.2,137.9,122.2z"/>
	
		<linearGradient id="SVGID_1_" gradientUnits="userSpaceOnUse" x1="66.2823" y1="197.5004" x2="136.8414" y2="126.9413" gradientTransform="matrix(0.7071 -0.7071 0.7071 0.7071 -48.5956 11.6177)">
		<stop  offset="0" style="stop-color:#F2D546"/>
		<stop  offset="0.1655" style="stop-color:#F0CA43"/>
		<stop  offset="0.4576" style="stop-color:#EAAC3B"/>
		<stop  offset="0.8397" style="stop-color:#E17C2E"/>
		<stop  offset="1" style="stop-color:#DD6628"/>
	</linearGradient>
	<path class="st1" d="M137.9,122.2c0,0-20-58.3-20-84.2c0-25.9,8.9-36.7,20-36.7c11,0,20,10.8,20,36.7
		C157.9,63.8,137.9,122.2,137.9,122.2z"/>
	
		<radialGradient id="SVGID_2_" cx="1402.1583" cy="-846.3808" r="49.0406" fx="1366.4629" fy="-845.7899" gradientTransform="matrix(0 1 -0.3327 0 -143.8643 -1353.0469)" gradientUnits="userSpaceOnUse">
		<stop  offset="0" style="stop-color:#DD6518"/>
		<stop  offset="1" style="stop-color:#DD6518;stop-opacity:0"/>
	</radialGradient>
	<path class="st2" d="M137.9,98.3c0,0-15.7-45.9-15.7-66.3c0-20.4,7-28.9,15.7-28.9c8.7,0,15.7,8.5,15.7,28.9S137.9,98.3,137.9,98.3
		z"/>
	
		<linearGradient id="SVGID_3_" gradientUnits="userSpaceOnUse" x1="76.1592" y1="187.6236" x2="136.8148" y2="126.9679" gradientTransform="matrix(0.7071 -0.7071 0.7071 0.7071 -48.5956 11.6177)">
		<stop  offset="0" style="stop-color:#DD6518"/>
		<stop  offset="0.4373" style="stop-color:#D25E1D"/>
		<stop  offset="1" style="stop-color:#BD5026"/>
	</linearGradient>
	<path class="st3" d="M137.9,98.3c0,0-15.7-45.9-15.7-66.3c0-20.4,7-28.9,15.7-28.9c8.7,0,15.7,8.5,15.7,28.9S137.9,98.3,137.9,98.3
		z"/>
	
		<linearGradient id="SVGID_4_" gradientUnits="userSpaceOnUse" x1="74.7482" y1="189.0346" x2="140.9824" y2="122.8003" gradientTransform="matrix(0.7071 -0.7071 0.7071 0.7071 -48.5956 11.6177)">
		<stop  offset="0" style="stop-color:#DD6518"/>
		<stop  offset="9.335050e-02" style="stop-color:#DF6C23"/>
		<stop  offset="0.2584" style="stop-color:#E38041"/>
		<stop  offset="0.4758" style="stop-color:#EAA171"/>
		<stop  offset="0.7372" style="stop-color:#F4CDB4"/>
		<stop  offset="1" style="stop-color:#FFFFFF"/>
	</linearGradient>
	<path class="st4" d="M137.9,66c0,0-10.4-30.3-10.4-43.7c0-13.4,4.6-19.1,10.4-19.1c5.7,0,10.4,5.6,10.4,19.1
		C148.3,35.7,137.9,66,137.9,66z"/>
</g>
<g>
	<path class="st0" d="M20,120.9c0,0-20-58.3-20-84.2C0,10.8,8.9,0,20,0c11,0,20,10.8,20,36.7C39.9,62.6,20,120.9,20,120.9z"/>
	
		<linearGradient id="SVGID_5_" gradientUnits="userSpaceOnUse" x1="-16.245" y1="113.1964" x2="54.314" y2="42.6374" gradientTransform="matrix(0.7071 -0.7071 0.7071 0.7071 -48.5956 11.6177)">
		<stop  offset="0" style="stop-color:#F2D546"/>
		<stop  offset="0.1655" style="stop-color:#F0CA43"/>
		<stop  offset="0.4576" style="stop-color:#EAAC3B"/>
		<stop  offset="0.8397" style="stop-color:#E17C2E"/>
		<stop  offset="1" style="stop-color:#DD6628"/>
	</linearGradient>
	<path class="st5" d="M20,120.9c0,0-20-58.3-20-84.2C0,10.8,8.9,0,20,0c11,0,20,10.8,20,36.7C39.9,62.6,20,120.9,20,120.9z"/>
	
		<radialGradient id="SVGID_6_" cx="1400.9021" cy="-569.3444" r="49.0406" fx="1365.2067" fy="-568.7535" gradientTransform="matrix(0 1 -0.3327 0 -169.6725 -1353.0469)" gradientUnits="userSpaceOnUse">
		<stop  offset="0" style="stop-color:#DD6518"/>
		<stop  offset="1" style="stop-color:#DD6518;stop-opacity:0"/>
	</radialGradient>
	<path class="st6" d="M20,97.1c0,0-15.7-45.9-15.7-66.3c0-20.4,7-28.9,15.7-28.9c8.7,0,15.7,8.5,15.7,28.9S20,97.1,20,97.1z"/>
	
		<linearGradient id="SVGID_7_" gradientUnits="userSpaceOnUse" x1="-6.3682" y1="103.3196" x2="54.2875" y2="42.664" gradientTransform="matrix(0.7071 -0.7071 0.7071 0.7071 -48.5956 11.6177)">
		<stop  offset="0" style="stop-color:#DD6518"/>
		<stop  offset="0.4373" style="stop-color:#D25E1D"/>
		<stop  offset="1" style="stop-color:#BD5026"/>
	</linearGradient>
	<path class="st7" d="M20,97.1c0,0-15.7-45.9-15.7-66.3c0-20.4,7-28.9,15.7-28.9c8.7,0,15.7,8.5,15.7,28.9S20,97.1,20,97.1z"/>
	
		<linearGradient id="SVGID_8_" gradientUnits="userSpaceOnUse" x1="-7.7792" y1="104.7306" x2="58.4551" y2="38.4964" gradientTransform="matrix(0.7071 -0.7071 0.7071 0.7071 -48.5956 11.6177)">
		<stop  offset="0" style="stop-color:#DD6518"/>
		<stop  offset="9.335050e-02" style="stop-color:#DF6C23"/>
		<stop  offset="0.2584" style="stop-color:#E38041"/>
		<stop  offset="0.4758" style="stop-color:#EAA171"/>
		<stop  offset="0.7372" style="stop-color:#F4CDB4"/>
		<stop  offset="1" style="stop-color:#FFFFFF"/>
	</linearGradient>
	<path class="st8" d="M20,64.7c0,0-10.4-30.3-10.4-43.7C9.6,7.6,14.2,1.9,20,1.9c5.7,0,10.4,5.6,10.4,19.1
		C30.3,34.4,20,64.7,20,64.7z"/>
</g>
<g>
	<path class="st0" d="M63.1,273c0,0-15.3-44.7-15.3-64.6c0-19.9,6.9-28.2,15.3-28.2c8.5,0,15.3,8.3,15.3,28.2
		C78.5,228.2,63.1,273,63.1,273z"/>
	
		<linearGradient id="SVGID_9_" gradientUnits="userSpaceOnUse" x1="-96.1683" y1="254.189" x2="-42.0371" y2="200.0578" gradientTransform="matrix(0.7071 -0.7071 0.7071 0.7071 -48.5956 11.6177)">
		<stop  offset="0" style="stop-color:#F2D546"/>
		<stop  offset="0.1655" style="stop-color:#F0CA43"/>
		<stop  offset="0.4576" style="stop-color:#EAAC3B"/>
		<stop  offset="0.8397" style="stop-color:#E17C2E"/>
		<stop  offset="1" style="stop-color:#DD6628"/>
	</linearGradient>
	<path class="st9" d="M63.1,273c0,0-15.3-44.7-15.3-64.6c0-19.9,6.9-28.2,15.3-28.2c8.5,0,15.3,8.3,15.3,28.2
		C78.5,228.2,63.1,273,63.1,273z"/>
	
		<radialGradient id="SVGID_10_" cx="1569.9911" cy="-670.882" r="37.6227" fx="1542.6064" fy="-670.4287" gradientTransform="matrix(0 1 -0.3327 0 -160.2134 -1353.0469)" gradientUnits="userSpaceOnUse">
		<stop  offset="0" style="stop-color:#DD6518"/>
		<stop  offset="1" style="stop-color:#DD6518;stop-opacity:0"/>
	</radialGradient>
	<path class="st10" d="M63.1,254.7c0,0-12-35.2-12-50.8c0-15.6,5.4-22.2,12-22.2c6.7,0,12,6.5,12,22.2S63.1,254.7,63.1,254.7z"/>
	
		<linearGradient id="SVGID_11_" gradientUnits="userSpaceOnUse" x1="-88.5911" y1="246.6117" x2="-42.0575" y2="200.0782" gradientTransform="matrix(0.7071 -0.7071 0.7071 0.7071 -48.5956 11.6177)">
		<stop  offset="0" style="stop-color:#DD6518"/>
		<stop  offset="0.4373" style="stop-color:#D25E1D"/>
		<stop  offset="1" style="stop-color:#BD5026"/>
	</linearGradient>
	<path class="st11" d="M63.1,254.7c0,0-12-35.2-12-50.8c0-15.6,5.4-22.2,12-22.2c6.7,0,12,6.5,12,22.2S63.1,254.7,63.1,254.7z"/>
	
		<linearGradient id="SVGID_12_" gradientUnits="userSpaceOnUse" x1="-89.6736" y1="247.6942" x2="-38.8602" y2="196.8809" gradientTransform="matrix(0.7071 -0.7071 0.7071 0.7071 -48.5956 11.6177)">
		<stop  offset="0" style="stop-color:#DD6518"/>
		<stop  offset="9.335050e-02" style="stop-color:#DF6C23"/>
		<stop  offset="0.2584" style="stop-color:#E38041"/>
		<stop  offset="0.4758" style="stop-color:#EAA171"/>
		<stop  offset="0.7372" style="stop-color:#F4CDB4"/>
		<stop  offset="1" style="stop-color:#FFFFFF"/>
	</linearGradient>
	<path class="st12" d="M63.1,229.9c0,0-7.9-23.2-7.9-33.5c0-10.3,3.6-14.6,7.9-14.6c4.4,0,7.9,4.3,7.9,14.6
		C71.1,206.6,63.1,229.9,63.1,229.9z"/>
</g>
<g>
	<path class="st0" d="M15.5,273c0,0-15.4-44.9-15.4-64.8C0.2,188.3,7,180,15.5,180c8.5,0,15.4,8.3,15.4,28.2
		C30.9,228.1,15.5,273,15.5,273z"/>
	
		<linearGradient id="SVGID_13_" gradientUnits="userSpaceOnUse" x1="-129.823" y1="220.4798" x2="-75.5387" y2="166.1955" gradientTransform="matrix(0.7071 -0.7071 0.7071 0.7071 -48.5956 11.6177)">
		<stop  offset="0" style="stop-color:#F2D546"/>
		<stop  offset="0.1655" style="stop-color:#F0CA43"/>
		<stop  offset="0.4576" style="stop-color:#EAAC3B"/>
		<stop  offset="0.8397" style="stop-color:#E17C2E"/>
		<stop  offset="1" style="stop-color:#DD6628"/>
	</linearGradient>
	<path class="st13" d="M15.5,273c0,0-15.4-44.9-15.4-64.8C0.2,188.3,7,180,15.5,180c8.5,0,15.4,8.3,15.4,28.2
		C30.9,228.1,15.5,273,15.5,273z"/>
	
		<radialGradient id="SVGID_14_" cx="1569.8325" cy="-559.0179" r="37.7291" fx="1542.3704" fy="-558.5633" gradientTransform="matrix(0 1 -0.3327 0 -170.6345 -1353.0469)" gradientUnits="userSpaceOnUse">
		<stop  offset="0" style="stop-color:#DD6518"/>
		<stop  offset="1" style="stop-color:#DD6518;stop-opacity:0"/>
	</radialGradient>
	<path class="st14" d="M15.5,254.6c0,0-12.1-35.3-12.1-51c0-15.7,5.4-22.2,12.1-22.2c6.7,0,12.1,6.6,12.1,22.2
		S15.5,254.6,15.5,254.6z"/>
	
		<linearGradient id="SVGID_15_" gradientUnits="userSpaceOnUse" x1="-122.2243" y1="212.8811" x2="-75.5591" y2="166.216" gradientTransform="matrix(0.7071 -0.7071 0.7071 0.7071 -48.5956 11.6177)">
		<stop  offset="0" style="stop-color:#DD6518"/>
		<stop  offset="0.4373" style="stop-color:#D25E1D"/>
		<stop  offset="1" style="stop-color:#BD5026"/>
	</linearGradient>
	<path class="st15" d="M15.5,254.6c0,0-12.1-35.3-12.1-51c0-15.7,5.4-22.2,12.1-22.2c6.7,0,12.1,6.6,12.1,22.2
		S15.5,254.6,15.5,254.6z"/>
	
		<linearGradient id="SVGID_16_" gradientUnits="userSpaceOnUse" x1="-123.3099" y1="213.9667" x2="-72.3528" y2="163.0096" gradientTransform="matrix(0.7071 -0.7071 0.7071 0.7071 -48.5956 11.6177)">
		<stop  offset="0" style="stop-color:#DD6518"/>
		<stop  offset="9.335050e-02" style="stop-color:#DF6C23"/>
		<stop  offset="0.2584" style="stop-color:#E38041"/>
		<stop  offset="0.4758" style="stop-color:#EAA171"/>
		<stop  offset="0.7372" style="stop-color:#F4CDB4"/>
		<stop  offset="1" style="stop-color:#FFFFFF"/>
	</linearGradient>
	<path class="st16" d="M15.5,229.7c0,0-8-23.3-8-33.6c0-10.3,3.6-14.7,8-14.7c4.4,0,8,4.3,8,14.7C23.5,206.5,15.5,229.7,15.5,229.7z
		"/>
</g>
</svg>
