<?xml version="1.0" encoding="utf-8"?>
<!-- Generator: Adobe Illustrator 22.0.1, SVG Export Plug-In . SVG Version: 6.00 Build 0)  -->
<svg version="1.1" id="OBJECTS" xmlns="http://www.w3.org/2000/svg" xmlns:xlink="http://www.w3.org/1999/xlink" x="0px" y="0px"
	 width="55.3px" height="49.4px" viewBox="0 0 55.3 49.4" style="enable-background:new 0 0 55.3 49.4;" xml:space="preserve">
<style type="text/css">
	.st0{fill:url(#XMLID_2_);}
	.st1{fill:url(#XMLID_3_);}
</style>
<linearGradient id="XMLID_2_" gradientUnits="userSpaceOnUse" x1="-1068.2213" y1="472.3576" x2="-995.1451" y2="472.3576" gradientTransform="matrix(-0.7476 -0.6641 0.6641 -0.7476 -1057.1757 -307.0926)">
	<stop  offset="0" style="stop-color:#FEBF73"/>
	<stop  offset="0.9946" style="stop-color:#EAEAEA;stop-opacity:0"/>
</linearGradient>
<path id="XMLID_196_" class="st0" d="M3.2,0.5l51.9,47.6c0.3,0.3,0.3,0.7,0.1,1l0,0c-0.3,0.3-0.7,0.3-1,0.1L0.7,3.4
	c-0.8-0.7-0.9-1.9-0.2-2.7l0,0C1.2-0.2,2.4-0.2,3.2,0.5z"/>
<linearGradient id="XMLID_3_" gradientUnits="userSpaceOnUse" x1="-1067.28" y1="472.3582" x2="-1022.4987" y2="472.3582" gradientTransform="matrix(-0.7476 -0.6641 0.6641 -0.7476 -1057.1757 -307.0926)">
	<stop  offset="0" style="stop-color:#FEBF73"/>
	<stop  offset="0.9946" style="stop-color:#EAEAEA;stop-opacity:0"/>
</linearGradient>
<path id="XMLID_195_" class="st1" d="M22.6,18.7l31.8,29.2c0.2,0.2,0.2,0.4,0,0.6l0,0c-0.2,0.2-0.4,0.2-0.6,0L21.1,20.5
	c-0.5-0.4-0.6-1.2-0.1-1.7l0,0C21.4,18.3,22.1,18.3,22.6,18.7z"/>
</svg>
