<?xml version="1.0" encoding="utf-8"?>
<!-- Generator: Adobe Illustrator 22.0.1, SVG Export Plug-In . SVG Version: 6.00 Build 0)  -->
<svg version="1.1" id="OBJECTS" xmlns="http://www.w3.org/2000/svg" xmlns:xlink="http://www.w3.org/1999/xlink" x="0px" y="0px"
	 width="206.5px" height="533.6px" viewBox="0 0 206.5 533.6" style="enable-background:new 0 0 206.5 533.6;" xml:space="preserve"
	>
<style type="text/css">
	.st0{fill:#293748;}
	.st1{fill:url(#SVGID_1_);}
	.st2{fill:url(#XMLID_8_);}
	.st3{fill:url(#XMLID_9_);}
	.st4{fill:url(#XMLID_10_);}
	.st5{fill:url(#XMLID_11_);}
	.st6{fill:url(#XMLID_12_);}
	.st7{fill:url(#XMLID_13_);}
	.st8{fill:url(#XMLID_14_);}
	.st9{fill:url(#XMLID_15_);}
	.st10{fill:url(#XMLID_16_);}
	.st11{fill:url(#XMLID_17_);}
	.st12{fill:url(#XMLID_18_);}
</style>
<rect x="86.4" y="344" transform="matrix(-0.3256 0.9455 -0.9455 -0.3256 488.3399 439.3221)" class="st0" width="2.1" height="99.6"/>
<linearGradient id="SVGID_1_" gradientUnits="userSpaceOnUse" x1="7.681598e-02" y1="370.7135" x2="51.908" y2="370.7135">
	<stop  offset="4.303195e-03" style="stop-color:#F4F8FF"/>
	<stop  offset="0.1566" style="stop-color:#CBD1DA"/>
	<stop  offset="0.3386" style="stop-color:#A0A8B4"/>
	<stop  offset="0.5159" style="stop-color:#7F8897"/>
	<stop  offset="0.6845" style="stop-color:#677181"/>
	<stop  offset="0.8409" style="stop-color:#596474"/>
	<stop  offset="0.9731" style="stop-color:#545F70"/>
</linearGradient>
<path class="st1" d="M51.9,370.7c0,14.3-11.6,25.9-25.9,25.9c-14.3,0-25.9-11.6-25.9-25.9c0-14.3,11.6-25.9,25.9-25.9
	C40.3,344.8,51.9,356.4,51.9,370.7z M34.4,375.2C29.1,387.4,22.3,393,19,395.2c1.9,0.6,3.9,0.9,6,1c4-3.4,9.2-9.4,13.5-19.2
	c4.7-10.6,4.6-20,3.8-26c-1.6-1.3-3.3-2.4-5.1-3.3C38.1,351.9,39.9,362.7,34.4,375.2z"/>
<polygon class="st0" points="17.8,346.5 17.4,345 22.5,342.2 26.7,341.7 27.1,345.3 "/>
<rect x="17.3" y="364.4" transform="matrix(0.2336 -0.9723 0.9723 0.2336 -345.0419 302.0431)" class="st0" width="3.6" height="11.1"/>
<polygon class="st0" points="23.3,372.8 24.1,369.3 34.7,372.6 34.2,374.6 "/>
<polygon class="st0" points="27.1,345.3 26.7,341.7 37.7,341.1 38,343.2 "/>
<polygon class="st0" points="24.5,372.3 24.9,370.3 143.7,398.6 143.2,400.6 "/>
<rect x="89.1" y="283.1" transform="matrix(0.12 0.9928 -0.9928 0.12 412.6889 205.9988)" class="st0" width="2.1" height="105.3"/>
<polygon class="st0" points="4.8,385.3 3.6,386.3 6,391.5 9.1,394.4 11.6,391.8 "/>
<polygon class="st0" points="11.6,391.8 9.1,394.4 17.7,401.4 19.1,399.9 "/>
<rect x="55.9" y="383.9" transform="matrix(0.6817 -0.7316 0.7316 0.6817 -301.2474 180.5862)" class="st0" width="2.1" height="105.3"/>
<g>
	
		<linearGradient id="XMLID_8_" gradientUnits="userSpaceOnUse" x1="80.9044" y1="266.4776" x2="132.0802" y2="266.4776" gradientTransform="matrix(0.9394 -0.3429 0.3429 0.9394 -137.8734 -188.2203)">
		<stop  offset="5.376340e-03" style="stop-color:#C4EBFE"/>
		<stop  offset="0.9731" style="stop-color:#0084E0"/>
	</linearGradient>
	<path id="XMLID_205_" class="st2" d="M78.3,32.1C74.7,45.8,60.7,53.9,47,50.3c-13.7-3.6-21.8-17.6-18.2-31.3S46.4-2.8,60.1,0.9
		S81.9,18.5,78.3,32.1z"/>
	
		<linearGradient id="XMLID_9_" gradientUnits="userSpaceOnUse" x1="-97.2333" y1="16.728" x2="12.7315" y2="16.728" gradientTransform="matrix(0.9668 0.2556 -0.2556 0.9668 98.0149 22.6647)">
		<stop  offset="5.376340e-03" style="stop-color:#C4EBFE"/>
		<stop  offset="0.9731" style="stop-color:#0084E0"/>
	</linearGradient>
	<path id="XMLID_204_" class="st3" d="M80.1,25.1c0,0,2.6,0.8,7.1,2.4c2.2,0.8,4.9,1.9,7.9,3.3c3,1.4,6.5,3,9.7,6
		c0.7,0.8,1.7,1.8,1.7,3.5c0,0.3,0,0.3-0.1,0.7l-0.1,0.4c-0.2,0.4-0.6,0.8-0.8,1c-0.6,0.5-1.1,0.8-1.7,1c-2.3,0.9-4.7,1-7.1,1.2
		c-4.8,0.2-9.7-0.1-14.8-0.8c-10.2-1.3-20.9-3.5-31.4-6.2C39.9,34.7,29.5,31.3,20,27.4c-4.7-1.9-9.2-4.1-13.3-6.7
		c-2-1.3-4-2.6-5.5-4.5c-0.4-0.5-0.8-1-1-1.7c-0.2-0.7-0.3-1.6,0.1-2.4c0.1-0.4,1.1-1.4,1.5-1.5c0.6-0.4,1.1-0.5,1.6-0.7
		c4.3-1,8-0.6,11.3-0.4c3.3,0.3,6.2,0.7,8.5,1.1c4.7,0.8,7.3,1.4,7.3,1.4s-2.7-0.3-7.4-0.7c-2.4-0.2-5.2-0.4-8.5-0.5
		c-3.2,0-7.1,0-10.7,1c-0.4,0.2-0.9,0.3-1.2,0.5c-0.2,0.1-0.4,0.2-0.4,0.3c0,0-0.1,0-0.1,0.1c-0.1,0.1-0.1,0.2-0.2,0.3
		c-0.2,0.3,0.1,1,0.7,1.8c1.3,1.4,3.2,2.6,5.1,3.8c4,2.2,8.4,4.1,13.1,6c9.4,3.7,19.7,6.9,30.1,9.6c10.4,2.8,20.9,5.1,30.9,6.5
		c5,0.6,9.8,1.2,14.4,1.2c4.2,0,10.3-0.7,6.8-3.9c-2.7-2.7-6-4.5-8.8-6.1c-2.9-1.6-5.5-2.8-7.6-3.8C82.6,26.1,80.1,25.1,80.1,25.1z"
		/>
</g>
<g>
	<linearGradient id="XMLID_10_" gradientUnits="userSpaceOnUse" x1="0.5332" y1="99.5992" x2="65.242" y2="99.5992">
		<stop  offset="5.376340e-03" style="stop-color:#FED9A8"/>
		<stop  offset="0.9731" style="stop-color:#E8661E"/>
	</linearGradient>
	<path id="XMLID_165_" class="st4" d="M65.2,99.6c0,3.1-0.4,6.1-1.2,8.9C60.1,122.1,47.7,132,32.9,132c-16.5,0-30.1-12.4-32.1-28.3
		c-0.2-1.3-0.2-2.7-0.2-4C0.5,94.3,1.8,89.4,4,85c5.3-10.5,16.3-17.7,28.9-17.7c13.2,0,24.5,7.9,29.6,19.2
		C64.2,90.5,65.2,94.9,65.2,99.6z"/>
	<linearGradient id="XMLID_11_" gradientUnits="userSpaceOnUse" x1="4.0234" y1="78.2574" x2="62.4663" y2="78.2574">
		<stop  offset="5.376340e-03" style="stop-color:#FEC089"/>
		<stop  offset="0.2738" style="stop-color:#F49E6D"/>
		<stop  offset="0.55" style="stop-color:#ED8256"/>
		<stop  offset="0.7924" style="stop-color:#E87148"/>
		<stop  offset="0.9731" style="stop-color:#E66B43"/>
	</linearGradient>
	<path id="XMLID_164_" class="st5" d="M62.5,86.5c-15.6-8-21-4.7-37.7,1.3C15.2,91.2,8.2,88.2,4,85c5.3-10.5,16.3-17.7,28.9-17.7
		C46.1,67.2,57.4,75.1,62.5,86.5z"/>
	<linearGradient id="XMLID_12_" gradientUnits="userSpaceOnUse" x1="0.7817" y1="117.7804" x2="63.9991" y2="117.7804">
		<stop  offset="5.376340e-03" style="stop-color:#FEC089"/>
		<stop  offset="6.488381e-02" style="stop-color:#FBB782"/>
		<stop  offset="0.3174" style="stop-color:#F29666"/>
		<stop  offset="0.5591" style="stop-color:#EB7E53"/>
		<stop  offset="0.7834" style="stop-color:#E77047"/>
		<stop  offset="0.9731" style="stop-color:#E66B43"/>
	</linearGradient>
	<path id="XMLID_163_" class="st6" d="M64,108.5C60.1,122.1,47.7,132,32.9,132c-16.5,0-30.1-12.4-32.1-28.3c4.4,4,11.4,8.3,21.4,7.7
		C39.2,110.3,52.2,98.3,64,108.5z"/>
</g>
<g>
	
		<linearGradient id="XMLID_13_" gradientUnits="userSpaceOnUse" x1="372.8155" y1="-350.6042" x2="437.5242" y2="-350.6042" gradientTransform="matrix(-0.1375 -0.9905 0.9905 -0.1375 435.3536 537.6476)">
		<stop  offset="5.376340e-03" style="stop-color:#FEA8A8"/>
		<stop  offset="0.9731" style="stop-color:#DE2409"/>
	</linearGradient>
	<path id="XMLID_3_" class="st7" d="M27.9,152.5c3.1-0.4,6.1-0.4,9,0c13.9,2,25.4,13,27.5,27.6c2.3,16.4-8.1,31.6-23.7,35.7
		c-1.3,0.3-2.6,0.6-3.9,0.8c-5.2,0.7-10.3,0.2-15-1.4C10.7,211.3,2,201.5,0.3,189c-1.8-13.1,4.4-25.4,15-31.9
		C19,154.7,23.3,153.1,27.9,152.5z"/>
	
		<linearGradient id="XMLID_14_" gradientUnits="userSpaceOnUse" x1="376.3057" y1="-371.946" x2="434.7486" y2="-371.946" gradientTransform="matrix(-0.1375 -0.9905 0.9905 -0.1375 435.3536 537.6476)">
		<stop  offset="5.376340e-03" style="stop-color:#FE8C8C"/>
		<stop  offset="7.460679e-02" style="stop-color:#FA8381"/>
		<stop  offset="0.3449" style="stop-color:#EA635A"/>
		<stop  offset="0.5937" style="stop-color:#DF4C3E"/>
		<stop  offset="0.8111" style="stop-color:#D83E2D"/>
		<stop  offset="0.9731" style="stop-color:#D63927"/>
	</linearGradient>
	<path id="XMLID_2_" class="st8" d="M15.3,157.1c-5.8,16.6-1.7,21.4,6.5,37.2c4.7,9,2.7,16.3,0.1,20.9C10.7,211.3,2,201.5,0.3,189
		C-1.5,175.9,4.8,163.6,15.3,157.1z"/>
	
		<linearGradient id="XMLID_15_" gradientUnits="userSpaceOnUse" x1="373.064" y1="-332.4229" x2="436.2814" y2="-332.4229" gradientTransform="matrix(-0.1375 -0.9905 0.9905 -0.1375 435.3536 537.6476)">
		<stop  offset="5.376340e-03" style="stop-color:#FE8C8C"/>
		<stop  offset="0.1504" style="stop-color:#F47873"/>
		<stop  offset="0.379" style="stop-color:#E75D52"/>
		<stop  offset="0.5981" style="stop-color:#DE4A3A"/>
		<stop  offset="0.8012" style="stop-color:#D83E2C"/>
		<stop  offset="0.9731" style="stop-color:#D63A27"/>
	</linearGradient>
	<path id="XMLID_1_" class="st9" d="M36.9,152.5c13.9,2,25.4,13,27.5,27.6c2.3,16.4-8.1,31.6-23.7,35.7c3.4-4.9,6.7-12.5,4.7-22.2
		C42.1,176.8,28.4,165.6,36.9,152.5z"/>
</g>
<g>
	
		<linearGradient id="XMLID_16_" gradientUnits="userSpaceOnUse" x1="-3.9113" y1="-178.8491" x2="60.7974" y2="-178.8491" gradientTransform="matrix(0.7071 -0.7071 0.7071 0.7071 139.298 421.6607)">
		<stop  offset="5.376340e-03" style="stop-color:#56C9FE"/>
		<stop  offset="0.9731" style="stop-color:#0598FE"/>
	</linearGradient>
	<path id="XMLID_6_" class="st10" d="M55.8,252.2c2.2,2.2,4,4.6,5.4,7.2c6.8,12.3,5,28.1-5.4,38.6c-11.7,11.7-30.1,12.6-42.7,2.7
		c-1-0.8-2.1-1.7-3-2.7c-3.7-3.7-6.3-8.1-7.9-12.8c-3.7-11.2-1-24,7.9-33c9.3-9.3,22.9-11.8,34.5-7.3
		C48.7,246.5,52.5,248.9,55.8,252.2z"/>
	
		<linearGradient id="XMLID_17_" gradientUnits="userSpaceOnUse" x1="-0.4211" y1="-200.1908" x2="58.0218" y2="-200.1908" gradientTransform="matrix(0.7071 -0.7071 0.7071 0.7071 139.298 421.6607)">
		<stop  offset="5.376340e-03" style="stop-color:#93DBFE"/>
		<stop  offset="1.491496e-02" style="stop-color:#91DAFE"/>
		<stop  offset="0.2473" style="stop-color:#5FCBFE"/>
		<stop  offset="0.4667" style="stop-color:#38BFFE"/>
		<stop  offset="0.6673" style="stop-color:#1CB7FE"/>
		<stop  offset="0.8426" style="stop-color:#0BB2FE"/>
		<stop  offset="0.9731" style="stop-color:#05B0FE"/>
	</linearGradient>
	<path id="XMLID_5_" class="st11" d="M44.6,244.9c-16.7,5.4-18.1,11.6-25.7,27.6c-4.3,9.2-11.4,12-16.6,12.7c-3.7-11.2-1-24,7.9-33
		C19.4,242.9,33,240.4,44.6,244.9z"/>
	
		<linearGradient id="XMLID_18_" gradientUnits="userSpaceOnUse" x1="-3.6628" y1="-160.6678" x2="59.5546" y2="-160.6678" gradientTransform="matrix(0.7071 -0.7071 0.7071 0.7071 139.298 421.6607)">
		<stop  offset="5.376341e-03" style="stop-color:#93DBFE"/>
		<stop  offset="6.037309e-02" style="stop-color:#86D7FE"/>
		<stop  offset="0.2733" style="stop-color:#58C9FE"/>
		<stop  offset="0.4772" style="stop-color:#34BEFE"/>
		<stop  offset="0.6672" style="stop-color:#1AB6FE"/>
		<stop  offset="0.8381" style="stop-color:#0AB2FE"/>
		<stop  offset="0.9731" style="stop-color:#05B0FE"/>
	</linearGradient>
	<path id="XMLID_4_" class="st12" d="M61.3,259.4c6.8,12.3,5,28.1-5.4,38.6c-11.7,11.7-30.1,12.6-42.7,2.7c5.9-0.3,14-2.2,20.6-9.7
		C45,278.2,45.7,260.5,61.3,259.4z"/>
</g>
</svg>
