<?xml version="1.0" encoding="utf-8"?>
<!-- Generator: Adobe Illustrator 22.0.1, SVG Export Plug-In . SVG Version: 6.00 Build 0)  -->
<svg version="1.1" id="OBJECTS" xmlns="http://www.w3.org/2000/svg" xmlns:xlink="http://www.w3.org/1999/xlink" x="0px" y="0px"
	 width="206.5px" height="533.6px" viewBox="0 0 206.5 533.6" style="enable-background:new 0 0 206.5 533.6;" xml:space="preserve"
	>
<style type="text/css">
	.st0{fill:#293748;}
	.st1{fill:url(#SVGID_1_);}
	.st2{fill:url(#XMLID_8_);}
	.st3{fill:url(#XMLID_9_);}
	.st4{fill:url(#XMLID_10_);}
	.st5{fill:url(#XMLID_11_);}
	.st6{fill:url(#XMLID_12_);}
	.st7{fill:url(#XMLID_13_);}
	.st8{fill:url(#XMLID_14_);}
	.st9{fill:url(#XMLID_15_);}
	.st10{fill:url(#XMLID_16_);}
	.st11{fill:url(#XMLID_17_);}
	.st12{fill:url(#XMLID_18_);}
</style>
<rect x="60.2" y="363.8" transform="matrix(0.8503 -0.5263 0.5263 0.8503 -208.4981 94.1667)" class="st0" width="2.1" height="99.6"/>
<linearGradient id="SVGID_1_" gradientUnits="userSpaceOnUse" x1="-15.6818" y1="394.3302" x2="36.1182" y2="394.3302" gradientTransform="matrix(0.7745 0.6326 -0.6326 0.7745 269.7539 44.9006)">
	<stop  offset="4.303195e-03" style="stop-color:#F4F8FF"/>
	<stop  offset="0.1566" style="stop-color:#CBD1DA"/>
	<stop  offset="0.3386" style="stop-color:#A0A8B4"/>
	<stop  offset="0.5159" style="stop-color:#7F8897"/>
	<stop  offset="0.6845" style="stop-color:#677181"/>
	<stop  offset="0.8409" style="stop-color:#596474"/>
	<stop  offset="0.9731" style="stop-color:#545F70"/>
</linearGradient>
<path class="st1" d="M48.3,373.2c-9,11.1-25.4,12.7-36.4,3.7c-11.1-9-12.7-25.4-3.7-36.4c9-11.1,25.4-12.7,36.4-3.7
	C55.7,345.8,57.3,362.1,48.3,373.2z M31.9,365.6c-11.8,6.1-20.6,6.1-24.6,5.7c1.1,1.7,2.5,3.2,4,4.6c5.2-0.1,13.1-1.5,22.6-6.3
	c10.3-5.2,16.2-12.6,19.4-17.7c-0.4-2-1-3.9-1.9-5.8C49.5,349.9,44,359.4,31.9,365.6z"/>
<polygon class="st0" points="37.2,332.8 37.8,331.4 43.5,332.5 47.1,334.8 45.1,337.8 "/>
<rect x="21.6" y="346.2" transform="matrix(0.796 -0.6053 0.6053 0.796 -208.1633 85.9323)" class="st0" width="3.6" height="11.1"/>
<polygon class="st0" points="24.8,356.7 27.6,354.5 33.8,363.7 32.1,365 "/>
<polygon class="st0" points="45.1,337.8 47.1,334.8 56,341.2 54.9,343.1 "/>
<polygon class="st0" points="26,357.1 27.6,355.8 101.7,452.8 100.1,454.1 "/>
<rect x="99" y="317.7" transform="matrix(0.5351 -0.8448 0.8448 0.5351 -266.3593 256.6643)" class="st0" width="2.1" height="105.3"/>
<polygon class="st0" points="2.6,354.7 1,354.7 -0.4,360.2 0.1,364.4 3.7,364 "/>
<polygon class="st0" points="3.7,364 0.1,364.4 2.4,375.3 4.4,375 "/>
<rect x="9.5" y="374.7" transform="matrix(0.9908 -0.1354 0.1354 0.9908 -57.7605 5.365)" class="st0" width="2.1" height="105.3"/>
<g>
	
		<linearGradient id="XMLID_8_" gradientUnits="userSpaceOnUse" x1="86.2502" y1="-36.0871" x2="137.4359" y2="-36.0871" gradientTransform="matrix(0.9394 -0.3429 -0.3429 -0.9394 -63.9027 30.0171)">
		<stop  offset="5.376340e-03" style="stop-color:#C4EBFE"/>
		<stop  offset="0.9731" style="stop-color:#0084E0"/>
	</linearGradient>
	<path id="XMLID_205_" class="st2" d="M78.3,32.1C74.7,45.8,60.7,53.9,47,50.3C33.3,46.7,25.2,32.7,28.8,19S46.4-2.8,60.1,0.9
		S81.9,18.5,78.3,32.1z"/>
	
		<linearGradient id="XMLID_9_" gradientUnits="userSpaceOnUse" x1="-168.3506" y1="730.4781" x2="-58.3324" y2="730.4781" gradientTransform="matrix(0.9668 0.2556 0.2556 -0.9668 -24.2095 763.2739)">
		<stop  offset="5.376340e-03" style="stop-color:#C4EBFE"/>
		<stop  offset="0.9731" style="stop-color:#0084E0"/>
	</linearGradient>
	<path id="XMLID_204_" class="st3" d="M80.1,25.1c0,0,2.6,0.8,7.1,2.4c2.2,0.8,4.9,1.9,7.9,3.3c3,1.4,6.5,3,9.7,6
		c0.7,0.8,1.7,1.8,1.7,3.5c0,0.3,0,0.3-0.1,0.7l-0.1,0.4c-0.2,0.4-0.6,0.8-0.8,1c-0.6,0.5-1.1,0.8-1.7,1c-2.3,0.9-4.7,1-7.1,1.2
		c-4.8,0.2-9.7-0.1-14.8-0.8c-10.2-1.3-20.9-3.5-31.4-6.2c-10.6-2.9-21-6.3-30.5-10.2c-4.7-1.9-9.2-4.1-13.3-6.7
		c-2-1.3-4-2.6-5.5-4.5c-0.4-0.5-0.8-1-1-1.7s-0.3-1.6,0.1-2.4c0.1-0.4,1.1-1.4,1.5-1.5c0.6-0.4,1.1-0.5,1.6-0.7
		c4.3-1,8-0.6,11.3-0.4c3.3,0.3,6.2,0.7,8.5,1.1c4.7,0.8,7.3,1.4,7.3,1.4s-2.7-0.3-7.4-0.7c-2.4-0.2-5.2-0.4-8.5-0.5
		c-3.2,0-7.1,0-10.7,1C3.5,12,3,12.1,2.7,12.3c-0.2,0.1-0.4,0.2-0.4,0.3c0,0-0.1,0-0.1,0.1C2.1,12.8,2.1,12.9,2,13
		c-0.2,0.3,0.1,1,0.7,1.8c1.3,1.4,3.2,2.6,5.1,3.8c4,2.2,8.4,4.1,13.1,6c9.4,3.7,19.7,6.9,30.1,9.6c10.4,2.8,20.9,5.1,30.9,6.5
		c5,0.6,9.8,1.2,14.4,1.2c4.2,0,10.3-0.7,6.8-3.9c-2.7-2.7-6-4.5-8.8-6.1c-2.9-1.6-5.5-2.8-7.6-3.8C82.6,26.1,80.1,25.1,80.1,25.1z"
		/>
</g>
<g>
	
		<linearGradient id="XMLID_10_" gradientUnits="userSpaceOnUse" x1="0.5946" y1="434.35" x2="65.3034" y2="434.35" gradientTransform="matrix(1 0 0 -1 0 534)">
		<stop  offset="5.376340e-03" style="stop-color:#FED9A8"/>
		<stop  offset="0.9731" style="stop-color:#E8661E"/>
	</linearGradient>
	<path id="XMLID_165_" class="st4" d="M65.2,99.6c0,3.1-0.4,6.1-1.2,8.9C60.1,122.1,47.7,132,32.9,132c-16.5,0-30.1-12.4-32.1-28.3
		c-0.2-1.3-0.2-2.7-0.2-4C0.5,94.3,1.8,89.4,4,85c5.3-10.5,16.3-17.7,28.9-17.7c13.2,0,24.5,7.9,29.6,19.2
		C64.2,90.5,65.2,94.9,65.2,99.6z"/>
	
		<linearGradient id="XMLID_11_" gradientUnits="userSpaceOnUse" x1="4" y1="455.6996" x2="62.5" y2="455.6996" gradientTransform="matrix(1 0 0 -1 0 534)">
		<stop  offset="5.376340e-03" style="stop-color:#FEC089"/>
		<stop  offset="0.2738" style="stop-color:#F49E6D"/>
		<stop  offset="0.55" style="stop-color:#ED8256"/>
		<stop  offset="0.7924" style="stop-color:#E87148"/>
		<stop  offset="0.9731" style="stop-color:#E66B43"/>
	</linearGradient>
	<path id="XMLID_164_" class="st5" d="M62.5,86.5c-15.6-8-21-4.7-37.7,1.3C15.2,91.2,8.2,88.2,4,85c5.3-10.5,16.3-17.7,28.9-17.7
		C46.1,67.2,57.4,75.1,62.5,86.5z"/>
	
		<linearGradient id="XMLID_12_" gradientUnits="userSpaceOnUse" x1="0.8" y1="416.15" x2="64" y2="416.15" gradientTransform="matrix(1 0 0 -1 0 534)">
		<stop  offset="5.376340e-03" style="stop-color:#FEC089"/>
		<stop  offset="6.488381e-02" style="stop-color:#FBB782"/>
		<stop  offset="0.3174" style="stop-color:#F29666"/>
		<stop  offset="0.5591" style="stop-color:#EB7E53"/>
		<stop  offset="0.7834" style="stop-color:#E77047"/>
		<stop  offset="0.9731" style="stop-color:#E66B43"/>
	</linearGradient>
	<path id="XMLID_163_" class="st6" d="M64,108.5C60.1,122.1,47.7,132,32.9,132c-16.5,0-30.1-12.4-32.1-28.3c4.4,4,11.4,8.3,21.4,7.7
		C39.2,110.3,52.2,98.3,64,108.5z"/>
</g>
<g>
	
		<linearGradient id="XMLID_13_" gradientUnits="userSpaceOnUse" x1="-435.4863" y1="-153.2081" x2="-370.7702" y2="-153.2081" gradientTransform="matrix(-0.1375 -0.9905 -0.9905 0.1375 -174.8329 -193.6829)">
		<stop  offset="5.376340e-03" style="stop-color:#FEA8A8"/>
		<stop  offset="0.9731" style="stop-color:#DE2409"/>
	</linearGradient>
	<path id="XMLID_3_" class="st7" d="M27.9,152.5c3.1-0.4,6.1-0.4,9,0c13.9,2,25.4,13,27.5,27.6c2.3,16.4-8.1,31.6-23.7,35.7
		c-1.3,0.3-2.6,0.6-3.9,0.8c-5.2,0.7-10.3,0.2-15-1.4C10.7,211.3,2,201.5,0.3,189c-1.8-13.1,4.4-25.4,15-31.9
		C19,154.7,23.3,153.1,27.9,152.5z"/>
	
		<linearGradient id="XMLID_14_" gradientUnits="userSpaceOnUse" x1="-431.9807" y1="-131.8927" x2="-373.5249" y2="-131.8927" gradientTransform="matrix(-0.1375 -0.9905 -0.9905 0.1375 -174.8329 -193.6829)">
		<stop  offset="5.376340e-03" style="stop-color:#FE8C8C"/>
		<stop  offset="7.460679e-02" style="stop-color:#FA8381"/>
		<stop  offset="0.3449" style="stop-color:#EA635A"/>
		<stop  offset="0.5937" style="stop-color:#DF4C3E"/>
		<stop  offset="0.8111" style="stop-color:#D83E2D"/>
		<stop  offset="0.9731" style="stop-color:#D63927"/>
	</linearGradient>
	<path id="XMLID_2_" class="st8" d="M15.3,157.1c-5.8,16.6-1.7,21.4,6.5,37.2c4.7,9,2.7,16.3,0.1,20.9C10.7,211.3,2,201.5,0.3,189
		C-1.5,175.9,4.8,163.6,15.3,157.1z"/>
	
		<linearGradient id="XMLID_15_" gradientUnits="userSpaceOnUse" x1="-435.2301" y1="-171.3739" x2="-372.0088" y2="-171.3739" gradientTransform="matrix(-0.1375 -0.9905 -0.9905 0.1375 -174.8329 -193.6829)">
		<stop  offset="5.376340e-03" style="stop-color:#FE8C8C"/>
		<stop  offset="0.1504" style="stop-color:#F47873"/>
		<stop  offset="0.379" style="stop-color:#E75D52"/>
		<stop  offset="0.5981" style="stop-color:#DE4A3A"/>
		<stop  offset="0.8012" style="stop-color:#D83E2C"/>
		<stop  offset="0.9731" style="stop-color:#D63A27"/>
	</linearGradient>
	<path id="XMLID_1_" class="st9" d="M36.9,152.5c13.9,2,25.4,13,27.5,27.6c2.3,16.4-8.1,31.6-23.7,35.7c3.4-4.9,6.7-12.5,4.7-22.2
		C42.1,176.8,28.4,165.6,36.9,152.5z"/>
</g>
<g>
	
		<linearGradient id="XMLID_16_" gradientUnits="userSpaceOnUse" x1="-136.5571" y1="58.6339" x2="-71.8374" y2="58.6339" gradientTransform="matrix(0.7071 -0.7071 -0.7071 -0.7071 148.0813 242.8888)">
		<stop  offset="5.376340e-03" style="stop-color:#56C9FE"/>
		<stop  offset="0.9731" style="stop-color:#0598FE"/>
	</linearGradient>
	<path id="XMLID_6_" class="st10" d="M55.8,252.2c2.2,2.2,4,4.6,5.4,7.2c6.8,12.3,5,28.1-5.4,38.6c-11.7,11.7-30.1,12.6-42.7,2.7
		c-1-0.8-2.1-1.7-3-2.7c-3.7-3.7-6.3-8.1-7.9-12.8c-3.7-11.2-1-24,7.9-33c9.3-9.3,22.9-11.8,34.5-7.3
		C48.7,246.5,52.5,248.9,55.8,252.2z"/>
	
		<linearGradient id="XMLID_17_" gradientUnits="userSpaceOnUse" x1="-133.0027" y1="79.8924" x2="-74.5951" y2="79.8924" gradientTransform="matrix(0.7071 -0.7071 -0.7071 -0.7071 148.0813 242.8888)">
		<stop  offset="5.376340e-03" style="stop-color:#93DBFE"/>
		<stop  offset="1.491496e-02" style="stop-color:#91DAFE"/>
		<stop  offset="0.2473" style="stop-color:#5FCBFE"/>
		<stop  offset="0.4667" style="stop-color:#38BFFE"/>
		<stop  offset="0.6673" style="stop-color:#1CB7FE"/>
		<stop  offset="0.8426" style="stop-color:#0BB2FE"/>
		<stop  offset="0.9731" style="stop-color:#05B0FE"/>
	</linearGradient>
	<path id="XMLID_5_" class="st11" d="M44.6,244.9c-16.7,5.4-18.1,11.6-25.7,27.6c-4.3,9.2-11.4,12-16.6,12.7c-3.7-11.2-1-24,7.9-33
		C19.4,242.9,33,240.4,44.6,244.9z"/>
	
		<linearGradient id="XMLID_18_" gradientUnits="userSpaceOnUse" x1="-136.2555" y1="40.355" x2="-73.0395" y2="40.355" gradientTransform="matrix(0.7071 -0.7071 -0.7071 -0.7071 148.0813 242.8888)">
		<stop  offset="5.376341e-03" style="stop-color:#93DBFE"/>
		<stop  offset="6.037309e-02" style="stop-color:#86D7FE"/>
		<stop  offset="0.2733" style="stop-color:#58C9FE"/>
		<stop  offset="0.4772" style="stop-color:#34BEFE"/>
		<stop  offset="0.6672" style="stop-color:#1AB6FE"/>
		<stop  offset="0.8381" style="stop-color:#0AB2FE"/>
		<stop  offset="0.9731" style="stop-color:#05B0FE"/>
	</linearGradient>
	<path id="XMLID_4_" class="st12" d="M61.3,259.4c6.8,12.3,5,28.1-5.4,38.6c-11.7,11.7-30.1,12.6-42.7,2.7c5.9-0.3,14-2.2,20.6-9.7
		C45,278.2,45.7,260.5,61.3,259.4z"/>
</g>
</svg>
