<?xml version="1.0" encoding="utf-8"?>
<!-- Generator: Adobe Illustrator 22.0.1, SVG Export Plug-In . SVG Version: 6.00 Build 0)  -->
<svg version="1.1" id="OBJECTS" xmlns="http://www.w3.org/2000/svg" xmlns:xlink="http://www.w3.org/1999/xlink" x="0px" y="0px"
	 width="251px" height="500px" viewBox="0 0 251 500" style="enable-background:new 0 0 251 500;" xml:space="preserve">
<style type="text/css">
	.st0{fill:url(#XMLID_2_);}
	.st1{fill:url(#XMLID_3_);}
	.st2{fill:url(#XMLID_4_);}
</style>
<g>
	
		<linearGradient id="XMLID_2_" gradientUnits="userSpaceOnUse" x1="268.2311" y1="-313.9979" x2="332.9543" y2="-313.9979" gradientTransform="matrix(0.7071 0.7071 0.7071 -0.7071 42.4734 -12.6324)">
		<stop  offset="5.376340e-03" style="stop-color:#545B99"/>
		<stop  offset="0.9731" style="stop-color:#1F2861"/>
	</linearGradient>
	<path id="XMLID_24_" class="st0" d="M55.9,444.8c-2.2,2.2-4.6,4-7.2,5.4c-12.3,6.8-28.1,5-38.6-5.4c-11.7-11.7-12.6-30.1-2.7-42.7
		c0.8-1,1.7-2.1,2.7-3c3.7-3.7,8.1-6.3,12.8-7.9c11.2-3.7,24-1,33,7.9c9.3,9.3,11.8,22.9,7.3,34.5C61.7,437.7,59.3,441.5,55.9,444.8
		z"/>
	
		<linearGradient id="XMLID_3_" gradientUnits="userSpaceOnUse" x1="271.7821" y1="-292.6687" x2="330.1897" y2="-292.6687" gradientTransform="matrix(0.7071 0.7071 0.7071 -0.7071 42.4734 -12.6324)">
		<stop  offset="5.376340e-03" style="stop-color:#7178A6"/>
		<stop  offset="0.1029" style="stop-color:#676FA0"/>
		<stop  offset="0.4587" style="stop-color:#49518D"/>
		<stop  offset="0.7613" style="stop-color:#363F82"/>
		<stop  offset="0.9731" style="stop-color:#2F397E"/>
	</linearGradient>
	<path id="XMLID_22_" class="st1" d="M63.3,433.6c-5.4-16.7-11.6-18.1-27.6-25.7c-9.2-4.3-12-11.4-12.7-16.6c11.2-3.7,24-1,33,7.9
		C65.3,408.4,67.7,422,63.3,433.6z"/>
	
		<linearGradient id="XMLID_4_" gradientUnits="userSpaceOnUse" x1="268.5327" y1="-332.2768" x2="331.7487" y2="-332.2768" gradientTransform="matrix(0.7071 0.7071 0.7071 -0.7071 42.4734 -12.6324)">
		<stop  offset="5.376341e-03" style="stop-color:#7178A6"/>
		<stop  offset="0.1869" style="stop-color:#5E669A"/>
		<stop  offset="0.4874" style="stop-color:#444D8B"/>
		<stop  offset="0.7585" style="stop-color:#343E81"/>
		<stop  offset="0.9731" style="stop-color:#2F397E"/>
	</linearGradient>
	<path id="XMLID_14_" class="st2" d="M48.7,450.3c-12.3,6.8-28.1,5-38.6-5.4c-11.7-11.7-12.6-30.1-2.7-42.7c0.3,5.9,2.2,14,9.7,20.6
		C29.9,434,47.7,434.7,48.7,450.3z"/>
</g>
</svg>
