<?xml version="1.0" encoding="utf-8"?>
<!-- Generator: Adobe Illustrator 22.0.1, SVG Export Plug-In . SVG Version: 6.00 Build 0)  -->
<svg version="1.1" xmlns="http://www.w3.org/2000/svg" xmlns:xlink="http://www.w3.org/1999/xlink" x="0px" y="0px" width="2964px"
	 height="2336.9px" viewBox="0 0 2964 2336.9" style="enable-background:new 0 0 2964 2336.9;" xml:space="preserve">
<style type="text/css">
	.st0{fill-rule:evenodd;clip-rule:evenodd;fill:#263681;}
</style>
<g id="New_Layer">
	<g>
		<path class="st0" d="M2944.7,7.4c-9.3,4.1-18.9,8-21.5,8.8c-2.6,0.8-6.9,2.3-9.7,3.2c-2.7,1-6.6,2.3-8.5,3s-6,2-9,2.9
			s-8.2,2.5-11.6,3.5c-3.3,1.1-7.2,2.2-8.7,2.5c-1.5,0.2-3,0.7-3.5,1c-0.5,0.3-1.9,0.7-3.3,1c-2.1,0.4-12.9,3.2-21.4,5.6
			c-1.6,0.5-4.6,1.3-6.5,1.9c-7.4,2.1-15.8,4.9-22,7.5c-21.9,9.3-33.6,14.9-42.1,20.4c-1.5,0.9-5.1,3.1-8,4.9
			c-13.2,7.9-32.3,23.6-47.7,39.3c-17.3,17.6-30.5,34.2-56.2,71c-23.7,34-33.9,46.9-47.4,60.3c-17.3,17.2-36.6,29-57.6,35.5
			c-3,0.9-42.8,10.8-47,11.7c-0.8,0.2-4.6,1.1-8.5,2c-3.8,0.9-7.7,1.8-8.5,2c-0.8,0.2-4.6,1.1-8.5,2c-3.8,0.9-7.7,1.8-8.5,2
			c-1.2,0.3-9.2,2.2-16.5,3.9c-2.1,0.5-7.2,1.8-15,3.8c-4.4,1.1-8.7,2.1-9.5,2.3c-0.8,0.2-5.1,1.3-9.5,2.5c-4.4,1.2-9.3,2.5-11,3
			c-1.6,0.4-3.7,1-4.5,1.3c-0.8,0.2-6.2,1.9-12,3.7c-24.8,7.6-53.2,19.4-72,29.8c-7.4,4.1-13.7,7.8-14,8.2c-0.3,0.3-2.3,1.7-4.5,3
			c-2.2,1.3-4.2,2.7-4.5,3c-0.3,0.3-2.1,1.6-4,2.7c-1.9,1.2-4.4,3-5.5,4s-4.3,3.6-7,5.8c-18.3,14.5-36.9,35-53.5,58.9
			c-12,17.2-15.2,22.8-20.6,34.7c-9.8,22-14.9,41.1-26.8,101.3c-4.7,23.5-10.2,49.1-12.2,56.9c-11.2,43.5-25.9,71.4-46.3,87.9
			c-11.9,9.5-14.3,10.6-68.1,30c-39.9,14.3-60.3,22.5-77.5,30.8c-41.3,20.1-68.9,43-89.8,74.3c-12.5,18.6-20.7,37-29.7,66.1
			c-16.4,53.3-35.3,93.7-58.3,124.6c-9.5,12.6-28,30.9-39.7,39.2c-25,17.7-48.7,26.5-101.5,37.9c-44.6,9.5-56.2,13.1-79,24.4
			c-30,14.9-50.4,34-73.7,68.8c-32.5,48.8-59.5,74.8-96.8,93.5c-31.3,15.7-61.9,22.7-105,23.9c-30.4,0.8-55.9-1.1-101.9-7.7
			c-53.8-7.8-93.5-5.4-135.6,8c-31.1,10-52.3,20.7-104,52.6c-44.4,27.4-68.6,38.8-93.5,44.1c-6.2,1.3-12.6,1.8-24,1.7
			c-16.8-0.1-10.7,0.8-92.5-13.4c-66.5-11.6-85.9-13.9-120.1-14.7c-27.8-0.6-44,0.4-65,4.3c-35.7,6.5-63.1,17.9-103.9,43.4
			c-50.8,31.7-86.8,49.7-107,53.6c-4.7,0.9-6.1,1.3-8.7,2.3c-1.6,0.6-2.8,0.8-2.8,0.5c0-0.4-0.7-0.1-1.5,0.6s-1.5,1-1.5,0.7
			c0-0.3-1.6,0.1-3.5,0.9c-1.9,0.8-3.5,1.2-3.5,0.9s-1.1,0.2-2.5,1.1s-2.5,1.3-2.5,0.9c0-0.3-1.3,0.3-3,1.5c-1.6,1.2-3,1.9-3,1.5
			c0-0.3-1.3,0.1-3,1c-1.6,0.8-3.3,1.6-3.7,1.6c-0.5,0.1-2,1-3.5,2c-1.4,1-3.1,1.9-3.6,1.9c-0.6,0-4.7,2.3-9.1,5
			c-4.5,2.8-8.1,4.7-8.1,4.3c0-0.5-0.5,0-1.1,1c-0.6,0.9-1.4,1.5-1.9,1.2c-0.4-0.3-1.1,0.2-1.4,1.1c-0.3,0.8-1,1.2-1.6,0.9
			c-0.5-0.3-1-0.1-1,0.4c0,0.6-0.7,1.1-1.5,1.1s-1.5,0.5-1.5,1.2c0,0.6-0.3,0.8-0.6,0.5c-0.4-0.4-1.9,0.2-3.3,1.2s-5.3,3.3-8.6,5.1
			s-10,5.9-14.9,9.2c-4.9,3.2-9.1,5.8-9.4,5.8s-1.5,0.8-2.6,1.8c-2.3,2-23.5,15.4-44.6,28.2c-21.4,12.9-61.9,32.1-87,41.2
			c-18,6.5-56.8,17.9-71,20.8c-17.4,3.6-27.9,6.9-38.2,11.7l-9.8,4.6v335.9v335.8h1482h1482V1168.4c0-934.2-0.3-1168.5-1.2-1168.4
			C2962.1,0,2953.9,3.4,2944.7,7.4z"/>
	</g>
</g>
<g id="MasterLayer_1">
</g>
</svg>
