<svg
        xmlns="http://www.w3.org/2000/svg"
        xmlns:xlink="http://www.w3.org/1999/xlink"
        width="11px" height="17px">
    <path fill-rule="evenodd"  fill="rgb(128, 99, 198)"
          d="M10.498,7.448 L2.717,0.430 C1.992,0.029 1.150,-0.090 0.345,0.095 C0.219,0.125 0.120,0.224 0.090,0.352 C-0.090,1.105 0.057,1.901 0.546,2.597 L7.093,8.502 L0.496,14.466 C0.042,15.109 -0.105,15.916 0.091,16.682 C0.123,16.810 0.224,16.906 0.350,16.933 C0.581,16.984 0.817,17.010 1.052,17.010 C1.636,17.010 2.224,16.852 2.780,16.531 L10.495,9.561 C10.555,9.509 10.611,9.451 10.660,9.392 C11.141,8.806 11.066,7.932 10.498,7.448 Z"/>
</svg>
