<svg width="1920" height="360" viewBox="0 0 1920 360" fill="none" xmlns="http://www.w3.org/2000/svg">
<path fill-rule="evenodd" clip-rule="evenodd" d="M1920 360L1840 330C1760 300 1600 240 1440 234C1280 228 1120 276 960 258C800 240 640 156 480 126C320 96 160 120 80 132L1.88833e-05 144L3.14722e-05 1.52537e-05L80 2.22476e-05C160 2.92414e-05 320 4.3229e-05 480 5.72167e-05C640 7.12043e-05 800 8.5192e-05 960 9.91796e-05C1120 0.000113167 1280 0.000127155 1440 0.000141143C1600 0.00015513 1760 0.000169118 1840 0.000176112L1920 0.000183105L1920 360Z" fill="#F2D035" fill-opacity="0.9"/>
</svg>
