<svg width="94" height="50" viewBox="0 0 94 50" fill="none" xmlns="http://www.w3.org/2000/svg">
<rect width="94" height="50" rx="3" fill="#0102B5"/>
<path d="M81.7879 24.251H81.7702H81.4338C80.9558 24.251 80.6017 24.3217 80.3538 24.4631C80.1413 24.5869 79.9289 24.799 79.7518 25.0819C79.5748 25.3647 79.3092 25.8951 78.9728 26.6199C78.6541 27.327 78.4239 27.7689 78.2646 27.9281C78.1052 28.0872 77.8928 28.1402 77.6449 28.1402L78.2646 24.251H76.8305L75.3433 33.4613H76.7597L77.4325 29.4484C77.822 29.4837 78.1052 29.6605 78.2469 29.9964C78.3531 30.3853 78.4062 30.5798 78.4062 30.6151L79.0082 33.4613H80.4954L79.8403 30.5621C79.8403 30.5091 79.8403 30.456 79.8226 30.403C79.6633 29.5191 79.3446 28.9357 78.8843 28.7589C79.1498 28.6529 79.38 28.4407 79.6102 28.1225C79.8403 27.8043 80.159 27.1856 80.5308 26.3017C80.6548 26.0188 80.761 25.8067 80.8672 25.7536C80.9381 25.6829 81.0797 25.6299 81.2567 25.6299H81.4869L81.7702 24.357L81.7879 24.251Z" fill="white"/>
<path d="M85.63 31.5698C85.3113 31.888 84.9572 32.0472 84.5854 32.0472C84.1959 32.0472 83.8595 31.8704 83.5585 31.4461C83.2929 31.0572 83.169 30.4738 83.169 29.749C83.169 29.0772 83.2752 28.3878 83.4877 27.716C83.7001 27.0442 83.9657 26.5492 84.3198 26.231C84.6562 25.9128 85.028 25.7537 85.4529 25.7537C85.8247 25.7537 86.108 25.8774 86.3205 26.1249C86.5506 26.3548 86.6923 26.726 86.7631 27.274L88.1441 27.0972C88.0733 26.178 87.8077 25.4532 87.3297 24.9228C86.8516 24.3748 86.232 24.1096 85.4706 24.1096C84.7978 24.1096 84.1605 24.3394 83.5939 24.8167C83.0096 25.2587 82.5493 25.9305 82.2306 26.779C81.965 27.4508 81.8057 28.1933 81.7526 28.9711C81.7526 29.201 81.7349 29.4484 81.7349 29.6783C81.7349 29.9081 81.7526 30.1556 81.7526 30.35C81.8234 31.3223 82.0713 32.0825 82.4608 32.6305C82.9565 33.3377 83.6293 33.6735 84.4792 33.6735C85.2582 33.6735 85.9133 33.3907 86.4975 32.8427C87.0641 32.2946 87.489 31.5168 87.7723 30.4738L86.3028 30.1909C86.1611 30.792 85.9487 31.2516 85.63 31.5698Z" fill="white"/>
<path d="M65.0744 24.251H65.0567H60.2232L59.2318 30.4737C59.214 30.5268 59.214 30.5798 59.214 30.6328C59.0901 31.5167 58.8245 31.9941 58.3996 31.9941C58.3819 31.9941 58.2226 31.9764 57.957 31.9233L57.6914 33.4967C58.0632 33.6028 58.3996 33.6558 58.6652 33.6558C59.0901 33.6558 59.3911 33.5321 59.6567 33.3199C59.8868 33.0901 60.0993 32.7542 60.2586 32.2769C60.418 31.7996 60.5419 31.2869 60.6482 30.7035L61.4272 25.789H63.3747L62.1177 33.4614H63.5518L65.039 24.2687L65.0744 24.251Z" fill="white"/>
<path d="M72.0324 24.0919C71.8731 24.0919 71.7492 24.0919 71.6075 24.1096C70.8816 24.2157 70.2442 24.5516 69.7308 25.188C69.0757 25.9128 68.6862 26.8674 68.5091 28.0695H67.3583L67.978 24.251H66.5439L65.0566 33.4437V33.4614H66.4908L67.0927 29.6429H68.2436C68.2436 29.749 68.2436 29.8197 68.2436 29.8727C68.2436 30.8097 68.5091 31.6759 68.9695 32.4537C69.4652 33.2316 70.2265 33.6028 71.218 33.6028C71.3419 33.6028 71.4836 33.6028 71.6075 33.6028C72.6344 33.4791 73.4311 32.931 73.98 31.9234C74.5997 30.792 74.9007 29.5015 74.9007 27.9988C74.9007 26.726 74.6351 25.7714 74.1216 25.0819C73.5728 24.4455 72.8646 24.0919 72.0324 24.0919ZM72.9 30.9334C72.5636 31.5521 72.121 31.9234 71.6252 32.0118C71.519 32.0295 71.4128 32.0295 71.3419 32.0295C70.8639 32.0295 70.4744 31.8173 70.1911 31.4107C69.8724 30.9688 69.7485 30.4207 69.7485 29.7136C69.7485 28.6352 69.9609 27.6983 70.3859 26.8851C70.7223 26.231 71.1472 25.8421 71.6429 25.736C71.7492 25.7183 71.8554 25.683 71.9616 25.683C72.3865 25.683 72.7406 25.8951 73.0593 26.284C73.378 26.6553 73.5374 27.274 73.5374 28.0872C73.502 29.2363 73.2895 30.2086 72.9 30.9334Z" fill="white"/>
<path d="M53.6542 23.3141C53.1231 23.155 52.5565 23.0489 51.9722 23.0489C51.4234 23.0489 50.8922 23.155 50.3788 23.3141C48.0771 24.0212 46.3774 26.231 46.3774 28.8474C46.3774 31.4637 48.0771 33.6735 50.3788 34.416C50.9099 34.5751 51.4234 34.6458 51.9722 34.6458C52.5388 34.6458 53.1231 34.5751 53.6542 34.3807C55.9205 33.6558 57.6025 31.4284 57.6025 28.8474C57.6025 26.2663 55.9205 24.0389 53.6542 23.3141ZM51.6181 33.426C51.2286 33.373 50.8037 33.2669 50.3965 33.1078C49.9716 32.931 49.5289 32.6835 49.1748 32.33C49.5998 32.1002 50.007 31.888 50.3965 31.7466C50.8214 31.5875 51.2286 31.5168 51.6181 31.4814C51.6181 32.1355 51.6181 32.7719 51.6181 33.426ZM51.6181 30.6859C51.2286 30.7036 50.8037 30.792 50.3965 30.898C49.7945 31.0748 49.1925 31.3753 48.5906 31.7643C48.0063 31.0395 47.7053 30.1909 47.6168 29.254H50.3965H51.6181V30.6859ZM51.6181 28.4408H50.3965H47.6168C47.6876 27.5038 47.9886 26.6729 48.5906 25.9835C49.1925 26.3547 49.7945 26.6022 50.3965 26.7967C50.8214 26.9027 51.2109 26.9735 51.6181 27.0265V28.4408ZM51.6181 26.2133C51.2286 26.1956 50.8037 26.1072 50.3965 25.9481C49.9716 25.8244 49.5821 25.6122 49.1748 25.3471C49.5466 25.0112 49.9539 24.746 50.3965 24.5869C50.8214 24.4101 51.2286 24.3217 51.6181 24.2687C51.6181 24.9405 51.6181 25.5946 51.6181 26.2133ZM52.3972 24.2864C52.8221 24.3394 53.2293 24.4101 53.6542 24.6046C54.0792 24.7814 54.4864 25.0289 54.8759 25.3824C54.451 25.6122 54.0437 25.8244 53.6542 25.9658C53.2293 26.1249 52.8221 26.1956 52.3972 26.231C52.3972 25.5946 52.3972 24.9405 52.3972 24.2864ZM53.6542 33.1078C53.2293 33.2669 52.8221 33.373 52.3972 33.426C52.3972 32.7719 52.3972 32.1532 52.3972 31.4991C52.8221 31.5168 53.2293 31.6052 53.6542 31.7643C54.0437 31.888 54.4687 32.1002 54.8759 32.3477C54.4864 32.6835 54.0792 32.931 53.6542 33.1078ZM55.4601 31.7466C54.8582 31.3577 54.2562 31.0748 53.6542 30.9157C53.2293 30.792 52.8221 30.7036 52.3972 30.6859V29.254H53.6542H56.4162C56.3277 30.1909 56.0267 31.0218 55.4601 31.7466ZM53.6542 28.4408H52.3972V27.0265C52.8221 26.9735 53.2293 26.9027 53.6542 26.7967C54.2562 26.6199 54.8582 26.3547 55.4601 25.9835C56.0267 26.6553 56.3277 27.5038 56.4339 28.4408H53.6542Z" fill="white"/>
<path d="M40.8891 24.251L40.6235 25.789H42.7481L41.4911 33.479H42.9783L44.2354 25.789H46.3246L46.5901 24.251H40.8891Z" fill="white"/>
<path d="M29.4162 24.251L29.3099 24.4631L25.3086 33.479H26.8489L27.7165 31.446H29.3099H30.5847L30.8149 33.479H32.2313L31.0627 24.2687H29.4162V24.251ZM29.3099 29.8903H28.2299L29.3099 27.5922L29.9827 26.1779L30.4077 29.8903H29.3099Z" fill="white"/>
<path d="M39.5788 27.8043C39.809 27.4331 39.9152 26.9911 39.9152 26.4784C39.9152 26.1072 39.8621 25.7713 39.7381 25.4531C39.6142 25.1349 39.4195 24.8874 39.1716 24.6929C38.9414 24.5162 38.6227 24.3747 38.2863 24.304C38.0562 24.2863 37.6844 24.251 37.1709 24.251H36.9939H34.6745L33.1519 33.4613H36.5512C36.7106 33.4613 36.8699 33.4613 36.9939 33.4613C37.5427 33.4083 37.9853 33.3022 38.3571 33.1431C38.7821 32.9133 39.1185 32.5598 39.384 32.0648C39.6142 31.5344 39.7559 31.0217 39.7559 30.4737C39.7559 30.0494 39.6496 29.6605 39.4372 29.36C39.2247 29.0241 38.9414 28.7766 38.5696 28.6529C39.0299 28.4761 39.3663 28.1932 39.5788 27.8043ZM38.0208 31.3576C37.9145 31.5875 37.7375 31.7466 37.5427 31.8526C37.4188 31.9057 37.224 31.9233 36.9939 31.9587C36.8168 31.9764 36.5689 31.9764 36.3211 31.9764H34.8692L35.2588 29.5721H36.9762H37.0293C37.4542 29.5721 37.7552 29.6782 37.9145 29.855C38.0916 30.0671 38.1978 30.3323 38.1978 30.6151C38.2155 30.8803 38.1447 31.1278 38.0208 31.3576ZM38.2686 27.3623C38.1624 27.5922 37.9853 27.7336 37.7729 27.8397C37.5958 27.9104 37.3303 27.9457 36.9939 27.9634C36.8876 27.9634 36.7814 27.9634 36.6752 27.9634H35.5243L35.8961 25.789H36.9939H37.047C37.4719 25.789 37.7198 25.8067 37.826 25.842C38.0385 25.8951 38.1978 26.0011 38.304 26.1249C38.4103 26.284 38.4634 26.4608 38.4634 26.7083C38.4634 26.9381 38.4103 27.1502 38.2686 27.3623Z" fill="white"/>
<path d="M15.7832 21.0159L17.4298 23.5969L13.0389 30.4914H21.9268L23.8213 33.479H7.88672L15.7832 21.0159Z" fill="#FFF200"/>
<path d="M15.7832 14.7047L25.3616 29.8373L14.1189 29.8727L16.031 26.8674H20.2271L15.7832 19.8491L9.40934 29.8727L6.18701 29.8373L15.7832 14.7047Z" fill="#BCBEC0"/>
</svg>
