<svg width="94" height="50" viewBox="0 0 94 50" fill="none" xmlns="http://www.w3.org/2000/svg">
<rect width="94" height="50" rx="3" fill="white"/>
<path d="M67.8073 22.6418C65.9474 21.9985 65.367 21.6179 65.367 20.9221C65.367 20.1476 66.0134 19.6881 67.161 19.6881C68.0975 19.6881 69.0341 19.9507 69.7332 20.2263L70.0366 16.8657C69.1792 16.6294 68.1371 16.4457 67.0027 16.4457C63.2565 16.4457 60.8425 18.5723 60.8425 21.3684C60.8162 23.1538 62.0165 24.8472 65.1428 25.8974C66.9103 26.4881 67.372 26.8557 67.372 27.6171C67.372 28.3916 66.7784 28.8773 65.3538 28.8773C63.9688 28.8773 62.1748 28.2603 61.3042 27.7352L60.4732 31.0958C61.6208 31.7128 63.3752 32.146 65.367 32.146C69.7068 32.146 71.9229 30.085 71.9229 27.2758C71.8965 25.0704 70.6961 23.6263 67.8073 22.6418ZM79.191 28.3391C77.7664 28.3391 77.3311 27.5121 77.3311 25.6873V12.7043L72.7275 13.7545V16.787H70.9731L70.6565 20.2395H72.7407V26.3831C72.7407 28.5097 73.176 29.9538 74.0466 30.8464C74.7853 31.6209 76.0516 32.146 77.5685 32.146C78.9008 32.146 80.0088 31.9885 80.6288 31.7391L80.6024 28.1947C80.2463 28.2603 79.7846 28.326 79.191 28.3391ZM77.7004 20.2395H80.5892V16.787H77.7004V20.2395ZM25.4515 24.5846C25.3592 22.2742 25.28 19.4912 25.28 16.6951H25.1877C24.5677 19.1499 23.7235 21.8804 22.9452 24.1252L20.4917 31.6209H16.9566L14.8065 24.1777C14.1469 21.9198 13.461 19.1893 12.9861 16.6819H12.9334C12.8147 19.268 12.7223 22.2348 12.5772 24.6372L12.2211 31.9229H8L9.27951 12.7175H15.3341L17.2995 19.1236C17.9195 21.3422 18.5527 23.7445 19.0012 25.9893H19.0935C19.6607 23.7707 20.3466 21.224 21.0062 19.0974L23.1563 12.7175H29.0922L30.2002 31.9229H25.7549L25.4515 24.5846ZM50.369 25.8055C50.5273 27.7483 52.44 28.6673 54.6428 28.6673C56.2521 28.6673 57.5448 28.4572 58.8243 28.0503L59.4443 31.2271C57.901 31.8441 56.0147 32.146 53.9701 32.146C48.8389 32.146 45.8973 29.1924 45.8973 24.4796C45.8973 20.6596 48.2849 16.4457 53.5348 16.4457C58.4286 16.4457 60.2753 20.2263 60.2753 23.9545C60.2753 24.7553 60.183 25.4642 60.117 25.8055H50.369ZM55.9092 22.6024C55.9092 21.4603 55.4079 19.5568 53.2446 19.5568C51.266 19.5568 50.4613 21.3422 50.3426 22.6024H55.9092Z" fill="#0862AF"/>
<path d="M83.808 12.7306L87.0002 18.5067L83.808 24.309H80.5762L83.7684 18.5067L80.5762 12.7306H83.808C83.808 12.7175 83.808 12.7175 83.808 12.7306ZM44.3805 37.607H31.4271V34.404H44.3805V37.607ZM35.2261 25.7924C35.3844 27.7352 37.2971 28.6542 39.4999 28.6542C41.1092 28.6542 42.4019 28.4441 43.6814 28.0372L44.3014 31.214C42.7581 31.831 40.8718 32.1329 38.8272 32.1329C33.696 32.1329 30.7544 29.1792 30.7544 24.4665C30.7544 20.6464 33.1419 16.4325 38.3919 16.4325C43.2857 16.4325 45.1324 20.2132 45.1324 23.9414C45.1324 24.7422 45.0401 25.4511 44.9741 25.7924H35.2261ZM40.7662 22.5893C40.7662 21.4472 40.265 19.5437 38.1017 19.5437C36.1231 19.5437 35.3184 21.3291 35.1865 22.5893H40.7662Z" fill="#ED1C24"/>
</svg>
