<svg width="94" height="50" viewBox="0 0 94 50" fill="none" xmlns="http://www.w3.org/2000/svg">
<rect width="94" height="50" rx="3" fill="#FECC00"/>
<g clip-path="url(#clip0)">
<path d="M32.4745 23.3519C32.1157 23.8237 31.5153 24.6439 31.15 25.1229C30.9645 25.3665 30.6295 25.8088 31.7401 25.8088C32.9151 25.8088 37.5872 25.8088 37.5872 25.8088C37.5872 25.8088 38.5296 24.564 39.3196 23.5229C40.3942 22.1066 39.4126 19.1597 35.5707 19.1597C32.1321 19.1597 20.4406 19.1597 20.4406 19.1597L17.8172 22.6206C17.8172 22.6206 31.4172 22.6206 32.1152 22.6206C32.8371 22.6206 32.8273 22.8873 32.4745 23.3519ZM28.179 26.6626C27.0684 26.6626 27.4034 26.2194 27.5889 25.9758C27.9543 25.4967 28.5644 24.6851 28.9233 24.2133C29.2765 23.7488 29.2858 23.4821 28.563 23.4821C27.8655 23.4821 22.0239 23.4821 22.0239 23.4821L16.7552 30.4347C16.7552 30.4347 26.1653 30.4347 29.604 30.4347C33.8477 30.4347 36.2103 27.6321 36.9387 26.6631C36.9387 26.6626 29.3536 26.6626 28.179 26.6626ZM36.5374 30.4347H44.0749L46.9324 26.6621L39.3958 26.6631C39.3935 26.6626 36.5374 30.4347 36.5374 30.4347ZM55.9851 19.1597L53.094 22.9726H49.73L52.6197 19.1597H45.0846L40.0433 25.8088H58.4795L63.5193 19.1597H55.9851ZM47.4388 30.4347H54.9735L57.8324 26.6631H50.2977C50.2949 26.6626 47.4388 30.4347 47.4388 30.4347ZM6 28.1506V28.9517H16.4973L17.1037 28.1506H6ZM18.2321 26.6626H6V27.4628H17.6242L18.2321 26.6626ZM6 30.4347H15.3727L15.9764 29.6381H6V30.4347ZM77.0497 28.9513H88.1114V28.1501H77.6571L77.0497 28.9513ZM75.9261 30.4347H88.1114V29.6381H76.5293L75.9261 30.4347ZM78.7836 26.6626L78.1776 27.4637H88.1114V26.6626H78.7836ZM68.9142 25.8088L73.9549 19.1597H65.9745C65.9717 19.1597 60.93 25.8088 60.93 25.8088H68.9142ZM60.2839 26.6626C60.2839 26.6626 59.733 27.3934 59.4653 27.7455C58.5192 28.9867 59.356 30.4347 62.4443 30.4347C66.0119 30.4347 74.5455 30.4347 74.5455 30.4347L77.4044 26.6631H60.2839V26.6626Z" fill="#D50029"/>
</g>
<defs>
<clipPath id="clip0">
<rect x="6" y="16" width="82.1114" height="17.5953" fill="white"/>
</clipPath>
</defs>
</svg>
