<svg width="94" height="50" viewBox="0 0 94 50" fill="none" xmlns="http://www.w3.org/2000/svg">
<path d="M0 3C0 1.34315 1.34315 0 3 0H91C92.6569 0 94 1.34315 94 3V47C94 48.6569 92.6569 50 91 50H3C1.34315 50 0 48.6569 0 47V3Z" fill="white"/>
<g clip-path="url(#clip0)">
<path fill-rule="evenodd" clip-rule="evenodd" d="M41.6304 15.8965C41.6304 15.8965 41.6304 15.8965 43.2943 15.8965C43.9006 15.8965 44.2061 16.2026 44.2061 16.8935C44.2061 16.8935 44.2061 16.8935 44.2061 19.3417C44.2061 19.3417 44.2061 19.3417 47.4655 19.3417C47.4655 19.3417 47.4655 19.3417 47.4655 16.8935C47.4655 16.2026 47.7664 15.8965 48.4502 15.8965C48.4502 15.8965 48.4502 15.8965 50.0412 15.8965C50.0412 15.8965 50.0412 15.8965 50.0412 17.5055C50.0412 17.5055 50.0412 17.5055 49.362 17.5055L49.2845 17.5844C49.2845 17.5844 49.2845 17.5844 49.2845 24.4747C49.2845 24.4747 49.2845 24.4747 47.4655 24.4747C47.4655 24.4747 47.4655 24.4747 47.4655 21.0296C47.4655 21.0296 47.4655 21.0296 44.2061 21.0296C44.2061 21.0296 44.2061 21.0296 44.2061 24.4747C44.2061 24.4747 44.2061 24.4747 42.3871 24.4747C42.3871 24.4747 42.3871 24.4747 42.3871 17.5844C42.3871 17.5844 42.3871 17.5055 42.3096 17.5055C42.3096 17.5055 42.3096 17.5055 41.6304 17.5055C41.6304 17.5055 41.6304 17.5055 41.6304 15.8965Z" fill="#ED1C24"/>
<path fill-rule="evenodd" clip-rule="evenodd" d="M54.814 15.7435L54.8551 15.7482V17.5148L54.814 17.5055C53.451 17.5055 52.3888 18.6555 52.3888 20.1115C52.3888 21.6416 53.451 22.8657 54.814 22.8657L54.8551 22.8565V24.6231L54.814 24.6278C52.3888 24.6278 50.4194 22.6385 50.4194 20.1115C50.4194 17.6586 52.3888 15.7435 54.814 15.7435Z" fill="#ED1C24"/>
<path fill-rule="evenodd" clip-rule="evenodd" d="M54.8555 15.7482L55.6988 15.8316C57.7001 16.2304 59.2091 17.9646 59.2091 20.1115C59.2091 22.3186 57.7001 24.1223 55.6988 24.535L54.8555 24.6231V22.8565L55.7809 22.6525C56.6744 22.2351 57.3172 21.2568 57.3172 20.1115C57.3172 19.0172 56.6744 18.0991 55.7809 17.7096L54.8555 17.5148V15.7482Z" fill="#ED1C24"/>
<path fill-rule="evenodd" clip-rule="evenodd" d="M59.5874 15.8965C59.5874 15.8965 59.5874 15.8965 62.1266 15.8965H63.3392V17.5055H63.2253C63.0748 17.5055 62.7694 17.5055 62.1631 17.5055C62.1631 17.5055 62.1631 17.5055 62.1631 19.2675C62.1631 19.2675 62.1631 19.2675 62.6782 19.2675H63.3392V20.7977H62.9518C62.7603 20.7977 62.505 20.7977 62.1631 20.7977C62.1631 20.7977 62.1631 20.7977 62.1631 22.7127C62.1631 22.7916 62.1631 22.7916 62.2406 22.7916C62.2406 22.7916 62.2406 22.7916 62.7831 22.7916H63.3392V24.4747H63.1797C62.9062 24.4747 62.3546 24.4747 61.2559 24.4747C60.6496 24.4747 60.3487 24.1687 60.3487 23.4778V17.5055C60.3487 17.5055 60.3487 17.5055 59.5874 17.5055C59.5874 17.5055 59.5874 17.5055 59.5874 15.8965Z" fill="#ED1C24"/>
<path fill-rule="evenodd" clip-rule="evenodd" d="M63.3394 15.8965H63.3758C65.0443 15.8965 66.029 16.8146 66.029 18.1964C66.029 19.0357 65.6506 19.5736 65.2723 19.9584C65.9561 20.2645 66.4074 21.0296 66.4074 21.8688C66.4074 23.4778 65.1948 24.4747 63.4533 24.4747C63.4533 24.4747 63.4533 24.4747 63.4214 24.4747H63.3394V22.7916H63.5263C64.1326 22.7916 64.5155 22.4067 64.5155 21.7946C64.5155 21.1826 64.1326 20.7977 63.5263 20.7977C63.5263 20.7977 63.5263 20.7977 63.3576 20.7977H63.3394V19.2675H63.3758C63.9092 19.2675 64.2101 18.8827 64.2101 18.3494C64.2101 17.8116 63.9092 17.5055 63.3758 17.5055C63.3758 17.5055 63.3758 17.5055 63.3576 17.5055H63.3394V15.8965Z" fill="#ED1C24"/>
<path fill-rule="evenodd" clip-rule="evenodd" d="M69.8948 15.8965C69.8948 15.8965 69.8948 15.8965 70.6607 15.8965H70.802V18.3494C70.7291 18.5025 70.6516 18.7297 70.6516 18.9615C70.6516 18.9615 70.6516 18.9615 70.0453 20.7235C70.0453 20.7235 70.0453 20.7235 70.6881 20.7235H70.802V22.3279H70.3917C70.1592 22.3279 69.8948 22.3279 69.594 22.3279C69.594 22.3279 69.594 22.3279 69.0606 23.7097C68.9102 24.2429 68.6093 24.4747 68.003 24.4747C68.003 24.4747 68.003 24.4747 66.8633 24.4747C66.8633 24.4747 66.8633 24.4747 66.8633 22.7916C66.8633 22.7916 66.8633 22.7916 67.2417 22.7916C67.3967 22.7916 67.3967 22.7916 67.4696 22.7127C67.4696 22.7127 67.4696 22.7127 69.8948 15.8965Z" fill="#ED1C24"/>
<path fill-rule="evenodd" clip-rule="evenodd" d="M70.8018 15.8965H71.7135C71.7135 15.8965 71.7135 15.8965 74.1388 22.7127C74.2117 22.7916 74.2117 22.7916 74.3621 22.7916C74.3621 22.7916 74.3621 22.7916 74.6676 22.7916C74.6676 22.7916 74.6676 22.7916 74.6676 24.4747C74.6676 24.4747 74.6676 24.4747 73.6054 24.4747C72.9991 24.4747 72.6982 24.2429 72.5432 23.6308C72.5432 23.6308 72.5432 23.6308 72.0144 22.3279C72.0144 22.3279 72.0144 22.3279 70.9932 22.3279H70.8018V20.7235H71.5585C71.5585 20.7235 71.5585 20.7235 70.9568 18.9615C70.9568 18.7297 70.8793 18.5025 70.8018 18.3494V15.8965Z" fill="#ED1C24"/>
<path fill-rule="evenodd" clip-rule="evenodd" d="M41.6304 26.923C41.6304 26.923 41.6304 26.923 48.2223 26.923C48.8286 26.923 49.207 27.2291 49.207 27.92C49.207 27.92 49.207 27.92 49.207 33.7392C49.207 33.8134 49.207 33.8134 49.2845 33.8134C49.2845 33.8134 49.2845 33.8134 49.8908 33.8134C49.8908 33.8134 49.8908 33.8134 49.8908 35.5012C49.8908 35.5012 49.8908 35.5012 48.2998 35.5012C47.616 35.5012 47.3151 35.1952 47.3151 34.5043C47.3151 34.5043 47.3151 34.5043 47.3151 28.6109C47.3151 28.6109 47.3151 28.532 47.2376 28.532C47.2376 28.532 47.2376 28.532 44.2061 28.532C44.2061 28.532 44.2061 28.532 44.2061 35.5012C44.2061 35.5012 44.2061 35.5012 42.3871 35.5012C42.3871 35.5012 42.3871 35.5012 42.3871 28.532C42.3871 28.532 42.3871 28.532 41.6304 28.532C41.6304 28.532 41.6304 28.532 41.6304 26.923Z" fill="#ED1C24"/>
<path fill-rule="evenodd" clip-rule="evenodd" d="M54.664 26.77L54.7004 26.7747V28.5413L54.664 28.532C53.2963 28.532 52.2387 29.682 52.2387 31.1379C52.2387 32.6681 53.2963 33.8922 54.664 33.8922L54.7004 33.883V35.6496L54.664 35.6542C52.2387 35.6542 50.3423 33.6604 50.3423 31.1379C50.3423 28.685 52.2387 26.77 54.664 26.77Z" fill="#ED1C24"/>
<path fill-rule="evenodd" clip-rule="evenodd" d="M54.7002 26.7747L55.5709 26.8582C57.6087 27.257 59.0583 28.9911 59.0583 31.138C59.0583 33.3452 57.6087 35.1489 55.5709 35.5616L54.7002 35.6497V33.883L55.6621 33.679C56.5693 33.2617 57.1665 32.2833 57.1665 31.138C57.1665 30.0437 56.5693 29.1256 55.6621 28.7361L54.7002 28.5414V26.7747Z" fill="#ED1C24"/>
<path fill-rule="evenodd" clip-rule="evenodd" d="M59.437 26.923C59.437 26.923 59.437 26.923 61.1055 26.923C61.7118 26.923 62.0127 27.2291 62.0127 27.92C62.0127 27.92 62.0127 27.92 62.0127 33.7392C62.0127 33.8134 62.0127 33.8134 62.0902 33.8134C62.0902 33.8134 62.0902 33.8134 64.2875 33.8134C64.2875 33.8134 64.2875 33.8134 64.2875 26.923C64.2875 26.923 64.2875 26.923 66.1064 26.923C66.1064 26.923 66.1064 26.923 66.1064 33.8134C66.1064 33.8134 66.1064 33.8134 68.3038 33.8134C68.3813 33.8134 68.3813 33.8134 68.3813 33.7392C68.3813 33.7392 68.3813 33.7392 68.3813 27.92C68.3813 27.2291 68.6821 26.923 69.2884 26.923C69.2884 26.923 69.2884 26.923 70.9569 26.923C70.9569 26.923 70.9569 26.923 70.9569 28.532C70.9569 28.532 70.9569 28.532 70.2731 28.532C70.1956 28.532 70.1956 28.6109 70.1956 28.6109C70.1956 28.6109 70.1956 28.6109 70.1956 34.5043C70.1956 35.1952 69.8948 35.5012 69.2884 35.5012C69.2884 35.5012 69.2884 35.5012 61.1785 35.5012C60.4992 35.5012 60.1938 35.1952 60.1938 34.5043C60.1938 34.5043 60.1938 34.5043 60.1938 28.6109C60.1938 28.6109 60.1938 28.532 60.1208 28.532C60.1208 28.532 60.1208 28.532 59.437 28.532C59.437 28.532 59.437 28.532 59.437 26.923Z" fill="#ED1C24"/>
<path fill-rule="evenodd" clip-rule="evenodd" d="M72.3928 26.923C72.3928 26.923 72.3928 26.923 78.0776 26.923C78.7614 26.923 78.9893 27.2291 78.9893 27.8411C78.9893 27.8411 78.9893 27.8411 78.9893 29.2971H77.3208C77.3208 29.2971 77.3208 29.2971 77.3208 28.6109C77.3208 28.532 77.3208 28.532 77.2433 28.532C77.2433 28.532 77.2433 28.532 76.1857 28.532C76.1857 28.532 76.1857 28.532 76.1857 35.5012C76.1857 35.5012 76.1857 35.5012 74.3622 35.5012C74.3622 35.5012 74.3622 35.5012 74.3622 28.532C74.3622 28.532 74.3622 28.532 73.3046 28.532C73.2271 28.532 73.2271 28.532 73.2271 28.6109C73.2271 28.6109 73.2271 28.6109 73.2271 29.2971C73.2271 29.2971 73.2271 29.2971 71.5586 29.2971C71.5586 29.2971 71.5586 29.2971 71.5586 27.8411C71.5586 27.2291 71.7865 26.923 72.3928 26.923Z" fill="#ED1C24"/>
<path fill-rule="evenodd" clip-rule="evenodd" d="M81.3367 26.923C81.3367 26.923 81.3367 26.923 82.1026 26.923H82.2439V29.3759C82.1664 29.5289 82.0935 29.7562 82.0935 29.988C82.0935 29.988 82.0935 29.988 81.4872 31.75C81.4872 31.75 81.4872 31.75 82.1254 31.75H82.2439V33.3544H81.8336C81.6012 33.3544 81.3367 33.3544 81.0313 33.3544C81.0313 33.3544 81.0313 33.3544 80.5025 34.6573C80.3521 35.2694 80.0466 35.5012 79.4403 35.5012C79.4403 35.5012 79.4403 35.5012 78.3052 35.5012C78.3052 35.5012 78.3052 35.5012 78.3052 33.8134C78.3052 33.8134 78.3052 33.8134 78.6836 33.8134C78.8385 33.8134 78.8385 33.8134 78.9115 33.7392C78.9115 33.7392 78.9115 33.7392 81.3367 26.923Z" fill="#ED1C24"/>
<path fill-rule="evenodd" clip-rule="evenodd" d="M82.2441 26.923H83.1513C83.1513 26.923 83.1513 26.923 85.5811 33.7392C85.6541 33.8134 85.6541 33.8134 85.8091 33.8134H86.11C86.11 33.8134 86.11 33.8134 86.11 35.5012C86.11 35.5012 86.11 35.5012 85.0478 35.5012C84.4415 35.5012 84.1406 35.2694 83.9856 34.6573C83.9856 34.6573 83.9856 34.6573 83.4568 33.3544C83.4568 33.3544 83.4568 33.3544 82.4356 33.3544H82.2441V31.75H83.0009C83.0009 31.75 83.0009 31.75 82.3946 29.988C82.3946 29.7562 82.3216 29.5289 82.2441 29.3759V26.923Z" fill="#ED1C24"/>
<path fill-rule="evenodd" clip-rule="evenodd" d="M29.9509 19.5458C30.0375 19.518 30.1515 19.5737 30.2654 19.7267C30.2654 19.7267 30.2654 19.7267 35.4168 24.855C35.7177 25.1611 35.7177 25.6248 35.4168 25.852C35.4168 25.852 35.4168 25.852 30.2654 31.0592C30.1515 31.2122 30.0375 31.2493 29.9509 31.2029C29.8643 31.1565 29.8096 31.0221 29.8096 30.8273V19.8797C29.8096 19.6896 29.8643 19.5737 29.9509 19.5458Z" fill="#ED1C24"/>
<path fill-rule="evenodd" clip-rule="evenodd" d="M21.139 11.0001H21.5037L21.8548 11.1484C21.8548 11.1484 21.8548 11.1484 27.1566 16.5087C27.3845 16.8147 27.307 17.0465 26.9286 17.0465C26.9286 17.0465 26.9286 17.0465 24.7313 17.0465C24.353 17.0465 24.0521 17.3526 24.0521 17.7374C24.0521 17.7374 24.0521 17.7374 24.0521 21.7158C24.0521 22.1007 23.7466 22.4067 23.2908 22.4067C23.2908 22.4067 23.2908 22.4067 19.4295 22.4067C19.0511 22.4067 18.7457 22.1007 18.7457 21.7158C18.7457 21.7158 18.7457 21.7158 18.7457 17.7374C18.7457 17.3526 18.4448 17.0465 18.0619 17.0465H15.7141C15.3358 17.0465 15.2583 16.8147 15.4862 16.5087C15.4862 16.5087 15.4862 16.5087 20.7926 11.1484L21.139 11.0001Z" fill="#ED1C24"/>
<path fill-rule="evenodd" clip-rule="evenodd" d="M12.8329 19.4299C12.9286 19.4762 12.9879 19.6107 12.9879 19.8055V30.9803C12.9879 31.175 12.9286 31.291 12.8329 31.3281C12.7417 31.3652 12.6095 31.3281 12.4545 31.2121C12.4545 31.2121 12.4545 31.2121 7.22566 25.8519C6.92478 25.6247 6.92478 25.161 7.22566 24.855C7.22566 24.855 7.22566 24.855 12.4545 19.5736C12.6095 19.4206 12.7417 19.3835 12.8329 19.4299Z" fill="#ED1C24"/>
<path fill-rule="evenodd" clip-rule="evenodd" d="M19.4292 28.226C19.4292 28.226 19.4292 28.226 23.2904 28.226C23.7463 28.226 24.0518 28.532 24.0518 28.9169C24.0518 28.9169 24.0518 28.9169 24.0518 33.1272C24.0518 33.5862 24.3526 33.8923 24.731 33.8923H26.7779C27.1562 33.8923 27.3067 34.1195 27.0058 34.3513C27.0058 34.3513 27.0058 34.3513 21.8544 39.6327C21.6994 39.7857 21.5125 39.8645 21.3211 39.8645C21.1342 39.8645 20.9427 39.7857 20.7923 39.6327C20.7923 39.6327 20.7923 39.6327 15.6409 34.3513C15.3355 34.1195 15.4859 33.8923 15.8643 33.8923C15.8643 33.8923 15.8643 33.8923 18.0616 33.8923C18.4445 33.8923 18.7454 33.5862 18.7454 33.1272C18.7454 33.1272 18.7454 33.1272 18.7454 28.9169C18.7454 28.532 19.0508 28.226 19.4292 28.226Z" fill="#ED1C24"/>
</g>
<defs>
<clipPath id="clip0">
<rect x="7" y="11.0001" width="79.11" height="28.8645" fill="white"/>
</clipPath>
</defs>
</svg>
