<svg width="94" height="94" viewBox="0 0 94 94" fill="none" xmlns="http://www.w3.org/2000/svg">
<path d="M73.4062 93.7812H20.5938C9.42188 93.7812 0.28125 84.6406 0.28125 73.4688V20.6562C0.28125 9.48438 9.42188 0.34375 20.5938 0.34375H73.4062C84.5781 0.34375 93.7188 9.48438 93.7188 20.6562V73.4688C93.7188 84.6406 84.5781 93.7812 73.4062 93.7812Z" fill="url(#paint0_radial)"/>
<path d="M47 18.625C56.3438 18.625 57.3594 18.625 61.0156 18.8281C64.4688 19.0313 66.2969 19.6406 67.5156 20.0469C69.1406 20.6563 70.3594 21.4688 71.5781 22.6875C72.7969 23.9062 73.6094 25.125 74.2188 26.75C74.625 27.9688 75.2344 29.7969 75.4375 33.25C75.4375 36.7031 75.4375 37.7188 75.4375 47.0625C75.4375 56.4062 75.4375 57.4219 75.2344 61.0781C75.0313 64.5313 74.4219 66.3594 74.0156 67.5781C73.4062 69.2031 72.5938 70.4219 71.375 71.6406C70.1562 72.8594 68.9375 73.6719 67.3125 74.2813C66.0938 74.6875 64.2656 75.2969 60.8125 75.5C57.3594 75.5 56.3438 75.5 47 75.5C37.6562 75.5 36.6406 75.5 32.9844 75.2969C29.5312 75.0938 27.7031 74.4844 26.4844 74.0781C24.8594 73.4688 23.6406 72.6562 22.4219 71.4375C21.2031 70.2188 20.3906 69 19.7813 67.375C19.375 66.1562 18.7656 64.3281 18.5625 60.875C18.5625 57.4219 18.5625 56.4062 18.5625 47.0625C18.5625 37.7188 18.5625 36.7031 18.7656 33.0469C18.9688 29.5938 19.5781 27.7656 19.9844 26.5469C20.5938 24.9219 21.4062 23.7031 22.625 22.4844C23.8438 21.2656 25.0625 20.4531 26.6875 19.8438C27.9062 19.4375 29.7344 18.8281 33.1875 18.625C36.6406 18.625 37.6562 18.625 47 18.625ZM47 12.5312C37.6562 12.5312 36.4375 12.5313 32.7812 12.7344C29.125 12.9375 26.6875 13.5469 24.4531 14.3594C22.2187 15.1719 20.1875 16.3906 18.3594 18.4219C16.5312 20.4531 15.3125 22.2812 14.2969 24.5156C13.4844 26.75 12.875 29.1875 12.6719 32.8438C12.4688 36.5 12.4688 37.7188 12.4688 47.0625C12.4688 56.4062 12.4688 57.625 12.6719 61.2812C12.875 64.9375 13.4844 67.375 14.2969 69.6094C15.1094 71.8437 16.3281 73.875 18.3594 75.7031C20.1875 77.5312 22.2187 78.75 24.4531 79.7656C26.6875 80.5781 29.125 81.1875 32.7812 81.3906C36.4375 81.5938 37.6562 81.5938 47 81.5938C56.3438 81.5938 57.5625 81.5938 61.2188 81.3906C64.875 81.1875 67.3125 80.5781 69.5469 79.7656C71.7812 78.9531 73.8125 77.7344 75.6406 75.7031C77.4688 73.875 78.6875 71.8437 79.7031 69.6094C80.5156 67.375 81.125 64.9375 81.3281 61.2812C81.5312 57.625 81.5312 56.4062 81.5312 47.0625C81.5312 37.7188 81.5312 36.5 81.3281 32.8438C81.125 29.1875 80.5156 26.75 79.7031 24.5156C78.8906 22.2812 77.6719 20.25 75.6406 18.4219C73.6094 16.5937 71.7812 15.375 69.5469 14.3594C67.3125 13.5469 64.875 12.9375 61.2188 12.7344C57.5625 12.5313 56.3438 12.5312 47 12.5312Z" fill="white"/>
<path d="M47 28.7812C36.8438 28.7812 28.7188 36.9062 28.7188 47.0625C28.7188 57.2188 36.8438 65.3438 47 65.3438C57.1562 65.3438 65.2812 57.2188 65.2812 47.0625C65.2812 36.9062 57.1562 28.7812 47 28.7812ZM47 59.25C40.2969 59.25 34.8125 53.7656 34.8125 47.0625C34.8125 40.3594 40.2969 34.875 47 34.875C53.7031 34.875 59.1875 40.3594 59.1875 47.0625C59.1875 53.7656 53.7031 59.25 47 59.25Z" fill="white"/>
<path d="M65.2812 32.8438C67.5249 32.8438 69.3438 31.0249 69.3438 28.7812C69.3438 26.5376 67.5249 24.7188 65.2812 24.7188C63.0376 24.7188 61.2188 26.5376 61.2188 28.7812C61.2188 31.0249 63.0376 32.8438 65.2812 32.8438Z" fill="white"/>
<defs>
<radialGradient id="paint0_radial" cx="0" cy="0" r="1" gradientUnits="userSpaceOnUse" gradientTransform="translate(19.5963 112.663) rotate(-49.945) scale(141.468 93.4513)">
<stop offset="0.073" stop-color="#EACC7B"/>
<stop offset="0.184" stop-color="#ECAA59"/>
<stop offset="0.307" stop-color="#EF802E"/>
<stop offset="0.358" stop-color="#EF6D3A"/>
<stop offset="0.46" stop-color="#F04B50"/>
<stop offset="0.516" stop-color="#F03E58"/>
<stop offset="0.689" stop-color="#DB359E"/>
<stop offset="0.724" stop-color="#CE37A4"/>
<stop offset="0.789" stop-color="#AC3CB4"/>
<stop offset="0.877" stop-color="#7544CF"/>
<stop offset="0.98" stop-color="#2B4FF2"/>
</radialGradient>
</defs>
</svg>
