<svg width="26" height="25" viewBox="0 0 26 25" fill="none" xmlns="http://www.w3.org/2000/svg">
<path fill-rule="evenodd" clip-rule="evenodd" d="M12.8999 3.05176e-05C19.8035 3.05176e-05 25.3999 5.59647 25.3999 12.5C25.3999 19.4036 19.8035 25 12.8999 25C5.99634 25 0.399902 19.4036 0.399902 12.5C0.399902 5.59647 5.99634 3.05176e-05 12.8999 3.05176e-05Z" fill="#7F4DA0"/>
<path fill-rule="evenodd" clip-rule="evenodd" d="M16.2301 10.9159C16.1693 10.4219 16.0175 10.0341 15.7479 9.6906C15.3978 9.24827 14.9505 8.98339 14.2881 8.82627C13.8565 8.72154 13.6821 8.73356 13.526 8.87616C13.3806 9.00976 13.3522 9.2776 13.4633 9.45104C13.5415 9.57692 13.6316 9.62202 13.8824 9.67124C14.2163 9.73268 14.447 9.81241 14.6569 9.93243C15.1025 10.1897 15.31 10.5923 15.3322 11.244C15.3426 11.55 15.369 11.6441 15.4759 11.7526C15.674 11.951 16.0265 11.9124 16.1761 11.675C16.231 11.5855 16.2393 11.5466 16.2451 11.3388C16.2489 11.2102 16.2434 11.0187 16.2301 10.9159Z" fill="white"/>
<path fill-rule="evenodd" clip-rule="evenodd" d="M17.9752 11.4728C17.8872 9.95957 17.2953 8.74212 16.236 7.88554C15.6392 7.40423 14.9178 7.07327 14.1271 6.91232C13.8374 6.85475 13.3041 6.80809 13.2126 6.83478C13.1262 6.8595 13.0041 6.95298 12.9497 7.03752C12.8921 7.1292 12.8792 7.33389 12.9283 7.45229C13.0075 7.65022 13.155 7.72015 13.5678 7.75627C14.2043 7.81196 14.8609 8.03559 15.3569 8.36665C15.9232 8.74359 16.3734 9.25917 16.6646 9.86501C16.9163 10.3856 17.071 11.1357 17.0667 11.8075C17.0653 12.0504 17.1028 12.1876 17.2005 12.288C17.348 12.4422 17.563 12.4759 17.7527 12.3735C17.963 12.2629 18.0122 12.0688 17.9752 11.4728Z" fill="white"/>
<path fill-rule="evenodd" clip-rule="evenodd" d="M19.9062 17.3002C19.8766 17.2137 19.8075 17.0803 19.7582 17.0037C19.4473 16.5343 17.7772 15.2272 16.9433 14.7997C16.4672 14.5552 16.1144 14.4736 15.8529 14.5502C15.5716 14.6293 15.4236 14.7602 14.9524 15.3458C14.7624 15.5805 14.5675 15.8004 14.5157 15.835C14.3874 15.9239 14.1358 15.9956 13.9582 15.9956C13.5462 15.9931 12.7987 15.7263 12.2239 15.3754C11.7773 15.1037 11.205 14.6169 10.7659 14.1351C10.2478 13.5693 9.89502 13.0702 9.61622 12.5069C9.25605 11.783 9.16477 11.3407 9.31524 11.017C9.35225 10.9355 9.4016 10.849 9.42377 10.8218C9.44599 10.7971 9.67791 10.6069 9.93445 10.3993C10.4377 9.99908 10.5191 9.90766 10.6129 9.6334C10.7313 9.28501 10.6993 8.92922 10.5167 8.57098C10.3761 8.29918 10.0085 7.7062 9.74205 7.32325C9.38926 6.81923 8.511 5.74198 8.33581 5.59616C8.02004 5.33923 7.61548 5.29473 7.16891 5.46771C6.69775 5.65055 5.81453 6.36213 5.43706 6.85876C5.09661 7.30842 4.9659 7.62714 4.94615 8.04717C4.92889 8.39306 4.95848 8.53637 5.14105 8.97865C6.56946 12.4476 8.70093 15.2173 11.6293 17.4163C13.1589 18.5652 14.7452 19.4399 16.3907 20.0378C17.3503 20.3862 17.7673 20.4034 18.2582 20.1169C18.4654 19.9933 18.9786 19.467 19.2647 19.0841C19.7384 18.4466 19.9136 18.1526 19.9629 17.9179C19.9975 17.7573 19.9703 17.4781 19.9062 17.3002Z" fill="white"/>
<path fill-rule="evenodd" clip-rule="evenodd" d="M19.7518 11.8203C19.7202 10.9643 19.5761 10.2622 19.2756 9.47945C18.9789 8.70946 18.6786 8.207 18.1116 7.52741C17.5754 6.89021 17.159 6.52638 16.4986 6.12139C15.5772 5.55712 14.4558 5.18371 13.1991 5.02667C12.7706 4.97178 12.6736 4.9757 12.5422 5.06343C12.2874 5.22962 12.2908 5.64414 12.5464 5.80784C12.631 5.85991 12.706 5.87888 13.0488 5.92375C13.5751 5.9946 13.9135 6.06137 14.315 6.17092C15.8895 6.60133 17.1003 7.48109 17.9097 8.78706C18.5871 9.8756 18.8683 10.9642 18.8284 12.3546C18.8145 12.8246 18.8246 12.9073 18.8964 13.0202C19.034 13.2307 19.3969 13.2724 19.5831 13.0977C19.6989 12.9913 19.7207 12.9113 19.7435 12.509C19.7545 12.2992 19.7568 11.9894 19.7518 11.8203Z" fill="white"/>
</svg>
