<svg width="26" height="25" viewBox="0 0 26 25" fill="none" xmlns="http://www.w3.org/2000/svg">
<path fill-rule="evenodd" clip-rule="evenodd" d="M12.6333 25C19.5369 25 25.1333 19.4036 25.1333 12.5C25.1333 5.59647 19.5369 3.05176e-05 12.6333 3.05176e-05C5.72974 3.05176e-05 0.133301 5.59647 0.133301 12.5C0.133301 19.4036 5.72974 25 12.6333 25Z" fill="#25D366"/>
<path fill-rule="evenodd" clip-rule="evenodd" d="M13.0452 19.4545H13.0421C11.7981 19.454 10.5757 19.1419 9.49009 18.5498L5.5498 19.5834L6.60429 15.7317C5.95383 14.6045 5.61156 13.3258 5.61212 12.0158C5.61375 7.91759 8.94815 4.58337 13.0451 4.58337C15.0335 4.58423 16.8997 5.3583 18.303 6.76328C19.7064 8.16818 20.4788 10.0356 20.478 12.0217C20.4764 16.1189 17.1433 19.4528 13.0452 19.4545ZM9.67264 17.2041L9.89823 17.338C10.8468 17.9009 11.9341 18.1987 13.0426 18.1991H13.0451C16.4502 18.1991 19.2216 15.4277 19.223 12.0212C19.2236 10.3704 18.5816 8.81829 17.4152 7.65053C16.2488 6.48277 14.6977 5.83935 13.0476 5.83878C9.63986 5.83878 6.86842 8.60996 6.86707 12.0162C6.86659 13.1835 7.19321 14.3204 7.81163 15.304L7.95853 15.5377L7.33442 17.8175L9.67264 17.2041ZM16.7898 13.7891C16.7434 13.7117 16.6196 13.6652 16.4339 13.5722C16.2481 13.4792 15.335 13.03 15.1648 12.968C14.9946 12.906 14.8707 12.875 14.7469 13.0609C14.6231 13.2468 14.2672 13.6652 14.1589 13.7891C14.0505 13.9131 13.9422 13.9286 13.7565 13.8356C13.5708 13.7427 12.9724 13.5466 12.263 12.9138C11.7108 12.4213 11.3381 11.8132 11.2298 11.6272C11.1214 11.4413 11.2182 11.3408 11.3112 11.2482C11.3947 11.165 11.4969 11.0312 11.5898 10.9228C11.6826 10.8144 11.7136 10.7369 11.7755 10.613C11.8374 10.489 11.8065 10.3806 11.76 10.2876C11.7136 10.1947 11.3422 9.28048 11.1874 8.90861C11.0366 8.54646 10.8835 8.59552 10.7695 8.5898C10.6613 8.58436 10.5374 8.58322 10.4136 8.58322C10.2898 8.58322 10.0886 8.6297 9.91832 8.81564C9.74809 9.00158 9.2683 9.4509 9.2683 10.365C9.2683 11.2792 9.93379 12.1623 10.0267 12.2862C10.1195 12.4102 11.3363 14.2861 13.1993 15.0906C13.6424 15.2819 13.9884 15.3962 14.2581 15.4818C14.703 15.6232 15.1079 15.6032 15.4279 15.5554C15.7847 15.5021 16.5267 15.1061 16.6815 14.6723C16.8362 14.2384 16.8362 13.8666 16.7898 13.7891Z" fill="#FDFDFD"/>
</svg>
