<svg width="26" height="25" viewBox="0 0 26 25" fill="none" xmlns="http://www.w3.org/2000/svg">
<path fill-rule="evenodd" clip-rule="evenodd" d="M0.266602 12.5C0.266602 5.59644 5.86304 0 12.7666 0C19.6702 0 25.2666 5.59644 25.2666 12.5C25.2666 19.4036 19.6702 25 12.7666 25C5.86304 25 0.266602 19.4036 0.266602 12.5Z" fill="#45B035"/>
<path fill-rule="evenodd" clip-rule="evenodd" d="M8.314 9.90627C7.85233 9.90627 7.47816 9.54335 7.47816 9.09669C7.47816 8.6496 7.85233 8.28794 8.314 8.28794C8.77566 8.28794 9.15066 8.6496 9.15066 9.09669C9.15066 9.54335 8.77566 9.90627 8.314 9.90627ZM12.4565 8.28794C12.9182 8.28794 13.2919 8.6496 13.2919 9.09669C13.2919 9.54335 12.9182 9.90627 12.4565 9.90627C11.9944 9.90627 11.6211 9.54335 11.6211 9.09669C11.6211 8.6496 11.9944 8.28794 12.4565 8.28794ZM16.0177 10.0446C16.1019 10.0446 16.1852 10.0454 16.2681 10.05C15.8298 7.66126 13.3627 5.83334 10.3852 5.83334C7.09769 5.83334 4.43311 8.06209 4.43311 10.8113C4.43311 12.4233 5.34894 13.8563 6.76936 14.7658C6.78769 14.7775 6.82394 14.8004 6.82394 14.8004L6.24894 16.6017L8.4006 15.5058C8.4006 15.5058 8.4681 15.525 8.50185 15.535C9.0931 15.6996 9.72727 15.7888 10.3852 15.7888C10.5194 15.7888 10.6527 15.7833 10.7852 15.7767C10.6631 15.3979 10.596 15 10.596 14.5892C10.596 12.0788 13.0244 10.0446 16.0177 10.0446Z" fill="white"/>
<path fill-rule="evenodd" clip-rule="evenodd" d="M13.6066 13.1697C13.6066 12.793 13.9232 12.4868 14.3128 12.4868C14.7032 12.4868 15.0195 12.793 15.0195 13.1697C15.0195 13.548 14.7032 13.8547 14.3128 13.8547C13.9232 13.8547 13.6066 13.548 13.6066 13.1697ZM17.1062 13.1697C17.1062 12.793 17.422 12.4868 17.812 12.4868C18.2024 12.4868 18.5183 12.793 18.5183 13.1697C18.5183 13.548 18.2024 13.8547 17.812 13.8547C17.422 13.8547 17.1062 13.548 17.1062 13.1697ZM11.0337 14.6184C11.0337 16.9413 13.2858 18.8243 16.0633 18.8243C16.6187 18.8243 17.1545 18.7484 17.6537 18.6088C17.6824 18.6013 17.7395 18.5843 17.7395 18.5843L19.5566 19.5109L19.0708 17.9884C19.0708 17.9884 19.1016 17.9693 19.117 17.9597C20.3166 17.1913 21.0908 15.9809 21.0908 14.6184C21.0908 12.2963 18.8395 10.4134 16.0633 10.4134C13.2858 10.4134 11.0337 12.2963 11.0337 14.6184Z" fill="white"/>
</svg>
