<svg width="90" height="90" viewBox="0 0 90 90" fill="none" xmlns="http://www.w3.org/2000/svg">
<path fill-rule="evenodd" clip-rule="evenodd" d="M0 45C0 20.1472 20.1472 0 45 0C69.8528 0 90 20.1472 90 45C90 69.8528 69.8528 90 45 90C20.1472 90 0 69.8528 0 45Z" fill="#45B035"/>
<path fill-rule="evenodd" clip-rule="evenodd" d="M28.9709 35.6621C27.3089 35.6621 25.9619 34.3556 25.9619 32.7476C25.9619 31.1381 27.3089 29.8361 28.9709 29.8361C30.6329 29.8361 31.9829 31.1381 31.9829 32.7476C31.9829 34.3556 30.6329 35.6621 28.9709 35.6621ZM43.8839 29.8361C45.5459 29.8361 46.8914 31.1381 46.8914 32.7476C46.8914 34.3556 45.5459 35.6621 43.8839 35.6621C42.2204 35.6621 40.8764 34.3556 40.8764 32.7476C40.8764 31.1381 42.2204 29.8361 43.8839 29.8361ZM56.7045 36.161C57.0075 36.161 57.3075 36.164 57.606 36.1805C56.028 27.581 47.1465 21.0005 36.4275 21.0005C24.5925 21.0005 15 29.024 15 38.921C15 44.7245 18.297 49.883 23.4105 53.1575C23.4765 53.1995 23.607 53.282 23.607 53.282L21.537 59.7665L29.283 55.8215C29.283 55.8215 29.526 55.8905 29.6475 55.9265C31.776 56.519 34.059 56.84 36.4275 56.84C36.9105 56.84 37.3905 56.8205 37.8675 56.7965C37.428 55.433 37.1865 54.0005 37.1865 52.5215C37.1865 43.484 45.9285 36.161 56.7045 36.161Z" fill="white"/>
<path fill-rule="evenodd" clip-rule="evenodd" d="M48.024 47.4107C48.024 46.0547 49.164 44.9522 50.5665 44.9522C51.972 44.9522 53.1105 46.0547 53.1105 47.4107C53.1105 48.7727 51.972 49.8767 50.5665 49.8767C49.164 49.8767 48.024 48.7727 48.024 47.4107ZM60.6225 47.4107C60.6225 46.0547 61.7595 44.9522 63.1635 44.9522C64.569 44.9522 65.706 46.0547 65.706 47.4107C65.706 48.7727 64.569 49.8767 63.1635 49.8767C61.7595 49.8767 60.6225 48.7727 60.6225 47.4107ZM38.7615 52.6268C38.7615 60.9893 46.869 67.7678 56.868 67.7678C58.8675 67.7678 60.7965 67.4948 62.5935 66.9923C62.697 66.9653 62.9025 66.9038 62.9025 66.9038L69.444 70.2398L67.695 64.7588C67.695 64.7588 67.806 64.6898 67.8615 64.6553C72.18 61.8893 74.967 57.5318 74.967 52.6268C74.967 44.2673 66.8625 37.4888 56.868 37.4888C46.869 37.4888 38.7615 44.2673 38.7615 52.6268Z" fill="white"/>
</svg>
