<svg width="1056" height="712" viewBox="0 0 1056 712" fill="none" xmlns="http://www.w3.org/2000/svg">
<path d="M642.712 1.50253C642.017 2.37128 640.367 4.89076 639.064 7.06273C637.849 9.23471 635.851 11.4936 634.636 12.0148C633.333 12.623 628.383 13.0574 623.433 13.0574C616.312 13.0574 614.228 12.7968 613.273 11.6673C612.665 10.9723 610.667 9.58222 608.757 8.62655C605.717 6.97587 605.196 6.97587 603.373 8.19218C600.594 10.0166 596.86 16.4457 596.252 20.6159C595.991 22.4403 595.383 24.6123 595.036 25.3942C594.167 26.958 583.573 32.3446 578.449 33.7346C575.062 34.6903 573.326 33.9953 567.681 29.9989C565.944 28.7826 564.12 28.3481 560.126 28.435C557.26 28.5219 552.744 28.0875 550.139 27.3925C543.192 25.568 542.584 25.6549 538.329 29.5644C534.073 33.474 532.684 33.8215 530.426 31.302C528.516 29.2169 524.781 29.0432 519.31 30.9545C514.621 32.5183 513.318 33.9953 502.811 48.7647C498.642 54.6725 493.953 61.0147 492.39 62.8392C489.611 66.2274 489.611 66.2274 489.698 75.871C489.784 84.0376 490.132 86.644 492.129 92.2912C493.345 96.0269 494.647 100.718 494.908 102.804C495.429 106.626 495.429 106.626 492.563 107.061C488.221 107.756 487.005 107.061 485.355 103.412C483.792 99.8496 478.582 94.7238 473.979 92.2912C472.242 91.3355 467.9 90.7273 460.779 90.293C452.269 89.8586 449.577 89.4242 447.059 87.8603C443.151 85.6015 442.716 85.6015 439.851 87.8603C438.548 88.9029 436.464 89.511 434.901 89.511C429.951 89.2504 429.43 89.511 426.998 94.2893C422.83 102.108 420.138 100.371 417.532 88.2078C414.667 75.2628 412.409 73.1778 404.68 76.7398C402.075 77.9561 398.775 79.1724 397.298 79.5199C394.433 80.1281 392.349 82.1263 388.962 87.5997C387.659 89.6848 386.183 91.2486 385.662 91.0748C385.141 90.9011 384.012 88.9029 383.143 86.5571C382.275 84.2114 380.886 81.605 380.017 80.6494C378.367 78.8249 377.065 78.8249 365.862 80.4756C362.041 80.9969 361.867 80.91 360.478 78.1299C359.696 76.4792 358.654 74.1334 358.133 72.7433C356.657 69.0076 354.312 69.7894 348.407 76.0448C345.454 79.1724 342.762 81.6919 342.415 81.6919C342.154 81.6919 340.591 79.8675 339.115 77.6955C337.291 75.176 335.728 73.8728 334.86 74.0465C333.036 74.3941 331.386 77.5217 330.691 81.9525C330.083 85.5146 328.347 86.8178 326.349 85.1671C325.307 84.2983 325.394 83.6032 326.957 80.3887C328.52 77.2611 328.607 76.3923 327.652 75.2628C326.089 73.3515 322.007 73.5253 318.186 75.7841L314.886 77.6955L309.849 75.6103C307.07 74.4809 303.423 73.6121 301.86 73.6121C298.647 73.699 297.865 72.7433 296.91 67.7044C296.563 65.8799 295.868 64.1423 295.26 63.621C294.739 63.1867 290.136 62.5785 285.1 62.231C277.197 61.7097 275.547 61.3622 272.508 59.2771C269.468 57.2788 268.166 56.9313 262.521 56.9313C256.616 56.9313 255.834 56.7576 253.663 54.5856C252.447 53.2825 250.45 52.0661 249.321 51.8055C248.279 51.6317 243.416 50.5023 238.64 49.4598C232.908 48.1566 227.611 47.4615 223.008 47.5484C219.187 47.6353 211.198 47.809 205.206 47.9828C194.698 48.1566 194.177 48.1566 188.185 45.4633L182.019 42.7701L176.896 44.942C166.388 49.3729 164.564 49.7204 156.488 48.6778L149.019 47.7222L138.772 51.6317C133.214 53.8037 127.83 56.2363 126.962 57.0182C126.093 57.8001 124.096 60.6672 122.62 63.3604C114.717 77.348 106.554 81.8657 100.562 75.6103C97.349 72.2221 92.399 71.9615 89.3596 75.0891C87.2754 77.0873 87.2754 77.3479 87.4491 92.8124L87.5359 108.451L92.5727 115.749C96.5674 121.569 97.6964 124.089 98.3911 128.172C99.3463 134.254 103.949 141.552 108.465 144.158C112.72 146.677 112.373 148.676 107.77 148.415C104.557 148.154 104.036 148.415 103.775 150.066C103.602 151.021 105.252 155.192 107.423 159.188C109.594 163.271 111.417 167.442 111.417 168.571C111.417 170.395 110.288 174.913 107.683 183.775L106.641 187.25L101.865 186.989C96.5674 186.816 95.2648 187.511 91.0096 193.332C89.6201 195.243 85.3649 199.934 81.457 203.757C77.115 207.927 68.6914 218.353 60.0941 229.908C37.9496 259.794 32.6523 267.092 31.2628 269.872C29.005 274.216 28.6576 281.253 30.2207 291.071C32.0444 303.147 32.826 305.232 36.8207 309.837C44.7232 318.959 37.5154 321.305 29.005 312.443C25.0971 308.446 21.7103 308.186 19.8866 311.748C19.1919 313.138 17.8024 317.134 16.8472 320.696C15.0235 327.734 10.5946 337.812 7.55518 341.895C2.9526 348.237 1.12894 353.45 0.521047 361.877L0 370.044L3.21312 371.955C6.51309 373.866 8.33676 376.56 9.29201 380.99C10.4209 386.29 12.8525 388.983 16.934 389.678C21.2761 390.373 22.8392 391.416 22.8392 393.588C22.8392 395.934 25.5313 397.671 31.0892 398.801C37.8628 400.191 39.5996 401.146 39.0785 403.145C38.818 404.1 39.3391 405.317 40.1206 406.099C41.9443 407.662 48.8048 408.705 52.8863 408.01C55.4915 407.489 56.2731 406.794 57.6626 403.579C58.6178 401.494 59.7467 399.496 60.2678 399.235C60.702 398.888 63.8283 401.581 67.2151 405.23C70.5151 408.792 74.0755 412.006 75.0308 412.267C75.986 412.614 79.1992 411.919 82.2386 410.877L87.7965 408.879L91.0096 411.746C94.6569 414.873 93.2674 414.786 109.073 412.962C112.286 412.615 113.849 412.962 116.28 414.352C120.275 416.785 127.917 416.785 135.906 414.352C143.896 412.006 146.241 412.354 147.196 415.829C148.064 419.217 157.79 428.513 163.088 431.12C165.867 432.51 167.604 432.77 170.035 432.336C174.377 431.467 181.411 424.864 182.627 420.521C183.669 416.785 184.885 416.177 192.18 416.177C194.785 416.177 202.774 415.568 209.895 414.873C222.14 413.657 223.182 413.396 230.737 409.748C240.463 405.056 257.745 392.024 259.481 388.028C260.089 386.551 261.305 383.51 262.087 381.164C262.868 378.905 263.997 377.081 264.605 377.081C265.3 377.081 267.818 377.95 270.25 378.905C274.505 380.73 274.766 380.73 276.416 379.253C277.371 378.384 278.152 376.994 278.152 376.038C278.152 374.735 278.847 374.475 282.321 374.475C284.665 374.475 287.271 373.953 288.226 373.171C290.571 371.347 291.96 371.608 293.957 374.04C296.476 377.255 298.734 376.733 302.989 372.216C306.636 368.219 306.723 368.132 310.891 368.741C314.018 369.175 315.755 368.914 317.839 367.785C320.357 366.395 320.791 366.395 322.181 367.698C323.049 368.393 325.741 369.262 328.173 369.436C331.994 369.783 333.991 370.826 342.067 376.299C349.102 381.164 351.967 383.684 353.357 386.203C354.746 388.897 355.702 389.765 357.699 389.939C359.783 390.113 360.478 390.721 361.173 392.893C361.78 394.978 362.736 395.934 365.515 396.889C369.075 398.193 369.249 398.193 374.807 395.326C380.191 392.459 380.451 392.459 383.751 393.675C386.356 394.631 387.572 395.76 388.962 398.714C391.48 404.013 399.817 410.269 404.072 410.095C405.722 410.008 407.546 409.921 408.067 410.008C408.501 410.095 409.456 412.006 410.064 414.265C410.585 416.611 412.409 420.347 414.059 422.693C415.709 425.038 417.098 427.21 417.098 427.558C417.098 427.992 415.361 429.469 413.19 430.946C409.196 433.726 408.414 435.637 410.151 438.765C411.019 440.416 410.064 447.279 408.24 452.058C406.851 455.62 408.588 457.184 413.538 456.836C416.577 456.662 417.532 456.923 417.706 457.879C418.748 465.524 418.748 465.698 421.788 465.698C423.264 465.698 425.348 465.089 426.303 464.394C427.172 463.699 428.648 463.091 429.517 463.091C431.861 463.091 431.601 464.655 427.693 473.517C426.998 475.167 426.217 478.382 425.956 480.641C425.609 484.55 425.696 484.724 428.04 485.245C429.43 485.593 430.993 485.94 431.514 486.114C432.556 486.375 436.638 494.281 437.593 497.843C438.548 501.405 440.545 503.056 444.019 503.056C446.624 503.056 448.014 503.751 451.227 506.878C453.485 508.963 455.308 511.049 455.308 511.57C455.308 512.004 454.527 514.176 453.572 516.435C452.095 519.65 451.922 520.779 452.79 522.256C453.572 523.733 453.572 525.21 452.703 528.685C451.748 532.508 451.835 533.55 453.051 535.896C453.832 537.46 454.961 538.676 455.656 538.676C457.219 538.676 460.779 542.759 460.085 543.802C459.824 544.323 458 544.758 456.177 544.758C452.703 544.758 450.011 542.499 448.795 538.589C448.187 536.678 444.28 535.462 442.456 536.678C441.674 537.112 440.632 538.85 440.111 540.501C439.503 542.151 438.548 543.541 437.766 543.715C437.072 543.802 434.206 542.151 431.34 539.979C426.738 536.33 425.869 535.983 422.917 536.417C421.093 536.765 418.661 537.547 417.532 538.329C414.927 540.066 413.625 539.284 413.625 536.07C413.625 533.463 411.714 530.857 409.717 530.857C407.285 530.857 397.212 535.983 396.343 537.72C394.867 540.414 393.304 552.837 393.999 556.399C394.433 558.832 395.388 560.048 397.646 561.438C399.296 562.394 400.598 563.61 400.598 564.045C400.598 564.566 398.688 566.825 396.343 569.084C392.349 572.907 392.001 573.515 392.175 576.99C392.349 580.639 392.262 580.726 388.788 582.029C383.143 584.201 382.275 585.33 382.449 589.935C382.535 592.107 382.362 594.366 382.101 594.887C381.754 595.408 378.801 596.538 375.415 597.32C371.767 598.188 368.988 599.405 368.554 600.273C368.12 601.055 367.599 604.27 367.425 607.398C367.165 610.612 366.644 613.653 366.383 614.174C366.036 614.695 364.038 615.13 361.867 615.13C354.138 615.13 353.01 617.562 356.744 625.729C357.959 628.249 358.915 631.724 358.915 633.461C358.915 637.545 360.999 639.369 370.465 643.8C382.883 649.621 385.922 649.447 389.222 642.497C390.959 638.848 391.22 638.587 394.52 638.587C396.517 638.587 403.985 636.676 411.193 634.243C418.401 631.811 425.609 629.899 427.259 629.899C430.472 629.899 432.382 631.463 435.769 636.85C437.853 640.238 440.632 641.367 441.848 639.456C442.369 638.674 444.28 631.897 445.756 625.642C446.451 623.036 446.19 622.514 443.411 619.908C440.98 617.736 440.285 616.259 439.938 613.045C439.416 608.788 440.632 607.658 442.282 610.786C443.498 613.132 447.059 613.045 448.709 610.612C449.49 609.57 450.098 607.224 450.098 605.486C450.098 602.532 450.445 602.011 454.266 599.839C456.524 598.536 462.69 594.453 467.9 590.717C477.54 583.853 480.319 580.726 483.445 573.08C484.921 569.518 485.269 564.74 484.14 564.74C483.184 564.74 473.371 555.965 473.806 555.444C474.674 554.662 487.613 561.612 488.916 563.524C491.174 566.999 493.605 565.956 496.558 560.222C498.034 557.529 500.64 552.664 502.463 549.536C505.676 544.15 505.85 543.541 505.503 537.634C505.242 530.683 504.721 531.291 513.492 528.338C517.834 526.947 519.831 526.687 521.916 527.295C525.216 528.251 538.155 527.642 541.455 526.339C543.365 525.644 544.234 525.818 546.144 527.295C549.01 529.554 550.4 529.554 553.178 527.382C554.828 526.079 556.739 525.644 560.56 525.644C563.86 525.644 566.639 525.123 568.202 524.167C571.155 522.517 572.805 523.038 579.057 527.556C583.486 530.857 584.181 532.073 582.878 534.506C582.183 535.809 581.315 536.157 579.231 535.809C571.241 534.593 564.468 533.376 558.736 532.073C553.613 530.857 552.223 530.857 551.702 531.726C551.268 532.334 551.181 533.29 551.355 533.811C552.136 535.896 559.518 539.545 570.373 543.368C572.11 543.976 572.11 544.063 570.373 545.279C569.418 545.974 567.247 546.93 565.51 547.364C561.776 548.407 559.257 550.926 560.039 552.837C560.647 554.575 561.602 554.836 570.894 556.486C576.018 557.442 579.318 558.571 582.097 560.396C587.654 564.132 598.249 569.171 603.373 570.474C609.538 572.125 617.007 571.951 623.694 570.039C635.07 566.738 636.199 566.738 642.277 570.735C654.088 578.38 659.733 579.336 664.769 574.557C667.635 571.864 668.764 572.472 669.459 577.077C670.327 582.116 667.375 586.547 659.993 591.499C652.351 596.711 642.451 601.75 635.678 603.922C625.257 607.224 614.054 614.782 611.188 620.429C610.494 621.733 609.452 624.86 608.93 627.293C607.194 635.633 610.58 637.545 624.301 635.894C634.983 634.591 636.372 635.199 640.541 642.497C642.364 645.537 644.449 648.404 645.317 648.926C648.617 650.663 653.827 650.837 657.996 649.447C661.817 648.144 662.338 648.144 664.248 649.447L666.333 650.837L665.898 663.174C665.117 682.982 664.943 683.764 661.035 688.89C655.825 695.927 656.172 698.099 663.64 705.832L669.719 712L679.706 709.915C685.264 708.872 692.038 708.004 694.816 708.177C697.509 708.264 700.548 708.264 701.59 708.264C704.195 708.004 708.103 703.833 711.403 697.578C716.874 687.066 722.866 682.287 733.634 679.942C745.271 677.335 749.7 675.858 760.121 671.427C772.973 665.954 776.534 663.521 779.226 658.135C781.31 654.052 781.571 653.791 784.437 654.139C786.086 654.225 788.431 654.92 789.647 655.529C793.381 657.44 813.789 660.481 823.776 660.568C828.812 660.568 829.16 660.481 831.852 657.353C835.152 653.53 835.673 651.271 834.631 645.364C833.241 637.805 835.152 634.851 841.752 634.764C844.444 634.678 844.791 634.417 845.052 632.245C845.486 628.77 843.402 626.163 837.67 622.862L832.72 619.995L827.336 621.472C824.384 622.254 819.868 623.818 817.349 625.034C814.831 626.25 812.399 627.293 812.052 627.293C811.618 627.293 809.36 625.903 806.928 624.252C804.497 622.601 802.152 621.211 801.718 621.211C799.634 621.211 794.944 623.905 791.297 627.032C786 631.55 778.358 633.896 772.974 632.506C761.424 629.639 758.992 628.596 756.995 625.903C754.563 622.775 754.389 620.429 756.213 615.564C758.037 610.438 757.863 605.399 755.692 602.619C754.65 601.316 751.524 599.144 748.745 597.667C745.879 596.277 741.537 593.236 739.019 590.977C736.413 588.719 733.287 586.025 732.071 584.983C729.987 583.245 729.727 582.289 729.553 577.337C729.466 574.21 729.379 570.995 729.379 570.126C729.292 568.91 730.334 568.563 735.111 568.041C740.148 567.607 741.624 566.999 746.4 563.61C752.045 559.614 757.516 556.921 760.034 556.921C762.032 556.921 765.071 553.619 765.766 550.579C766.547 547.538 767.329 547.103 770.716 548.059C774.71 549.102 776.447 548.493 777.923 545.54C778.705 544.15 779.834 543.02 780.616 543.02C781.31 543.02 785.565 540.501 790.081 537.46C801.197 529.814 806.234 527.99 817.002 527.556C825.165 527.208 825.773 527.034 828.812 524.428C830.549 522.951 836.281 519.997 841.404 517.912L850.783 514.089L854.865 516.435C862.073 520.432 865.286 518.955 868.672 509.832C870.843 504.011 871.451 503.403 876.488 502.795C889.775 501.144 890.47 500.884 896.027 494.976L901.238 489.503L909.227 488.373C916.696 487.244 921.906 487.331 933.89 488.808C937.451 489.242 938.232 489.068 940.924 486.636C943.269 484.55 944.138 483.073 944.485 480.033C944.832 477.861 945.614 474.907 946.395 473.517C947.351 471.692 947.437 470.389 946.83 468.738C945.006 463.96 947.003 445.194 949.609 442.588C950.216 441.893 954.906 440.85 960.116 440.155C974.011 438.418 976.442 436.419 980.698 423.822C983.303 416.003 983.824 415.655 990.077 417.393C997.719 419.478 1022.38 419.391 1027.16 417.132C1033.24 414.352 1036.28 409.661 1036.28 403.318C1036.28 401.233 1037.14 398.888 1038.53 396.803C1040.79 393.414 1043.22 386.638 1043.22 383.423C1043.22 382.381 1042.18 380.817 1040.88 379.861C1038.62 378.21 1038.53 377.95 1039.58 375.17C1041.14 370.826 1040.88 368.132 1038.53 362.485C1037.4 359.792 1036.02 356.056 1035.49 354.319C1034.89 352.494 1033.32 350.235 1032.02 349.28C1029.68 347.629 1029.59 347.455 1030.37 343.024C1031.33 337.812 1032.8 336.248 1036.97 336.248C1042.53 336.248 1048.43 331.556 1048.43 327.039C1048.43 323.39 1047.3 322.782 1043.22 324.085C1040.18 325.04 1039.66 325.04 1037.32 323.303C1034.1 321.044 1030.72 315.831 1031.33 314.18C1031.59 313.485 1033.32 312.704 1035.23 312.356C1040.53 311.487 1043.66 309.055 1047.04 303.06C1048.69 300.019 1051.3 296.457 1052.69 295.067C1054.17 293.677 1055.55 291.418 1055.82 290.115C1056.6 286.553 1054.77 278.473 1052.69 276.649C1049.13 273.434 1049.04 272.305 1052.34 268.743C1053.99 266.918 1055.38 265.007 1055.38 264.399C1055.38 263.877 1054.34 262.227 1053.12 260.75C1049.65 256.58 1045.74 256.927 1039.84 262.14L1035.15 266.223L1031.41 262.053C1029.42 259.794 1026.9 256.058 1025.77 253.886C1023.34 249.282 1019.6 246.675 1016.3 247.37C1013.09 247.979 1005.88 244.764 1002.32 241.028C999.021 237.64 998.674 237.553 990.945 239.551L985.213 241.028L981.219 237.379C979.048 235.381 976.703 233.73 976.008 233.73C975.313 233.73 974.011 232.34 972.969 230.69C971.232 227.736 971.058 227.649 965.848 227.649C958.814 227.649 955.774 225.998 949.869 219.308C945.961 214.878 944.398 213.748 942.401 213.748C938.406 213.748 936.409 216.441 936.409 222.002C936.409 227.041 935.019 231.124 933.369 231.124C932.761 231.124 931.632 230.255 930.677 229.3C929.809 228.257 926.856 225.824 924.251 223.913C913.917 216.441 910.964 212.532 908.185 203.149C907.056 199.153 906.188 197.849 903.756 196.285C901.759 195.069 899.849 192.637 898.112 189.335C896.635 186.207 894.985 184.209 894.117 184.209C893.335 184.209 889.341 185.773 885.259 187.771C881.178 189.683 875.272 191.855 872.146 192.55C869.02 193.245 863.723 194.809 860.249 196.025C852.694 198.544 843.488 198.892 839.146 196.633C836.715 195.417 835.847 195.417 833.589 196.285C827.77 198.718 827.51 198.631 825.426 193.505C824.384 190.986 822.126 187.337 820.476 185.599L817.523 182.385L810.315 182.906C799.807 183.688 797.897 184.036 795.465 185.947C794.25 186.903 792.773 187.424 792.079 187.163C790.429 186.468 782.613 176.738 780.355 172.567C777.923 168.224 777.837 165.617 780.094 162.75C782.613 159.449 782.265 155.8 778.358 147.373C776.447 143.289 774.884 139.38 774.884 138.685C774.884 138.076 775.666 136.86 776.621 135.991C780.268 132.69 778.531 130.257 769.587 126.174C763.768 123.568 762.813 122.438 761.424 116.009C760.295 110.97 757.863 110.101 752.045 112.534C747.355 114.445 741.19 114.185 737.108 111.839C729.64 107.582 722.258 105.757 717.395 106.8C711.837 108.103 711.577 107.321 711.577 88.816C711.49 84.4721 711.229 83.9508 707.148 79.6068C704.803 77.0873 702.806 74.6547 702.806 74.2203C702.806 73.7859 705.498 72.1352 708.798 70.5714C721.39 64.5767 722.085 62.4047 714.095 53.0218C711.143 49.7204 708.45 46.9402 708.016 46.9402C706.453 46.9402 701.243 35.1247 699.94 28.8694C698.898 23.8304 697.682 21.3109 693.948 15.9244C688.564 8.27904 685.611 5.93334 678.925 3.9351C672.932 2.1975 670.675 2.28441 668.069 4.36952C665.204 6.62836 664.769 6.62836 657.388 3.0663C650.18 -0.408849 644.883 -0.930089 642.712 1.50253ZM704.543 566.043C708.103 569.779 712.271 571.777 714.877 571.082C716.44 570.735 716.787 570.908 716.527 571.777C716.266 572.646 714.269 573.08 709.666 573.254C703.153 573.515 703.066 573.515 698.203 569.779C695.511 567.694 693.253 565.696 693.253 565.348C693.253 564.392 696.727 563.089 699.419 563.089C700.809 563.002 702.632 564.045 704.543 566.043ZM720.174 565.609C721.303 566.304 721.303 566.564 720 567.954C718.177 569.692 716.266 568.476 717.221 566.217C717.829 564.566 718.35 564.392 720.174 565.609Z" fill="white" fill-opacity="0.06"/>
</svg>
