<svg width="1920" height="461" viewBox="0 0 1920 461" fill="none" xmlns="http://www.w3.org/2000/svg">
<g filter="url(#filter0_i)">
<path fill-rule="evenodd" clip-rule="evenodd" d="M1920 0L1840 39C1760 77 1600 154 1440 173C1280 192 1120 154 960 192C800 231 640 346 480 384C320 423 160 384 80 365L0 346V461H80C160 461 320 461 480 461C640 461 800 461 960 461C1120 461 1280 461 1440 461C1600 461 1760 461 1840 461H1920V0Z" fill="#F2D035" fill-opacity="0.9"/>
</g>
<defs>
<filter id="filter0_i" x="0" y="0" width="1920" height="462" filterUnits="userSpaceOnUse" color-interpolation-filters="sRGB">
<feFlood flood-opacity="0" result="BackgroundImageFix"/>
<feBlend mode="normal" in="SourceGraphic" in2="BackgroundImageFix" result="shape"/>
<feColorMatrix in="SourceAlpha" type="matrix" values="0 0 0 0 0 0 0 0 0 0 0 0 0 0 0 0 0 0 127 0" result="hardAlpha"/>
<feOffset dy="1"/>
<feGaussianBlur stdDeviation="10"/>
<feComposite in2="hardAlpha" operator="arithmetic" k2="-1" k3="1"/>
<feColorMatrix type="matrix" values="0 0 0 0 0 0 0 0 0 0 0 0 0 0 0 0 0 0 0.12 0"/>
<feBlend mode="normal" in2="shape" result="effect1_innerShadow"/>
</filter>
</defs>
</svg>
