<svg
        xmlns="http://www.w3.org/2000/svg"
        xmlns:xlink="http://www.w3.org/1999/xlink"
        width="50px" height="50px">
    <path fill-rule="evenodd"  fill="rgb(157, 227, 213)"
          d="M24.797,0.312 C38.371,0.312 49.375,11.309 49.375,24.875 C49.375,38.440 38.371,49.437 24.797,49.437 C11.223,49.437 0.219,38.440 0.219,24.875 C0.219,11.309 11.223,0.312 24.797,0.312 Z"/>
    <path fill-rule="evenodd"  fill="rgb(255, 255, 255)"
          d="M32.710,16.669 C30.488,14.639 27.725,13.624 24.425,13.624 C20.956,13.624 18.000,14.776 15.560,17.087 C13.119,19.397 11.897,22.270 11.897,25.708 C11.897,29.003 13.060,31.835 15.381,34.210 C17.711,36.585 20.842,37.772 24.783,37.772 C27.158,37.772 29.489,37.288 31.775,36.319 C32.521,36.003 32.884,35.156 32.580,34.412 L32.580,34.412 C32.267,33.643 31.383,33.289 30.612,33.614 C28.625,34.461 26.676,34.885 24.778,34.885 C21.757,34.885 19.416,33.974 17.756,32.147 C16.101,30.323 15.271,28.180 15.271,25.722 C15.271,23.052 16.161,20.826 17.935,19.038 C19.704,17.255 21.886,16.358 24.470,16.358 C26.850,16.358 28.863,17.092 30.503,18.561 C32.143,20.028 32.963,21.875 32.963,24.102 C32.963,25.625 32.585,26.895 31.835,27.905 C31.084,28.920 30.304,29.422 29.494,29.422 C29.057,29.422 28.838,29.191 28.838,28.723 C28.838,28.343 28.868,27.900 28.923,27.388 L29.847,19.894 L26.667,19.894 L26.463,20.628 C25.653,19.974 24.763,19.644 23.799,19.644 C22.268,19.644 20.956,20.250 19.868,21.457 C18.775,22.663 18.233,24.220 18.233,26.121 C18.233,27.980 18.715,29.481 19.684,30.619 C20.653,31.762 21.816,32.329 23.178,32.329 C24.395,32.329 25.434,31.821 26.299,30.811 C26.950,31.782 27.909,32.264 29.176,32.264 C31.040,32.264 32.650,31.461 34.007,29.850 C35.363,28.245 36.044,26.303 36.044,24.033 C36.044,21.156 34.936,18.697 32.710,16.669 ZM25.384,28.003 C24.823,28.752 24.152,29.131 23.372,29.131 C22.840,29.131 22.413,28.855 22.089,28.303 C21.761,27.752 21.597,27.067 21.597,26.244 C21.597,25.230 21.826,24.412 22.283,23.792 C22.740,23.171 23.307,22.856 23.983,22.856 C24.569,22.856 25.091,23.087 25.548,23.555 C26.006,24.023 26.234,24.644 26.234,25.422 C26.229,26.393 25.946,27.250 25.384,28.003 Z"/>
</svg>
