<svg
        xmlns="http://www.w3.org/2000/svg"
        xmlns:xlink="http://www.w3.org/1999/xlink"
        width="50px" height="50px">
    <path fill-rule="evenodd"  fill="rgb(157, 227, 213)"
          d="M24.953,0.719 C38.527,0.719 49.531,11.716 49.531,25.281 C49.531,38.847 38.527,49.844 24.953,49.844 C11.379,49.844 0.375,38.847 0.375,25.281 C0.375,11.716 11.379,0.719 24.953,0.719 Z"/>
    <path fill-rule="evenodd"  fill="rgb(255, 255, 255)"
          d="M33.708,29.641 C32.384,28.490 31.040,27.794 29.732,28.943 L28.951,29.637 C28.379,30.141 27.317,32.496 23.209,27.696 C19.102,22.901 21.546,22.154 22.118,21.655 L22.904,20.959 C24.205,19.808 23.714,18.359 22.775,16.867 L22.209,15.963 C21.266,14.474 20.240,13.496 18.935,14.646 L18.230,15.271 C17.654,15.699 16.042,17.085 15.651,19.721 C15.181,22.882 16.665,26.502 20.065,30.474 C23.461,34.449 26.786,36.445 29.936,36.410 C32.554,36.381 34.134,34.955 34.629,34.436 L35.336,33.810 C36.637,32.660 35.829,31.490 34.504,30.338 L33.708,29.641 Z"/>
</svg>
